{"glyphs":{"0":{"ha":750,"x_min":31,"x_max":719,"o":"m 367 -19 q 182 45 258 -19 q 68 210 106 110 q 31 419 31 311 q 68 638 31 533 q 185 809 106 742 q 383 876 265 876 q 567 812 492 876 q 681 647 643 747 q 719 440 719 546 q 681 222 719 328 q 564 49 643 117 q 367 -19 485 -19 m 388 49 q 475 153 446 49 q 504 415 504 257 q 488 605 504 514 q 438 753 471 696 q 361 810 406 810 q 274 706 301 810 q 247 443 247 603 q 284 167 247 285 q 388 49 321 49 z "},"1":{"ha":750,"x_min":131,"x_max":664,"o":"m 165 -4 q 149 2 157 -4 q 140 17 140 8 q 167 47 140 40 q 259 80 232 64 q 286 135 286 96 l 286 632 q 256 697 286 679 q 167 725 226 714 q 131 758 131 732 q 143 785 131 776 q 175 796 156 794 q 325 821 257 801 q 467 878 393 840 q 483 883 478 883 q 504 879 494 883 q 514 868 514 875 q 511 838 514 863 q 506 767 506 801 l 506 136 q 537 84 506 101 q 638 47 568 67 q 658 37 651 43 q 664 18 664 31 q 642 -3 664 -3 l 518 0 l 401 3 l 289 0 q 165 -4 221 -4 z "},"2":{"ha":750,"x_min":92,"x_max":729,"o":"m 572 -4 q 326 0 364 0 q 190 -2 254 0 q 119 -4 126 -4 q 103 3 114 -4 q 92 19 92 11 q 101 43 92 35 q 111 53 110 51 l 306 274 q 413 436 379 357 q 447 611 447 515 q 420 707 447 669 q 342 744 393 744 q 181 661 267 744 q 131 631 150 631 q 116 638 119 631 q 113 661 113 646 q 156 747 113 694 q 267 837 199 799 q 413 875 336 875 q 533 843 482 875 q 610 758 583 811 q 636 642 636 704 q 601 514 636 586 q 522 394 565 442 q 358 235 464 332 q 285 163 285 167 q 306 154 285 157 q 432 149 351 149 q 547 154 497 149 q 622 181 592 160 q 671 243 653 201 q 687 263 675 254 q 711 272 699 272 q 727 263 722 272 q 728 242 732 253 q 685 109 706 179 q 664 25 664 39 q 652 3 664 13 q 635 -6 640 -6 l 572 -4 z "},"3":{"ha":750,"x_min":106,"x_max":663,"o":"m 243 -53 q 149 -33 193 -53 q 106 17 106 -12 q 118 78 106 50 q 151 106 131 106 q 186 86 169 106 q 238 30 213 51 q 292 8 264 8 q 400 62 357 8 q 443 207 443 115 q 408 346 443 294 q 313 397 374 397 q 268 390 286 397 q 238 376 250 383 q 222 365 226 368 q 211 363 217 363 q 192 369 200 363 q 185 386 183 376 q 247 464 197 438 q 376 558 342 514 q 410 671 410 601 q 381 743 410 714 q 306 772 351 772 q 228 748 260 772 q 168 688 196 724 q 142 663 147 663 q 121 674 131 663 q 111 699 111 686 q 142 763 111 719 q 236 840 172 806 q 393 874 300 874 q 541 826 481 874 q 601 703 601 779 q 580 626 601 668 q 514 551 558 585 q 404 506 469 517 q 400 500 400 503 q 406 497 400 497 q 591 440 519 497 q 663 281 663 382 q 604 106 663 182 q 449 -11 546 31 q 243 -53 353 -53 z "},"4":{"ha":750,"x_min":29,"x_max":764,"o":"m 300 -4 q 279 2 290 -4 q 268 17 268 8 q 301 47 268 39 q 374 76 356 58 q 393 135 393 93 l 393 203 q 386 213 393 210 q 369 217 379 217 q 221 211 332 217 q 51 206 101 206 q 29 217 29 206 q 38 233 29 222 l 76 288 l 414 840 q 447 876 428 861 q 481 892 465 892 l 489 892 q 501 887 497 892 q 506 875 506 882 q 501 861 506 868 l 186 347 q 182 336 182 342 q 199 326 182 326 l 383 326 q 390 329 388 326 q 393 335 393 332 l 393 492 q 397 528 393 518 q 418 544 401 538 q 498 568 453 561 q 571 575 543 575 q 606 552 600 575 q 613 465 613 529 l 613 326 q 615 320 613 324 q 619 317 617 317 q 668 315 643 315 q 747 318 681 315 q 759 315 754 318 q 764 308 764 313 q 752 251 764 290 q 732 213 740 213 l 667 214 q 632 211 657 214 q 620 207 626 210 q 613 203 614 204 l 613 136 q 631 80 613 97 q 703 47 649 63 q 729 36 721 42 q 738 18 738 31 q 728 3 738 8 q 707 -3 718 -3 q 600 0 675 -3 q 500 3 525 3 q 404 0 474 3 q 300 -4 350 -4 z "},"5":{"ha":750,"x_min":121,"x_max":636,"o":"m 192 -53 q 121 -31 121 -53 q 135 -10 121 -15 q 179 0 150 -4 q 319 44 257 11 q 418 122 382 76 q 454 214 454 167 q 397 340 454 290 q 207 429 339 389 q 141 459 158 443 q 124 504 124 475 q 171 714 124 540 l 182 754 q 251 826 196 814 q 425 856 301 838 q 569 875 549 875 q 585 866 578 875 q 592 847 592 857 q 569 775 592 825 q 563 763 567 769 q 557 746 560 756 q 520 697 546 717 q 461 675 494 676 l 343 671 q 285 669 324 671 q 235 667 246 668 q 215 651 222 665 q 208 626 208 638 q 222 610 208 613 q 347 579 292 599 q 467 531 403 560 q 595 424 554 490 q 636 281 636 358 q 589 131 636 203 q 464 15 542 58 q 340 -31 418 -10 q 192 -53 263 -53 z "},"6":{"ha":750,"x_min":97,"x_max":722,"o":"m 393 -19 q 171 58 244 -19 q 97 268 97 136 q 143 490 97 399 q 251 656 189 581 q 395 776 301 715 q 599 876 489 838 q 651 888 628 888 q 671 878 671 888 q 659 854 671 864 q 618 831 647 844 q 500 751 549 797 q 407 636 451 706 q 334 476 367 571 q 301 275 301 381 q 318 150 301 203 q 362 70 335 97 q 418 43 389 43 q 483 88 458 43 q 508 211 508 132 q 494 286 508 251 q 459 342 481 321 q 415 363 438 363 q 372 354 392 363 q 351 349 361 349 q 335 364 335 349 q 347 392 335 378 q 378 419 356 400 q 448 463 406 443 q 522 483 490 483 q 620 456 574 483 q 694 382 667 429 q 722 281 722 335 q 682 139 722 208 q 567 25 642 69 q 393 -19 492 -19 z "},"7":{"ha":750,"x_min":51,"x_max":746,"o":"m 246 -40 q 215 -27 228 -40 q 203 6 203 -14 q 228 56 203 17 l 242 79 l 564 656 q 568 665 568 663 q 549 675 568 675 l 247 675 q 192 665 211 675 q 151 625 172 654 q 134 599 147 619 q 106 563 121 579 q 76 547 90 547 q 59 554 67 547 q 51 571 51 561 q 59 611 51 583 q 68 643 67 639 q 82 707 76 685 q 104 846 104 807 q 115 867 104 861 q 138 871 126 872 q 157 869 147 871 q 176 867 167 868 q 275 856 243 857 l 532 853 q 731 857 664 853 q 741 847 736 857 q 746 825 746 836 q 722 781 746 818 l 694 735 l 278 6 q 260 -25 269 -10 q 246 -40 250 -40 z "},"8":{"ha":750,"x_min":82,"x_max":708,"o":"m 375 -18 q 227 10 294 -18 q 121 88 160 38 q 82 200 82 138 q 103 271 82 240 q 156 322 125 301 q 238 371 186 343 l 279 394 q 289 404 289 400 q 274 419 289 411 q 155 536 199 478 q 111 667 111 594 q 155 776 111 729 q 269 848 199 822 q 417 874 339 874 q 544 849 483 874 q 642 778 606 824 q 679 675 679 732 q 655 589 679 625 q 593 536 631 553 q 535 508 542 513 q 511 486 511 494 q 526 471 511 479 q 664 363 619 411 q 708 244 708 314 q 664 106 708 165 q 544 14 619 46 q 375 -18 468 -18 m 456 535 q 479 594 471 553 q 488 681 488 635 q 466 773 488 738 q 397 808 444 808 q 331 781 357 808 q 304 708 304 753 q 336 621 304 660 q 425 536 368 582 q 443 528 436 528 q 456 535 449 528 m 400 46 q 478 80 447 46 q 508 164 508 114 q 368 354 508 244 q 359 363 365 357 q 347 368 353 368 q 338 364 344 368 q 329 357 332 360 q 293 297 303 332 q 283 207 283 263 q 316 94 283 143 q 400 46 349 46 z "},"9":{"ha":750,"x_min":76,"x_max":735,"o":"m 117 -75 q 86 -67 96 -75 q 76 -51 76 -60 q 89 -26 76 -35 q 119 -14 101 -17 q 268 53 193 -4 q 401 186 343 110 q 539 540 539 365 q 519 661 539 601 q 469 760 500 721 q 403 799 438 799 q 306 643 306 799 q 319 563 306 601 q 356 499 333 524 q 401 474 378 474 q 450 483 426 474 q 474 489 463 489 q 490 474 490 489 q 476 444 490 461 q 463 428 471 436 q 450 415 454 421 q 391 378 431 397 q 318 360 351 360 q 213 388 265 360 q 128 465 161 415 q 94 575 94 514 q 142 706 94 636 q 268 825 190 776 q 432 874 346 874 q 583 829 514 874 q 694 712 653 785 q 735 556 735 639 q 672 327 735 438 q 528 140 610 217 q 404 47 482 99 q 247 -40 326 -4 q 117 -75 168 -75 z "},"\u0000":{"ha":0,"x_min":0,"x_max":0,"o":""},"\r":{"ha":340,"x_min":0,"x_max":0,"o":""}," ":{"ha":340,"x_min":0,"x_max":0,"o":""},"A":{"ha":1008,"x_min":-7,"x_max":1019,"o":"m 29 -7 q -7 17 -7 -7 q 1 35 -7 29 q 24 47 8 42 q 95 82 65 58 q 139 136 125 106 q 376 739 271 443 q 403 822 393 785 q 415 858 413 858 q 519 888 475 872 q 564 910 543 896 q 596 936 585 924 q 610 942 607 942 q 621 932 617 942 q 636 893 631 911 q 826 296 722 613 l 878 136 q 989 47 897 72 q 1012 36 1004 42 q 1019 18 1019 31 q 1012 3 1019 8 q 993 -3 1004 -3 q 882 0 965 -3 q 763 3 796 3 q 657 0 735 3 q 540 -4 593 -4 q 519 1 528 -4 q 511 17 511 7 q 542 47 511 40 q 613 72 590 57 q 636 113 636 86 q 633 135 636 126 l 590 296 q 583 314 588 308 q 568 319 578 319 l 326 319 q 311 314 315 319 q 303 296 307 308 l 283 236 q 271 196 279 221 q 257 151 263 171 q 251 115 251 133 q 272 74 251 89 q 343 47 292 60 q 374 17 374 40 q 344 -3 374 -3 q 263 0 313 -3 l 188 1 q 111 -3 149 1 q 74 -6 99 -4 q 29 -7 49 -7 m 539 400 q 560 410 560 400 q 557 425 560 411 l 468 732 q 460 746 464 746 q 451 732 457 746 l 344 425 q 342 414 342 419 q 349 403 342 407 q 365 400 356 400 l 539 400 z "},"Á":{"ha":1008,"x_min":-7,"x_max":1019,"o":"m 29 -7 q -7 17 -7 -7 q 1 35 -7 29 q 24 47 8 42 q 95 82 65 58 q 139 136 125 106 q 376 739 271 443 q 403 822 393 785 q 415 858 413 858 q 519 888 475 872 q 564 910 543 896 q 596 936 585 924 q 610 942 607 942 q 621 932 617 942 q 636 893 631 911 q 826 296 722 613 l 878 136 q 989 47 897 72 q 1012 36 1004 42 q 1019 18 1019 31 q 1012 3 1019 8 q 993 -3 1004 -3 q 882 0 965 -3 q 763 3 796 3 q 657 0 735 3 q 540 -4 593 -4 q 519 1 528 -4 q 511 17 511 7 q 542 47 511 40 q 613 72 590 57 q 636 113 636 86 q 633 135 636 126 l 590 296 q 583 314 588 308 q 568 319 578 319 l 326 319 q 311 314 315 319 q 303 296 307 308 l 283 236 q 271 196 279 221 q 257 151 263 171 q 251 115 251 133 q 272 74 251 89 q 343 47 292 60 q 374 17 374 40 q 344 -3 374 -3 q 263 0 313 -3 l 188 1 q 111 -3 149 1 q 74 -6 99 -4 q 29 -7 49 -7 m 539 400 q 560 410 560 400 q 557 425 560 411 l 468 732 q 460 746 464 746 q 451 732 457 746 l 344 425 q 342 414 342 419 q 349 403 342 407 q 365 400 356 400 l 539 400 m 457 946 q 439 960 439 950 q 456 990 439 969 q 611 1167 539 1094 q 660 1182 631 1186 q 725 1160 683 1179 q 763 1125 767 1140 q 735 1094 758 1110 q 601 1018 668 1054 l 494 957 q 472 947 483 950 q 457 946 461 944 z "},"Ă":{"ha":1008,"x_min":-7,"x_max":1019,"o":"m 29 -7 q -7 17 -7 -7 q 1 35 -7 29 q 24 47 8 42 q 95 82 65 58 q 139 136 125 106 q 376 739 271 443 q 403 822 393 785 q 415 858 413 858 q 519 888 475 872 q 564 910 543 896 q 596 936 585 924 q 610 942 607 942 q 621 932 617 942 q 636 893 631 911 q 826 296 722 613 l 878 136 q 989 47 897 72 q 1012 36 1004 42 q 1019 18 1019 31 q 1012 3 1019 8 q 993 -3 1004 -3 q 882 0 965 -3 q 763 3 796 3 q 657 0 735 3 q 540 -4 593 -4 q 519 1 528 -4 q 511 17 511 7 q 542 47 511 40 q 613 72 590 57 q 636 113 636 86 q 633 135 636 126 l 590 296 q 583 314 588 308 q 568 319 578 319 l 326 319 q 311 314 315 319 q 303 296 307 308 l 283 236 q 271 196 279 221 q 257 151 263 171 q 251 115 251 133 q 272 74 251 89 q 343 47 292 60 q 374 17 374 40 q 344 -3 374 -3 q 263 0 313 -3 l 188 1 q 111 -3 149 1 q 74 -6 99 -4 q 29 -7 49 -7 m 539 400 q 560 410 560 400 q 557 425 560 411 l 468 732 q 460 746 464 746 q 451 732 457 746 l 344 425 q 342 414 342 419 q 349 403 342 407 q 365 400 356 400 l 539 400 m 528 951 q 415 981 461 951 q 347 1051 369 1010 q 324 1129 324 1092 q 327 1158 324 1150 q 343 1167 331 1167 q 360 1162 353 1167 q 374 1149 367 1157 q 385 1136 381 1140 q 449 1086 418 1100 q 528 1072 479 1072 q 607 1086 576 1072 q 671 1136 638 1100 q 683 1149 675 1140 q 698 1163 692 1158 q 713 1167 704 1167 q 728 1158 725 1167 q 732 1129 732 1150 q 709 1051 732 1092 q 640 981 686 1010 q 528 951 594 951 z "},"Â":{"ha":1008,"x_min":-7,"x_max":1019,"o":"m 29 -7 q -7 17 -7 -7 q 1 35 -7 29 q 24 47 8 42 q 95 82 65 58 q 139 136 125 106 q 376 739 271 443 q 403 822 393 785 q 415 858 413 858 q 519 888 475 872 q 564 910 543 896 q 596 936 585 924 q 610 942 607 942 q 621 932 617 942 q 636 893 631 911 q 826 296 722 613 l 878 136 q 989 47 897 72 q 1012 36 1004 42 q 1019 18 1019 31 q 1012 3 1019 8 q 993 -3 1004 -3 q 882 0 965 -3 q 763 3 796 3 q 657 0 735 3 q 540 -4 593 -4 q 519 1 528 -4 q 511 17 511 7 q 542 47 511 40 q 613 72 590 57 q 636 113 636 86 q 633 135 636 126 l 590 296 q 583 314 588 308 q 568 319 578 319 l 326 319 q 311 314 315 319 q 303 296 307 308 l 283 236 q 271 196 279 221 q 257 151 263 171 q 251 115 251 133 q 272 74 251 89 q 343 47 292 60 q 374 17 374 40 q 344 -3 374 -3 q 263 0 313 -3 l 188 1 q 111 -3 149 1 q 74 -6 99 -4 q 29 -7 49 -7 m 539 400 q 560 410 560 400 q 557 425 560 411 l 468 732 q 460 746 464 746 q 451 732 457 746 l 344 425 q 342 414 342 419 q 349 403 342 407 q 365 400 356 400 l 539 400 m 324 961 q 303 966 311 961 q 296 979 296 971 q 308 1001 296 992 l 456 1135 q 497 1168 483 1160 q 528 1176 510 1176 q 560 1168 547 1176 q 601 1135 574 1160 l 747 1003 q 758 979 758 993 q 752 965 758 971 q 735 960 746 960 q 648 984 715 960 q 546 1028 581 1008 q 528 1033 539 1033 q 510 1028 517 1033 q 409 985 478 1010 q 324 961 340 961 z "},"Ä":{"ha":1008,"x_min":-7,"x_max":1019,"o":"m 29 -7 q -7 17 -7 -7 q 1 35 -7 29 q 24 47 8 42 q 95 82 65 58 q 139 136 125 106 q 376 739 271 443 q 403 822 393 785 q 415 858 413 858 q 519 888 475 872 q 564 910 543 896 q 596 936 585 924 q 610 942 607 942 q 621 932 617 942 q 636 893 631 911 q 826 296 722 613 l 878 136 q 989 47 897 72 q 1012 36 1004 42 q 1019 18 1019 31 q 1012 3 1019 8 q 993 -3 1004 -3 q 882 0 965 -3 q 763 3 796 3 q 657 0 735 3 q 540 -4 593 -4 q 519 1 528 -4 q 511 17 511 7 q 542 47 511 40 q 613 72 590 57 q 636 113 636 86 q 633 135 636 126 l 590 296 q 583 314 588 308 q 568 319 578 319 l 326 319 q 311 314 315 319 q 303 296 307 308 l 283 236 q 271 196 279 221 q 257 151 263 171 q 251 115 251 133 q 272 74 251 89 q 343 47 292 60 q 374 17 374 40 q 344 -3 374 -3 q 263 0 313 -3 l 188 1 q 111 -3 149 1 q 74 -6 99 -4 q 29 -7 49 -7 m 539 400 q 560 410 560 400 q 557 425 560 411 l 468 732 q 460 746 464 746 q 451 732 457 746 l 344 425 q 342 414 342 419 q 349 403 342 407 q 365 400 356 400 l 539 400 m 389 953 q 315 984 346 953 q 283 1058 283 1015 q 314 1135 283 1104 q 389 1165 344 1165 q 468 1135 436 1165 q 500 1058 500 1104 q 467 984 500 1015 q 389 953 435 953 m 664 953 q 590 984 621 953 q 558 1058 558 1015 q 589 1135 558 1104 q 664 1165 619 1165 q 743 1135 711 1165 q 775 1058 775 1104 q 742 984 775 1015 q 664 953 710 953 z "},"À":{"ha":1008,"x_min":-7,"x_max":1019,"o":"m 29 -7 q -7 17 -7 -7 q 1 35 -7 29 q 24 47 8 42 q 95 82 65 58 q 139 136 125 106 q 376 739 271 443 q 403 822 393 785 q 415 858 413 858 q 519 888 475 872 q 564 910 543 896 q 596 936 585 924 q 610 942 607 942 q 621 932 617 942 q 636 893 631 911 q 826 296 722 613 l 878 136 q 989 47 897 72 q 1012 36 1004 42 q 1019 18 1019 31 q 1012 3 1019 8 q 993 -3 1004 -3 q 882 0 965 -3 q 763 3 796 3 q 657 0 735 3 q 540 -4 593 -4 q 519 1 528 -4 q 511 17 511 7 q 542 47 511 40 q 613 72 590 57 q 636 113 636 86 q 633 135 636 126 l 590 296 q 583 314 588 308 q 568 319 578 319 l 326 319 q 311 314 315 319 q 303 296 307 308 l 283 236 q 271 196 279 221 q 257 151 263 171 q 251 115 251 133 q 272 74 251 89 q 343 47 292 60 q 374 17 374 40 q 344 -3 374 -3 q 263 0 313 -3 l 188 1 q 111 -3 149 1 q 74 -6 99 -4 q 29 -7 49 -7 m 539 400 q 560 410 560 400 q 557 425 560 411 l 468 732 q 460 746 464 746 q 451 732 457 746 l 344 425 q 342 414 342 419 q 349 403 342 407 q 365 400 356 400 l 539 400 m 563 946 q 528 957 546 946 l 421 1018 q 288 1094 354 1054 q 260 1125 264 1110 q 297 1160 256 1140 q 363 1182 339 1179 l 374 1183 q 411 1167 394 1183 q 567 990 483 1094 q 583 960 583 969 q 565 946 583 950 l 563 946 z "},"Ā":{"ha":1008,"x_min":-7,"x_max":1019,"o":"m 29 -7 q -7 17 -7 -7 q 1 35 -7 29 q 24 47 8 42 q 95 82 65 58 q 139 136 125 106 q 376 739 271 443 q 403 822 393 785 q 415 858 413 858 q 519 888 475 872 q 564 910 543 896 q 596 936 585 924 q 610 942 607 942 q 621 932 617 942 q 636 893 631 911 q 826 296 722 613 l 878 136 q 989 47 897 72 q 1012 36 1004 42 q 1019 18 1019 31 q 1012 3 1019 8 q 993 -3 1004 -3 q 882 0 965 -3 q 763 3 796 3 q 657 0 735 3 q 540 -4 593 -4 q 519 1 528 -4 q 511 17 511 7 q 542 47 511 40 q 613 72 590 57 q 636 113 636 86 q 633 135 636 126 l 590 296 q 583 314 588 308 q 568 319 578 319 l 326 319 q 311 314 315 319 q 303 296 307 308 l 283 236 q 271 196 279 221 q 257 151 263 171 q 251 115 251 133 q 272 74 251 89 q 343 47 292 60 q 374 17 374 40 q 344 -3 374 -3 q 263 0 313 -3 l 188 1 q 111 -3 149 1 q 74 -6 99 -4 q 29 -7 49 -7 m 539 400 q 560 410 560 400 q 557 425 560 411 l 468 732 q 460 746 464 746 q 451 732 457 746 l 344 425 q 342 414 342 419 q 349 403 342 407 q 365 400 356 400 l 539 400 m 328 994 q 307 1002 315 994 q 299 1021 299 1010 q 316 1088 299 1061 q 354 1114 333 1114 l 729 1114 q 749 1106 742 1114 q 757 1088 757 1099 q 739 1023 757 1051 q 697 994 721 994 l 328 994 z "},"Ą":{"ha":1008,"x_min":-7,"x_max":1019,"o":"m 29 -7 q -7 17 -7 -7 q 1 35 -7 29 q 24 47 8 42 q 95 82 65 58 q 139 136 125 106 q 376 739 271 443 q 403 822 393 785 q 415 858 413 858 q 519 888 475 872 q 564 910 543 896 q 596 936 585 924 q 610 942 607 942 q 621 932 617 942 q 636 893 631 911 q 826 296 722 613 l 878 136 q 989 47 897 72 q 1012 36 1004 42 q 1019 18 1019 31 q 1012 3 1019 8 q 993 -3 1004 -3 q 882 0 965 -3 q 763 3 796 3 q 657 0 735 3 q 540 -4 593 -4 q 519 1 528 -4 q 511 17 511 7 q 542 47 511 40 q 613 72 590 57 q 636 113 636 86 q 633 135 636 126 l 590 296 q 583 314 588 308 q 568 319 578 319 l 326 319 q 311 314 315 319 q 303 296 307 308 l 283 236 q 271 196 279 221 q 257 151 263 171 q 251 115 251 133 q 272 74 251 89 q 343 47 292 60 q 374 17 374 40 q 344 -3 374 -3 q 263 0 313 -3 l 188 1 q 111 -3 149 1 q 74 -6 99 -4 q 29 -7 49 -7 m 539 400 q 560 410 560 400 q 557 425 560 411 l 468 732 q 460 746 464 746 q 451 732 457 746 l 344 425 q 342 414 342 419 q 349 403 342 407 q 365 400 356 400 l 539 400 m 794 -399 q 672 -358 717 -399 q 628 -242 628 -317 q 693 -99 628 -162 q 864 25 758 -35 l 925 25 q 824 -88 858 -36 q 789 -201 789 -140 q 810 -255 789 -235 q 864 -275 831 -275 q 910 -265 890 -275 q 950 -236 931 -256 q 968 -229 957 -229 q 988 -256 988 -229 q 960 -324 988 -290 q 889 -378 933 -357 q 794 -399 844 -399 z "},"Å":{"ha":1008,"x_min":-7,"x_max":1019,"o":"m 29 -7 q -7 17 -7 -7 q 1 35 -7 29 q 24 47 8 42 q 95 82 65 58 q 139 136 125 106 q 376 739 271 443 q 403 822 393 785 q 415 858 413 858 q 519 888 475 872 q 564 910 543 896 q 596 936 585 924 q 610 942 607 942 q 621 932 617 942 q 636 893 631 911 q 826 296 722 613 l 878 136 q 989 47 897 72 q 1012 36 1004 42 q 1019 18 1019 31 q 1012 3 1019 8 q 993 -3 1004 -3 q 882 0 965 -3 q 763 3 796 3 q 657 0 735 3 q 540 -4 593 -4 q 519 1 528 -4 q 511 17 511 7 q 542 47 511 40 q 613 72 590 57 q 636 113 636 86 q 633 135 636 126 l 590 296 q 583 314 588 308 q 568 319 578 319 l 326 319 q 311 314 315 319 q 303 296 307 308 l 283 236 q 271 196 279 221 q 257 151 263 171 q 251 115 251 133 q 272 74 251 89 q 343 47 292 60 q 374 17 374 40 q 344 -3 374 -3 q 263 0 313 -3 l 188 1 q 111 -3 149 1 q 74 -6 99 -4 q 29 -7 49 -7 m 539 400 q 560 410 560 400 q 557 425 560 411 l 468 732 q 460 746 464 746 q 451 732 457 746 l 344 425 q 342 414 342 419 q 349 403 342 407 q 365 400 356 400 l 539 400 m 536 1193 q 643 1163 597 1193 q 689 1081 689 1132 q 638 989 689 1025 q 521 953 588 953 q 412 984 457 953 q 367 1068 367 1015 q 417 1158 367 1122 q 536 1193 468 1193 m 460 1071 q 481 1020 460 1042 q 535 999 503 999 q 579 1020 563 999 q 596 1071 596 1042 q 575 1122 596 1101 q 522 1143 554 1143 q 477 1122 494 1143 q 460 1071 460 1101 z "},"Ǻ":{"ha":1008,"x_min":-7,"x_max":1019,"o":"m 29 -7 q -7 17 -7 -7 q 1 35 -7 29 q 24 47 8 42 q 95 82 65 58 q 139 136 125 106 q 376 739 271 443 q 403 822 393 785 q 415 858 413 858 q 519 888 475 872 q 564 910 543 896 q 596 936 585 924 q 610 942 607 942 q 621 932 617 942 q 636 893 631 911 q 826 296 722 613 l 878 136 q 989 47 897 72 q 1012 36 1004 42 q 1019 18 1019 31 q 1012 3 1019 8 q 993 -3 1004 -3 q 882 0 965 -3 q 763 3 796 3 q 657 0 735 3 q 540 -4 593 -4 q 519 1 528 -4 q 511 17 511 7 q 542 47 511 40 q 613 72 590 57 q 636 113 636 86 q 633 135 636 126 l 590 296 q 583 314 588 308 q 568 319 578 319 l 326 319 q 311 314 315 319 q 303 296 307 308 l 283 236 q 271 196 279 221 q 257 151 263 171 q 251 115 251 133 q 272 74 251 89 q 343 47 292 60 q 374 17 374 40 q 344 -3 374 -3 q 263 0 313 -3 l 188 1 q 111 -3 149 1 q 74 -6 99 -4 q 29 -7 49 -7 m 539 400 q 560 410 560 400 q 557 425 560 411 l 468 732 q 460 746 464 746 q 451 732 457 746 l 344 425 q 342 414 342 419 q 349 403 342 407 q 365 400 356 400 l 539 400 m 536 1193 q 643 1163 597 1193 q 689 1081 689 1132 q 638 989 689 1025 q 521 953 588 953 q 412 984 457 953 q 367 1068 367 1015 q 417 1158 367 1122 q 536 1193 468 1193 m 460 1071 q 481 1020 460 1042 q 535 999 503 999 q 579 1020 563 999 q 596 1071 596 1042 q 575 1122 596 1101 q 522 1143 554 1143 q 477 1122 494 1143 q 460 1071 460 1101 m 411 1196 q 392 1201 400 1196 q 383 1215 383 1207 q 388 1231 383 1224 q 408 1250 393 1238 q 618 1396 489 1314 q 644 1403 629 1403 q 684 1385 667 1403 q 711 1344 701 1367 q 721 1311 721 1322 q 706 1285 721 1290 q 664 1271 683 1278 q 629 1258 644 1264 q 465 1207 515 1221 q 444 1201 461 1206 q 411 1196 426 1196 z "},"Ã":{"ha":1008,"x_min":-7,"x_max":1019,"o":"m 29 -7 q -7 17 -7 -7 q 1 35 -7 29 q 24 47 8 42 q 95 82 65 58 q 139 136 125 106 q 376 739 271 443 q 403 822 393 785 q 415 858 413 858 q 519 888 475 872 q 564 910 543 896 q 596 936 585 924 q 610 942 607 942 q 621 932 617 942 q 636 893 631 911 q 826 296 722 613 l 878 136 q 989 47 897 72 q 1012 36 1004 42 q 1019 18 1019 31 q 1012 3 1019 8 q 993 -3 1004 -3 q 882 0 965 -3 q 763 3 796 3 q 657 0 735 3 q 540 -4 593 -4 q 519 1 528 -4 q 511 17 511 7 q 542 47 511 40 q 613 72 590 57 q 636 113 636 86 q 633 135 636 126 l 590 296 q 583 314 588 308 q 568 319 578 319 l 326 319 q 311 314 315 319 q 303 296 307 308 l 283 236 q 271 196 279 221 q 257 151 263 171 q 251 115 251 133 q 272 74 251 89 q 343 47 292 60 q 374 17 374 40 q 344 -3 374 -3 q 263 0 313 -3 l 188 1 q 111 -3 149 1 q 74 -6 99 -4 q 29 -7 49 -7 m 539 400 q 560 410 560 400 q 557 425 560 411 l 468 732 q 460 746 464 746 q 451 732 457 746 l 344 425 q 342 414 342 419 q 349 403 342 407 q 365 400 356 400 l 539 400 m 328 960 q 311 969 321 960 q 301 982 301 978 q 324 1028 301 992 q 372 1096 346 1065 q 408 1126 397 1126 q 475 1124 428 1126 q 528 1121 508 1121 l 557 1119 q 650 1117 613 1117 q 699 1144 674 1117 q 715 1164 706 1153 q 726 1175 724 1175 q 746 1165 733 1175 q 758 1149 758 1154 q 751 1132 758 1143 q 733 1106 744 1121 q 701 1056 711 1072 q 689 1036 694 1044 q 679 1021 683 1028 q 636 1001 667 1001 q 519 1010 622 1001 q 393 1018 411 1018 q 353 989 376 1018 q 328 960 332 960 z "},"Æ":{"ha":1274,"x_min":-7,"x_max":1254,"o":"m 29 -7 q -7 17 -7 -7 q 1 35 -7 29 q 24 47 8 42 q 95 84 63 60 q 144 136 128 108 l 558 832 q 561 840 561 838 q 551 850 561 849 l 522 858 q 493 888 493 865 q 501 903 493 897 q 521 910 508 910 q 625 906 571 910 q 721 903 694 903 q 1101 907 847 903 l 1151 908 q 1174 901 1164 908 q 1188 879 1185 894 q 1211 692 1211 749 q 1206 672 1211 679 q 1193 664 1201 664 q 1177 670 1185 664 q 1164 688 1169 676 q 1146 732 1158 700 q 1122 783 1133 764 q 1099 815 1111 803 q 1008 846 1069 846 l 921 846 q 864 828 886 846 q 842 782 842 811 l 842 525 q 878 492 842 492 l 996 492 q 1044 513 1028 492 q 1076 579 1060 535 q 1106 604 1088 604 q 1118 595 1113 604 q 1122 572 1124 586 q 1115 457 1115 506 q 1121 342 1115 397 l 1121 331 q 1107 303 1121 303 q 1088 313 1097 303 q 1074 336 1078 322 q 1044 406 1061 383 q 1003 428 1028 428 l 872 428 q 842 396 842 428 l 842 133 q 858 79 842 96 q 910 63 874 63 l 1033 63 q 1128 92 1088 63 q 1172 142 1153 111 q 1211 219 1192 174 q 1222 238 1218 233 q 1233 243 1226 243 q 1248 238 1242 243 q 1254 222 1254 232 q 1210 11 1254 169 q 1176 -6 1204 -6 l 1122 -4 q 721 0 851 0 q 619 -4 674 0 q 521 -7 547 -7 q 501 0 508 -7 q 494 15 494 7 q 502 32 494 24 q 522 44 510 40 q 588 75 571 58 q 606 132 606 92 l 606 326 q 582 351 606 351 l 386 351 q 367 347 374 351 q 351 328 360 343 q 279 151 319 268 q 271 110 271 126 q 291 72 271 86 q 358 47 311 57 q 389 17 389 40 q 360 -3 389 -3 q 269 0 328 -3 l 188 1 q 111 -3 149 1 q 74 -6 99 -4 q 29 -7 49 -7 m 585 432 q 599 438 592 432 q 606 450 606 443 l 606 751 q 600 771 606 771 q 590 760 596 771 l 433 457 q 432 439 428 447 q 454 432 436 432 l 585 432 z "},"Ǽ":{"ha":1274,"x_min":-7,"x_max":1254,"o":"m 29 -7 q -7 17 -7 -7 q 1 35 -7 29 q 24 47 8 42 q 95 84 63 60 q 144 136 128 108 l 558 832 q 561 840 561 838 q 551 850 561 849 l 522 858 q 493 888 493 865 q 501 903 493 897 q 521 910 508 910 q 625 906 571 910 q 721 903 694 903 q 1101 907 847 903 l 1151 908 q 1174 901 1164 908 q 1188 879 1185 894 q 1211 692 1211 749 q 1206 672 1211 679 q 1193 664 1201 664 q 1177 670 1185 664 q 1164 688 1169 676 q 1146 732 1158 700 q 1122 783 1133 764 q 1099 815 1111 803 q 1008 846 1069 846 l 921 846 q 864 828 886 846 q 842 782 842 811 l 842 525 q 878 492 842 492 l 996 492 q 1044 513 1028 492 q 1076 579 1060 535 q 1106 604 1088 604 q 1118 595 1113 604 q 1122 572 1124 586 q 1115 457 1115 506 q 1121 342 1115 397 l 1121 331 q 1107 303 1121 303 q 1088 313 1097 303 q 1074 336 1078 322 q 1044 406 1061 383 q 1003 428 1028 428 l 872 428 q 842 396 842 428 l 842 133 q 858 79 842 96 q 910 63 874 63 l 1033 63 q 1128 92 1088 63 q 1172 142 1153 111 q 1211 219 1192 174 q 1222 238 1218 233 q 1233 243 1226 243 q 1248 238 1242 243 q 1254 222 1254 232 q 1210 11 1254 169 q 1176 -6 1204 -6 l 1122 -4 q 721 0 851 0 q 619 -4 674 0 q 521 -7 547 -7 q 501 0 508 -7 q 494 15 494 7 q 502 32 494 24 q 522 44 510 40 q 588 75 571 58 q 606 132 606 92 l 606 326 q 582 351 606 351 l 386 351 q 367 347 374 351 q 351 328 360 343 q 279 151 319 268 q 271 110 271 126 q 291 72 271 86 q 358 47 311 57 q 389 17 389 40 q 360 -3 389 -3 q 269 0 328 -3 l 188 1 q 111 -3 149 1 q 74 -6 99 -4 q 29 -7 49 -7 m 585 432 q 599 438 592 432 q 606 450 606 443 l 606 751 q 600 771 606 771 q 590 760 596 771 l 433 457 q 432 439 428 447 q 454 432 436 432 l 585 432 m 729 946 q 711 960 711 950 q 728 990 711 969 q 883 1167 811 1094 q 932 1182 903 1186 q 997 1160 956 1179 q 1035 1125 1039 1140 q 1007 1094 1031 1110 q 874 1018 940 1054 l 767 957 q 744 947 756 950 q 729 946 733 944 z "},"Ǣ":{"ha":1274,"x_min":-7,"x_max":1254,"o":"m 29 -7 q -7 17 -7 -7 q 1 35 -7 29 q 24 47 8 42 q 95 84 63 60 q 144 136 128 108 l 558 832 q 561 840 561 838 q 551 850 561 849 l 522 858 q 493 888 493 865 q 501 903 493 897 q 521 910 508 910 q 625 906 571 910 q 721 903 694 903 q 1101 907 847 903 l 1151 908 q 1174 901 1164 908 q 1188 879 1185 894 q 1211 692 1211 749 q 1206 672 1211 679 q 1193 664 1201 664 q 1177 670 1185 664 q 1164 688 1169 676 q 1146 732 1158 700 q 1122 783 1133 764 q 1099 815 1111 803 q 1008 846 1069 846 l 921 846 q 864 828 886 846 q 842 782 842 811 l 842 525 q 878 492 842 492 l 996 492 q 1044 513 1028 492 q 1076 579 1060 535 q 1106 604 1088 604 q 1118 595 1113 604 q 1122 572 1124 586 q 1115 457 1115 506 q 1121 342 1115 397 l 1121 331 q 1107 303 1121 303 q 1088 313 1097 303 q 1074 336 1078 322 q 1044 406 1061 383 q 1003 428 1028 428 l 872 428 q 842 396 842 428 l 842 133 q 858 79 842 96 q 910 63 874 63 l 1033 63 q 1128 92 1088 63 q 1172 142 1153 111 q 1211 219 1192 174 q 1222 238 1218 233 q 1233 243 1226 243 q 1248 238 1242 243 q 1254 222 1254 232 q 1210 11 1254 169 q 1176 -6 1204 -6 l 1122 -4 q 721 0 851 0 q 619 -4 674 0 q 521 -7 547 -7 q 501 0 508 -7 q 494 15 494 7 q 502 32 494 24 q 522 44 510 40 q 588 75 571 58 q 606 132 606 92 l 606 326 q 582 351 606 351 l 386 351 q 367 347 374 351 q 351 328 360 343 q 279 151 319 268 q 271 110 271 126 q 291 72 271 86 q 358 47 311 57 q 389 17 389 40 q 360 -3 389 -3 q 269 0 328 -3 l 188 1 q 111 -3 149 1 q 74 -6 99 -4 q 29 -7 49 -7 m 585 432 q 599 438 592 432 q 606 450 606 443 l 606 751 q 600 771 606 771 q 590 760 596 771 l 433 457 q 432 439 428 447 q 454 432 436 432 l 585 432 m 600 994 q 579 1002 588 994 q 571 1021 571 1010 q 588 1088 571 1061 q 626 1114 606 1114 l 1001 1114 q 1022 1106 1014 1114 q 1029 1088 1029 1099 q 1011 1023 1029 1051 q 969 994 993 994 l 600 994 z "},"B":{"ha":882,"x_min":21,"x_max":843,"o":"m 49 -7 q 29 0 36 -7 q 22 15 22 7 q 30 32 22 24 q 50 44 38 40 q 116 75 99 58 q 133 132 133 92 l 133 765 q 117 828 133 810 q 50 858 100 847 q 21 888 21 865 q 28 903 21 897 q 49 910 36 910 q 160 904 99 910 q 247 899 215 899 q 328 904 275 899 q 454 913 394 913 q 709 865 625 913 q 793 706 793 817 q 773 626 793 664 q 718 558 753 588 q 615 507 672 519 q 610 500 610 506 q 615 493 610 494 q 778 426 713 475 q 843 269 843 378 q 820 151 843 197 q 767 82 797 106 q 696 38 738 58 q 453 -6 606 -6 q 351 -3 418 -6 q 249 0 285 0 q 146 -4 203 0 q 49 -7 76 -7 m 424 511 q 482 519 457 511 q 531 549 507 528 q 558 594 544 563 q 571 674 571 625 q 538 806 571 765 q 440 847 506 847 q 369 789 369 847 l 369 560 q 387 524 369 538 q 424 511 404 511 m 449 75 q 520 99 488 75 q 572 165 553 124 q 592 258 592 207 q 529 414 592 363 q 490 435 517 425 q 431 444 464 444 q 389 433 408 444 q 369 400 369 422 l 369 161 q 390 97 369 119 q 449 75 411 75 z "},"C":{"ha":985,"x_min":35,"x_max":915,"o":"m 561 -19 q 295 38 415 -19 q 105 200 175 96 q 35 438 35 304 q 103 676 35 565 q 299 855 171 788 q 601 922 428 922 q 734 908 663 922 q 857 872 806 893 q 888 835 885 860 q 899 667 899 758 q 892 648 899 654 q 875 642 885 642 q 856 648 865 642 q 843 667 847 654 q 818 732 829 707 q 786 778 807 757 q 589 846 721 846 q 431 795 499 846 q 326 660 363 744 q 289 478 289 575 q 365 172 289 285 q 589 60 442 60 q 756 102 692 60 q 863 239 819 144 q 893 263 872 263 q 909 256 903 263 q 915 239 915 250 q 886 75 915 175 q 850 33 879 47 q 561 -19 733 -19 z "},"Ć":{"ha":985,"x_min":35,"x_max":915,"o":"m 561 -19 q 295 38 415 -19 q 105 200 175 96 q 35 438 35 304 q 103 676 35 565 q 299 855 171 788 q 601 922 428 922 q 734 908 663 922 q 857 872 806 893 q 888 835 885 860 q 899 667 899 758 q 892 648 899 654 q 875 642 885 642 q 856 648 865 642 q 843 667 847 654 q 818 732 829 707 q 786 778 807 757 q 589 846 721 846 q 431 795 499 846 q 326 660 363 744 q 289 478 289 575 q 365 172 289 285 q 589 60 442 60 q 756 102 692 60 q 863 239 819 144 q 893 263 872 263 q 909 256 903 263 q 915 239 915 250 q 886 75 915 175 q 850 33 879 47 q 561 -19 733 -19 m 492 946 q 474 960 474 950 q 490 990 474 969 q 646 1167 574 1094 q 694 1182 665 1186 q 760 1160 718 1179 q 797 1125 801 1140 q 769 1094 793 1110 q 636 1018 703 1054 l 529 957 q 507 947 518 950 q 492 946 496 944 z "},"Č":{"ha":985,"x_min":35,"x_max":915,"o":"m 561 -19 q 295 38 415 -19 q 105 200 175 96 q 35 438 35 304 q 103 676 35 565 q 299 855 171 788 q 601 922 428 922 q 734 908 663 922 q 857 872 806 893 q 888 835 885 860 q 899 667 899 758 q 892 648 899 654 q 875 642 885 642 q 856 648 865 642 q 843 667 847 654 q 818 732 829 707 q 786 778 807 757 q 589 846 721 846 q 431 795 499 846 q 326 660 363 744 q 289 478 289 575 q 365 172 289 285 q 589 60 442 60 q 756 102 692 60 q 863 239 819 144 q 893 263 872 263 q 909 256 903 263 q 915 239 915 250 q 886 75 915 175 q 850 33 879 47 q 561 -19 733 -19 m 358 1185 q 444 1160 375 1185 q 544 1118 513 1136 q 563 1113 556 1113 q 581 1118 569 1113 q 683 1162 615 1138 q 769 1186 750 1186 q 787 1181 781 1186 q 793 1167 793 1175 q 782 1143 793 1153 l 636 1011 q 595 978 608 986 q 563 969 582 969 q 531 978 544 969 q 490 1011 518 986 l 343 1144 q 331 1167 331 1156 q 338 1180 331 1175 q 358 1185 346 1185 z "},"Ç":{"ha":985,"x_min":35,"x_max":915,"o":"m 561 -19 q 295 38 415 -19 q 105 200 175 96 q 35 438 35 304 q 103 676 35 565 q 299 855 171 788 q 601 922 428 922 q 734 908 663 922 q 857 872 806 893 q 888 835 885 860 q 899 667 899 758 q 892 648 899 654 q 875 642 885 642 q 856 648 865 642 q 843 667 847 654 q 818 732 829 707 q 786 778 807 757 q 589 846 721 846 q 431 795 499 846 q 326 660 363 744 q 289 478 289 575 q 365 172 289 285 q 589 60 442 60 q 756 102 692 60 q 863 239 819 144 q 893 263 872 263 q 909 256 903 263 q 915 239 915 250 q 886 75 915 175 q 850 33 879 47 q 561 -19 733 -19 m 449 -382 q 392 -370 410 -382 q 375 -318 375 -358 q 384 -287 375 -299 q 404 -276 393 -276 q 428 -285 407 -276 q 488 -294 449 -294 q 531 -283 513 -294 q 550 -242 550 -271 q 482 -190 550 -190 q 464 -194 474 -190 q 449 -199 454 -199 q 418 -187 429 -199 q 407 -167 407 -176 q 417 -139 407 -150 l 549 11 l 617 11 l 568 -51 q 561 -67 561 -61 q 574 -81 561 -76 q 663 -194 663 -115 q 629 -285 663 -242 q 545 -355 596 -328 q 449 -382 494 -382 z "},"Ĉ":{"ha":985,"x_min":35,"x_max":915,"o":"m 561 -19 q 295 38 415 -19 q 105 200 175 96 q 35 438 35 304 q 103 676 35 565 q 299 855 171 788 q 601 922 428 922 q 734 908 663 922 q 857 872 806 893 q 888 835 885 860 q 899 667 899 758 q 892 648 899 654 q 875 642 885 642 q 856 648 865 642 q 843 667 847 654 q 818 732 829 707 q 786 778 807 757 q 589 846 721 846 q 431 795 499 846 q 326 660 363 744 q 289 478 289 575 q 365 172 289 285 q 589 60 442 60 q 756 102 692 60 q 863 239 819 144 q 893 263 872 263 q 909 256 903 263 q 915 239 915 250 q 886 75 915 175 q 850 33 879 47 q 561 -19 733 -19 m 358 961 q 338 966 346 961 q 331 979 331 971 q 343 1001 331 992 l 490 1135 q 531 1168 518 1160 q 563 1176 544 1176 q 595 1168 582 1176 q 636 1135 608 1160 l 782 1003 q 793 979 793 993 q 787 965 793 971 q 769 960 781 960 q 683 984 750 960 q 581 1028 615 1008 q 563 1033 574 1033 q 544 1028 551 1033 q 444 985 513 1010 q 358 961 375 961 z "},"Ċ":{"ha":985,"x_min":35,"x_max":915,"o":"m 561 -19 q 295 38 415 -19 q 105 200 175 96 q 35 438 35 304 q 103 676 35 565 q 299 855 171 788 q 601 922 428 922 q 734 908 663 922 q 857 872 806 893 q 888 835 885 860 q 899 667 899 758 q 892 648 899 654 q 875 642 885 642 q 856 648 865 642 q 843 667 847 654 q 818 732 829 707 q 786 778 807 757 q 589 846 721 846 q 431 795 499 846 q 326 660 363 744 q 289 478 289 575 q 365 172 289 285 q 589 60 442 60 q 756 102 692 60 q 863 239 819 144 q 893 263 872 263 q 909 256 903 263 q 915 239 915 250 q 886 75 915 175 q 850 33 879 47 q 561 -19 733 -19 m 563 961 q 475 994 511 961 q 439 1072 439 1026 q 475 1153 439 1119 q 563 1186 511 1186 q 654 1153 617 1186 q 692 1072 692 1119 q 654 994 692 1026 q 563 961 617 961 z "},"D":{"ha":1068,"x_min":21,"x_max":1033,"o":"m 535 -10 q 326 -3 472 -10 l 254 0 l 154 -1 q 46 -4 79 -4 q 29 2 38 -4 q 21 17 21 8 q 47 47 21 40 q 120 76 101 58 q 139 135 139 93 l 139 765 q 121 828 139 810 q 47 858 103 846 q 21 889 21 865 q 29 903 21 897 q 46 910 38 910 q 154 906 97 910 q 254 903 229 903 q 379 908 276 903 q 547 915 532 915 q 788 858 676 915 q 967 699 900 801 q 1033 465 1033 596 q 975 231 1033 340 q 803 56 917 122 q 535 -10 690 -10 m 513 67 q 713 162 646 67 q 779 425 779 257 q 708 724 779 614 q 499 835 638 835 q 401 827 428 835 q 375 789 375 819 l 375 186 q 408 94 375 122 q 513 67 440 67 z "},"Ð":{"ha":1068,"x_min":21,"x_max":1033,"o":"m 547 915 q 788 858 676 915 q 967 699 900 801 q 1033 465 1033 596 q 975 231 1033 340 q 803 56 917 122 q 535 -10 690 -10 q 326 -3 472 -10 l 254 0 l 154 -1 q 46 -4 79 -4 q 29 2 38 -4 q 21 17 21 8 q 47 47 21 40 q 120 76 101 58 q 139 135 139 93 l 139 422 l 79 422 q 54 435 63 422 q 46 465 46 449 q 57 497 46 485 q 86 508 68 508 l 139 508 l 139 765 q 121 828 139 810 q 47 858 103 846 q 21 889 21 865 q 29 903 21 897 q 46 910 38 910 q 154 906 97 910 q 254 903 229 903 q 379 908 276 903 q 547 915 532 915 m 513 67 q 713 162 646 67 q 779 425 779 257 q 708 724 779 614 q 499 835 638 835 q 401 827 428 835 q 375 789 375 819 l 375 508 l 503 508 q 526 501 517 508 q 535 482 535 493 l 533 475 q 513 438 529 454 q 475 422 497 422 l 375 422 l 375 186 q 408 94 375 122 q 513 67 440 67 z "},"Ď":{"ha":1068,"x_min":21,"x_max":1033,"o":"m 535 -10 q 326 -3 472 -10 l 254 0 l 154 -1 q 46 -4 79 -4 q 29 2 38 -4 q 21 17 21 8 q 47 47 21 40 q 120 76 101 58 q 139 135 139 93 l 139 765 q 121 828 139 810 q 47 858 103 846 q 21 889 21 865 q 29 903 21 897 q 46 910 38 910 q 154 906 97 910 q 254 903 229 903 q 379 908 276 903 q 547 915 532 915 q 788 858 676 915 q 967 699 900 801 q 1033 465 1033 596 q 975 231 1033 340 q 803 56 917 122 q 535 -10 690 -10 m 513 67 q 713 162 646 67 q 779 425 779 257 q 708 724 779 614 q 499 835 638 835 q 401 827 428 835 q 375 789 375 819 l 375 186 q 408 94 375 122 q 513 67 440 67 m 325 1185 q 410 1160 342 1185 q 511 1118 479 1136 q 529 1113 522 1113 q 547 1118 536 1113 q 649 1162 582 1138 q 736 1186 717 1186 q 753 1181 747 1186 q 760 1167 760 1175 q 749 1143 760 1153 l 603 1011 q 562 978 575 986 q 529 969 549 969 q 498 978 511 969 q 457 1011 485 986 l 310 1144 q 297 1167 297 1156 q 305 1180 297 1175 q 325 1185 313 1185 z "},"Đ":{"ha":1068,"x_min":21,"x_max":1033,"o":"m 547 915 q 788 858 676 915 q 967 699 900 801 q 1033 465 1033 596 q 975 231 1033 340 q 803 56 917 122 q 535 -10 690 -10 q 326 -3 472 -10 l 254 0 l 154 -1 q 46 -4 79 -4 q 29 2 38 -4 q 21 17 21 8 q 47 47 21 40 q 120 76 101 58 q 139 135 139 93 l 139 422 l 79 422 q 54 435 63 422 q 46 465 46 449 q 57 497 46 485 q 86 508 68 508 l 139 508 l 139 765 q 121 828 139 810 q 47 858 103 846 q 21 889 21 865 q 29 903 21 897 q 46 910 38 910 q 154 906 97 910 q 254 903 229 903 q 379 908 276 903 q 547 915 532 915 m 513 67 q 713 162 646 67 q 779 425 779 257 q 708 724 779 614 q 499 835 638 835 q 401 827 428 835 q 375 789 375 819 l 375 508 l 503 508 q 526 501 517 508 q 535 482 535 493 l 533 475 q 513 438 529 454 q 475 422 497 422 l 375 422 l 375 186 q 408 94 375 122 q 513 67 440 67 z "},"E":{"ha":801,"x_min":21,"x_max":782,"o":"m 49 -7 q 29 0 36 -7 q 22 15 22 7 q 30 32 22 24 q 50 44 38 40 q 116 75 99 58 q 133 132 133 92 l 133 765 q 117 828 133 810 q 50 858 100 847 q 21 888 21 865 q 28 903 21 897 q 49 910 36 910 q 153 906 99 910 q 249 903 222 903 q 572 907 435 903 q 645 913 615 907 q 679 918 675 918 q 703 911 692 918 q 715 889 714 904 q 728 804 719 843 q 739 701 739 726 q 734 681 739 689 q 721 674 729 674 q 705 680 713 674 q 692 697 697 686 q 661 768 671 749 q 638 801 651 788 q 594 833 618 821 q 536 846 571 846 l 449 846 q 392 828 414 846 q 369 782 369 811 l 369 526 q 406 493 369 493 l 524 493 q 572 514 556 493 q 604 579 588 535 q 633 604 615 604 q 646 595 640 604 q 650 572 651 586 q 643 457 643 506 q 649 342 643 397 l 649 331 q 635 303 649 303 q 615 313 625 303 q 601 336 606 322 q 572 406 589 383 q 531 428 556 428 l 400 428 q 369 396 369 428 l 369 133 q 385 79 369 96 q 438 63 401 63 l 561 63 q 663 94 625 63 q 742 206 703 128 q 768 222 750 222 q 782 194 782 222 q 775 140 782 169 q 753 64 768 111 l 738 11 q 704 -6 732 -6 l 650 -4 q 249 0 379 0 q 147 -4 201 0 q 49 -7 75 -7 z "},"É":{"ha":801,"x_min":21,"x_max":782,"o":"m 49 -7 q 29 0 36 -7 q 22 15 22 7 q 30 32 22 24 q 50 44 38 40 q 116 75 99 58 q 133 132 133 92 l 133 765 q 117 828 133 810 q 50 858 100 847 q 21 888 21 865 q 28 903 21 897 q 49 910 36 910 q 153 906 99 910 q 249 903 222 903 q 572 907 435 903 q 645 913 615 907 q 679 918 675 918 q 703 911 692 918 q 715 889 714 904 q 728 804 719 843 q 739 701 739 726 q 734 681 739 689 q 721 674 729 674 q 705 680 713 674 q 692 697 697 686 q 661 768 671 749 q 638 801 651 788 q 594 833 618 821 q 536 846 571 846 l 449 846 q 392 828 414 846 q 369 782 369 811 l 369 526 q 406 493 369 493 l 524 493 q 572 514 556 493 q 604 579 588 535 q 633 604 615 604 q 646 595 640 604 q 650 572 651 586 q 643 457 643 506 q 649 342 643 397 l 649 331 q 635 303 649 303 q 615 313 625 303 q 601 336 606 322 q 572 406 589 383 q 531 428 556 428 l 400 428 q 369 396 369 428 l 369 133 q 385 79 369 96 q 438 63 401 63 l 561 63 q 663 94 625 63 q 742 206 703 128 q 768 222 750 222 q 782 194 782 222 q 775 140 782 169 q 753 64 768 111 l 738 11 q 704 -6 732 -6 l 650 -4 q 249 0 379 0 q 147 -4 201 0 q 49 -7 75 -7 m 344 946 q 326 960 326 950 q 343 990 326 969 q 499 1167 426 1094 q 547 1182 518 1186 q 613 1160 571 1179 q 650 1125 654 1140 q 622 1094 646 1110 q 489 1018 556 1054 l 382 957 q 360 947 371 950 q 344 946 349 944 z "},"Ĕ":{"ha":801,"x_min":21,"x_max":782,"o":"m 49 -7 q 29 0 36 -7 q 22 15 22 7 q 30 32 22 24 q 50 44 38 40 q 116 75 99 58 q 133 132 133 92 l 133 765 q 117 828 133 810 q 50 858 100 847 q 21 888 21 865 q 28 903 21 897 q 49 910 36 910 q 153 906 99 910 q 249 903 222 903 q 572 907 435 903 q 645 913 615 907 q 679 918 675 918 q 703 911 692 918 q 715 889 714 904 q 728 804 719 843 q 739 701 739 726 q 734 681 739 689 q 721 674 729 674 q 705 680 713 674 q 692 697 697 686 q 661 768 671 749 q 638 801 651 788 q 594 833 618 821 q 536 846 571 846 l 449 846 q 392 828 414 846 q 369 782 369 811 l 369 526 q 406 493 369 493 l 524 493 q 572 514 556 493 q 604 579 588 535 q 633 604 615 604 q 646 595 640 604 q 650 572 651 586 q 643 457 643 506 q 649 342 643 397 l 649 331 q 635 303 649 303 q 615 313 625 303 q 601 336 606 322 q 572 406 589 383 q 531 428 556 428 l 400 428 q 369 396 369 428 l 369 133 q 385 79 369 96 q 438 63 401 63 l 561 63 q 663 94 625 63 q 742 206 703 128 q 768 222 750 222 q 782 194 782 222 q 775 140 782 169 q 753 64 768 111 l 738 11 q 704 -6 732 -6 l 650 -4 q 249 0 379 0 q 147 -4 201 0 q 49 -7 75 -7 m 415 951 q 303 981 349 951 q 234 1051 257 1010 q 211 1129 211 1092 q 215 1158 211 1150 q 231 1167 218 1167 q 247 1162 240 1167 q 261 1149 254 1157 q 272 1136 268 1140 q 336 1086 306 1100 q 415 1072 367 1072 q 494 1086 464 1072 q 558 1136 525 1100 q 571 1149 563 1140 q 585 1163 579 1158 q 600 1167 592 1167 q 616 1158 613 1167 q 619 1129 619 1150 q 597 1051 619 1092 q 528 981 574 1010 q 415 951 482 951 z "},"Ě":{"ha":801,"x_min":21,"x_max":782,"o":"m 49 -7 q 29 0 36 -7 q 22 15 22 7 q 30 32 22 24 q 50 44 38 40 q 116 75 99 58 q 133 132 133 92 l 133 765 q 117 828 133 810 q 50 858 100 847 q 21 888 21 865 q 28 903 21 897 q 49 910 36 910 q 153 906 99 910 q 249 903 222 903 q 572 907 435 903 q 645 913 615 907 q 679 918 675 918 q 703 911 692 918 q 715 889 714 904 q 728 804 719 843 q 739 701 739 726 q 734 681 739 689 q 721 674 729 674 q 705 680 713 674 q 692 697 697 686 q 661 768 671 749 q 638 801 651 788 q 594 833 618 821 q 536 846 571 846 l 449 846 q 392 828 414 846 q 369 782 369 811 l 369 526 q 406 493 369 493 l 524 493 q 572 514 556 493 q 604 579 588 535 q 633 604 615 604 q 646 595 640 604 q 650 572 651 586 q 643 457 643 506 q 649 342 643 397 l 649 331 q 635 303 649 303 q 615 313 625 303 q 601 336 606 322 q 572 406 589 383 q 531 428 556 428 l 400 428 q 369 396 369 428 l 369 133 q 385 79 369 96 q 438 63 401 63 l 561 63 q 663 94 625 63 q 742 206 703 128 q 768 222 750 222 q 782 194 782 222 q 775 140 782 169 q 753 64 768 111 l 738 11 q 704 -6 732 -6 l 650 -4 q 249 0 379 0 q 147 -4 201 0 q 49 -7 75 -7 m 211 1185 q 297 1160 228 1185 q 397 1118 365 1136 q 415 1113 408 1113 q 433 1118 422 1113 q 535 1162 468 1138 q 622 1186 603 1186 q 640 1181 633 1186 q 646 1167 646 1175 q 635 1143 646 1153 l 489 1011 q 448 978 461 986 q 415 969 435 969 q 384 978 397 969 q 343 1011 371 986 l 196 1144 q 183 1167 183 1156 q 191 1180 183 1175 q 211 1185 199 1185 z "},"Ê":{"ha":801,"x_min":21,"x_max":782,"o":"m 49 -7 q 29 0 36 -7 q 22 15 22 7 q 30 32 22 24 q 50 44 38 40 q 116 75 99 58 q 133 132 133 92 l 133 765 q 117 828 133 810 q 50 858 100 847 q 21 888 21 865 q 28 903 21 897 q 49 910 36 910 q 153 906 99 910 q 249 903 222 903 q 572 907 435 903 q 645 913 615 907 q 679 918 675 918 q 703 911 692 918 q 715 889 714 904 q 728 804 719 843 q 739 701 739 726 q 734 681 739 689 q 721 674 729 674 q 705 680 713 674 q 692 697 697 686 q 661 768 671 749 q 638 801 651 788 q 594 833 618 821 q 536 846 571 846 l 449 846 q 392 828 414 846 q 369 782 369 811 l 369 526 q 406 493 369 493 l 524 493 q 572 514 556 493 q 604 579 588 535 q 633 604 615 604 q 646 595 640 604 q 650 572 651 586 q 643 457 643 506 q 649 342 643 397 l 649 331 q 635 303 649 303 q 615 313 625 303 q 601 336 606 322 q 572 406 589 383 q 531 428 556 428 l 400 428 q 369 396 369 428 l 369 133 q 385 79 369 96 q 438 63 401 63 l 561 63 q 663 94 625 63 q 742 206 703 128 q 768 222 750 222 q 782 194 782 222 q 775 140 782 169 q 753 64 768 111 l 738 11 q 704 -6 732 -6 l 650 -4 q 249 0 379 0 q 147 -4 201 0 q 49 -7 75 -7 m 211 961 q 191 966 199 961 q 183 979 183 971 q 196 1001 183 992 l 343 1135 q 384 1168 371 1160 q 415 1176 397 1176 q 448 1168 435 1176 q 489 1135 461 1160 l 635 1003 q 646 979 646 993 q 640 965 646 971 q 622 960 633 960 q 535 984 603 960 q 433 1028 468 1008 q 415 1033 426 1033 q 397 1028 404 1033 q 297 985 365 1010 q 211 961 228 961 z "},"Ë":{"ha":801,"x_min":21,"x_max":782,"o":"m 49 -7 q 29 0 36 -7 q 22 15 22 7 q 30 32 22 24 q 50 44 38 40 q 116 75 99 58 q 133 132 133 92 l 133 765 q 117 828 133 810 q 50 858 100 847 q 21 888 21 865 q 28 903 21 897 q 49 910 36 910 q 153 906 99 910 q 249 903 222 903 q 572 907 435 903 q 645 913 615 907 q 679 918 675 918 q 703 911 692 918 q 715 889 714 904 q 728 804 719 843 q 739 701 739 726 q 734 681 739 689 q 721 674 729 674 q 705 680 713 674 q 692 697 697 686 q 661 768 671 749 q 638 801 651 788 q 594 833 618 821 q 536 846 571 846 l 449 846 q 392 828 414 846 q 369 782 369 811 l 369 526 q 406 493 369 493 l 524 493 q 572 514 556 493 q 604 579 588 535 q 633 604 615 604 q 646 595 640 604 q 650 572 651 586 q 643 457 643 506 q 649 342 643 397 l 649 331 q 635 303 649 303 q 615 313 625 303 q 601 336 606 322 q 572 406 589 383 q 531 428 556 428 l 400 428 q 369 396 369 428 l 369 133 q 385 79 369 96 q 438 63 401 63 l 561 63 q 663 94 625 63 q 742 206 703 128 q 768 222 750 222 q 782 194 782 222 q 775 140 782 169 q 753 64 768 111 l 738 11 q 704 -6 732 -6 l 650 -4 q 249 0 379 0 q 147 -4 201 0 q 49 -7 75 -7 m 276 953 q 202 984 233 953 q 171 1058 171 1015 q 201 1135 171 1104 q 276 1165 232 1165 q 356 1135 324 1165 q 388 1058 388 1104 q 355 984 388 1015 q 276 953 322 953 m 551 953 q 477 984 508 953 q 446 1058 446 1015 q 476 1135 446 1104 q 551 1165 507 1165 q 631 1135 599 1165 q 663 1058 663 1104 q 630 984 663 1015 q 551 953 597 953 z "},"Ė":{"ha":801,"x_min":21,"x_max":782,"o":"m 49 -7 q 29 0 36 -7 q 22 15 22 7 q 30 32 22 24 q 50 44 38 40 q 116 75 99 58 q 133 132 133 92 l 133 765 q 117 828 133 810 q 50 858 100 847 q 21 888 21 865 q 28 903 21 897 q 49 910 36 910 q 153 906 99 910 q 249 903 222 903 q 572 907 435 903 q 645 913 615 907 q 679 918 675 918 q 703 911 692 918 q 715 889 714 904 q 728 804 719 843 q 739 701 739 726 q 734 681 739 689 q 721 674 729 674 q 705 680 713 674 q 692 697 697 686 q 661 768 671 749 q 638 801 651 788 q 594 833 618 821 q 536 846 571 846 l 449 846 q 392 828 414 846 q 369 782 369 811 l 369 526 q 406 493 369 493 l 524 493 q 572 514 556 493 q 604 579 588 535 q 633 604 615 604 q 646 595 640 604 q 650 572 651 586 q 643 457 643 506 q 649 342 643 397 l 649 331 q 635 303 649 303 q 615 313 625 303 q 601 336 606 322 q 572 406 589 383 q 531 428 556 428 l 400 428 q 369 396 369 428 l 369 133 q 385 79 369 96 q 438 63 401 63 l 561 63 q 663 94 625 63 q 742 206 703 128 q 768 222 750 222 q 782 194 782 222 q 775 140 782 169 q 753 64 768 111 l 738 11 q 704 -6 732 -6 l 650 -4 q 249 0 379 0 q 147 -4 201 0 q 49 -7 75 -7 m 415 961 q 328 994 364 961 q 292 1072 292 1026 q 328 1153 292 1119 q 415 1186 364 1186 q 507 1153 469 1186 q 544 1072 544 1119 q 507 994 544 1026 q 415 961 469 961 z "},"È":{"ha":801,"x_min":21,"x_max":782,"o":"m 49 -7 q 29 0 36 -7 q 22 15 22 7 q 30 32 22 24 q 50 44 38 40 q 116 75 99 58 q 133 132 133 92 l 133 765 q 117 828 133 810 q 50 858 100 847 q 21 888 21 865 q 28 903 21 897 q 49 910 36 910 q 153 906 99 910 q 249 903 222 903 q 572 907 435 903 q 645 913 615 907 q 679 918 675 918 q 703 911 692 918 q 715 889 714 904 q 728 804 719 843 q 739 701 739 726 q 734 681 739 689 q 721 674 729 674 q 705 680 713 674 q 692 697 697 686 q 661 768 671 749 q 638 801 651 788 q 594 833 618 821 q 536 846 571 846 l 449 846 q 392 828 414 846 q 369 782 369 811 l 369 526 q 406 493 369 493 l 524 493 q 572 514 556 493 q 604 579 588 535 q 633 604 615 604 q 646 595 640 604 q 650 572 651 586 q 643 457 643 506 q 649 342 643 397 l 649 331 q 635 303 649 303 q 615 313 625 303 q 601 336 606 322 q 572 406 589 383 q 531 428 556 428 l 400 428 q 369 396 369 428 l 369 133 q 385 79 369 96 q 438 63 401 63 l 561 63 q 663 94 625 63 q 742 206 703 128 q 768 222 750 222 q 782 194 782 222 q 775 140 782 169 q 753 64 768 111 l 738 11 q 704 -6 732 -6 l 650 -4 q 249 0 379 0 q 147 -4 201 0 q 49 -7 75 -7 m 450 946 q 415 957 433 946 l 308 1018 q 175 1094 242 1054 q 147 1125 151 1110 q 185 1160 143 1140 q 250 1182 226 1179 l 261 1183 q 299 1167 282 1183 q 454 990 371 1094 q 471 960 471 969 q 453 946 471 950 l 450 946 z "},"Ē":{"ha":801,"x_min":21,"x_max":782,"o":"m 49 -7 q 29 0 36 -7 q 22 15 22 7 q 30 32 22 24 q 50 44 38 40 q 116 75 99 58 q 133 132 133 92 l 133 765 q 117 828 133 810 q 50 858 100 847 q 21 888 21 865 q 28 903 21 897 q 49 910 36 910 q 153 906 99 910 q 249 903 222 903 q 572 907 435 903 q 645 913 615 907 q 679 918 675 918 q 703 911 692 918 q 715 889 714 904 q 728 804 719 843 q 739 701 739 726 q 734 681 739 689 q 721 674 729 674 q 705 680 713 674 q 692 697 697 686 q 661 768 671 749 q 638 801 651 788 q 594 833 618 821 q 536 846 571 846 l 449 846 q 392 828 414 846 q 369 782 369 811 l 369 526 q 406 493 369 493 l 524 493 q 572 514 556 493 q 604 579 588 535 q 633 604 615 604 q 646 595 640 604 q 650 572 651 586 q 643 457 643 506 q 649 342 643 397 l 649 331 q 635 303 649 303 q 615 313 625 303 q 601 336 606 322 q 572 406 589 383 q 531 428 556 428 l 400 428 q 369 396 369 428 l 369 133 q 385 79 369 96 q 438 63 401 63 l 561 63 q 663 94 625 63 q 742 206 703 128 q 768 222 750 222 q 782 194 782 222 q 775 140 782 169 q 753 64 768 111 l 738 11 q 704 -6 732 -6 l 650 -4 q 249 0 379 0 q 147 -4 201 0 q 49 -7 75 -7 m 215 994 q 194 1002 203 994 q 186 1021 186 1010 q 203 1088 186 1061 q 242 1114 221 1114 l 617 1114 q 637 1106 629 1114 q 644 1088 644 1099 q 626 1023 644 1051 q 585 994 608 994 l 215 994 z "},"Ę":{"ha":793,"x_min":21,"x_max":782,"o":"m 49 -7 q 29 0 36 -7 q 22 15 22 7 q 30 32 22 24 q 50 44 38 40 q 116 75 99 58 q 133 132 133 92 l 133 765 q 117 828 133 810 q 50 858 100 847 q 21 888 21 865 q 28 903 21 897 q 49 910 36 910 q 153 906 99 910 q 249 903 222 903 q 572 907 435 903 q 645 913 615 907 q 679 918 675 918 q 703 911 692 918 q 715 889 714 904 q 728 804 719 843 q 739 701 739 726 q 734 681 739 689 q 721 674 729 674 q 705 680 713 674 q 692 697 697 686 q 661 768 671 749 q 638 801 651 788 q 594 833 618 821 q 536 846 571 846 l 449 846 q 392 828 414 846 q 369 782 369 811 l 369 526 q 406 493 369 493 l 524 493 q 572 514 556 493 q 604 579 588 535 q 633 604 615 604 q 646 595 640 604 q 650 572 651 586 q 643 457 643 506 q 649 342 643 397 l 649 331 q 635 303 649 303 q 615 313 625 303 q 601 336 606 322 q 572 406 589 383 q 531 428 556 428 l 400 428 q 369 396 369 428 l 369 133 q 385 79 369 96 q 438 63 401 63 l 561 63 q 663 94 625 63 q 742 206 703 128 q 768 222 750 222 q 782 194 782 222 q 775 140 782 169 q 753 64 768 111 l 738 11 q 704 -6 732 -6 l 650 -4 q 249 0 379 0 q 147 -4 201 0 q 49 -7 75 -7 m 557 -399 q 435 -358 479 -399 q 390 -242 390 -317 q 456 -99 390 -162 q 626 25 521 -35 l 688 25 q 586 -88 621 -36 q 551 -201 551 -140 q 572 -255 551 -235 q 626 -275 593 -275 q 673 -265 653 -275 q 713 -236 693 -256 q 731 -229 719 -229 q 750 -256 750 -229 q 723 -324 750 -290 q 651 -378 696 -357 q 557 -399 607 -399 z "},"F":{"ha":769,"x_min":21,"x_max":744,"o":"m 46 -4 q 29 2 38 -4 q 21 17 21 8 q 47 47 21 40 q 120 76 101 58 q 139 135 139 93 l 139 765 q 122 828 139 810 q 56 858 106 847 q 26 888 26 865 q 34 903 26 897 q 54 910 42 910 q 158 906 104 910 q 254 903 228 903 l 513 903 q 636 913 551 903 q 701 918 686 918 q 725 911 714 918 q 738 889 736 904 q 744 692 744 771 q 740 672 744 679 q 726 664 735 664 q 709 670 718 664 q 697 688 700 676 q 673 757 685 729 q 644 803 661 785 q 542 839 608 839 l 454 839 q 397 822 419 839 q 375 775 375 804 l 375 663 l 375 528 q 411 494 375 494 l 540 494 q 590 513 574 494 q 621 569 606 531 q 650 594 632 594 q 663 585 657 594 q 667 563 668 576 q 660 457 660 496 q 665 361 660 417 l 665 350 q 651 322 665 322 q 632 332 642 322 q 618 356 622 342 q 590 413 606 397 q 547 429 574 429 l 483 429 l 403 429 q 372 397 372 429 l 374 267 q 375 136 375 222 q 398 78 375 94 q 483 47 421 61 q 503 38 497 44 q 510 18 510 31 q 488 -3 510 -3 l 367 0 l 254 3 q 154 0 229 3 q 46 -4 99 -4 z "},"G":{"ha":996,"x_min":35,"x_max":964,"o":"m 522 -19 q 276 38 388 -19 q 99 200 164 96 q 35 438 35 304 q 99 676 35 564 q 284 855 164 788 q 563 922 404 922 q 706 907 619 922 q 842 872 793 892 q 872 835 868 861 q 889 667 889 721 q 883 646 889 653 q 865 639 876 639 q 842 646 850 639 q 826 667 833 653 q 754 781 790 744 q 685 828 724 811 q 588 846 646 846 q 425 795 493 846 q 323 660 357 744 q 289 478 289 576 q 352 171 289 282 q 546 60 415 60 q 625 90 582 60 q 647 123 639 100 q 656 176 654 146 q 658 299 658 224 q 622 349 658 335 q 543 374 581 365 q 519 386 529 378 q 508 406 508 394 q 517 421 508 415 q 539 426 526 426 q 654 422 592 426 q 760 419 735 419 q 847 422 786 419 q 942 425 911 425 q 964 404 964 425 q 958 385 964 392 q 938 375 951 378 q 882 350 897 364 q 861 307 867 336 q 851 203 851 260 l 851 156 q 860 138 851 147 q 871 128 869 129 q 885 97 885 114 q 878 77 885 86 q 856 67 871 68 q 817 51 846 65 q 685 1 754 22 q 522 -19 615 -19 z "},"Ğ":{"ha":996,"x_min":35,"x_max":964,"o":"m 522 -19 q 276 38 388 -19 q 99 200 164 96 q 35 438 35 304 q 99 676 35 564 q 284 855 164 788 q 563 922 404 922 q 706 907 619 922 q 842 872 793 892 q 872 835 868 861 q 889 667 889 721 q 883 646 889 653 q 865 639 876 639 q 842 646 850 639 q 826 667 833 653 q 754 781 790 744 q 685 828 724 811 q 588 846 646 846 q 425 795 493 846 q 323 660 357 744 q 289 478 289 576 q 352 171 289 282 q 546 60 415 60 q 625 90 582 60 q 647 123 639 100 q 656 176 654 146 q 658 299 658 224 q 622 349 658 335 q 543 374 581 365 q 519 386 529 378 q 508 406 508 394 q 517 421 508 415 q 539 426 526 426 q 654 422 592 426 q 760 419 735 419 q 847 422 786 419 q 942 425 911 425 q 964 404 964 425 q 958 385 964 392 q 938 375 951 378 q 882 350 897 364 q 861 307 867 336 q 851 203 851 260 l 851 156 q 860 138 851 147 q 871 128 869 129 q 885 97 885 114 q 878 77 885 86 q 856 67 871 68 q 817 51 846 65 q 685 1 754 22 q 522 -19 615 -19 m 575 951 q 463 981 508 951 q 394 1051 417 1010 q 371 1129 371 1092 q 374 1158 371 1150 q 390 1167 378 1167 q 407 1162 400 1167 q 421 1149 414 1157 q 432 1136 428 1140 q 496 1086 465 1100 q 575 1072 526 1072 q 654 1086 624 1072 q 718 1136 685 1100 q 731 1149 722 1140 q 745 1163 739 1158 q 760 1167 751 1167 q 776 1158 772 1167 q 779 1129 779 1150 q 756 1051 779 1092 q 688 981 733 1010 q 575 951 642 951 z "},"Ǧ":{"ha":996,"x_min":35,"x_max":964,"o":"m 522 -19 q 276 38 388 -19 q 99 200 164 96 q 35 438 35 304 q 99 676 35 564 q 284 855 164 788 q 563 922 404 922 q 706 907 619 922 q 842 872 793 892 q 872 835 868 861 q 889 667 889 721 q 883 646 889 653 q 865 639 876 639 q 842 646 850 639 q 826 667 833 653 q 754 781 790 744 q 685 828 724 811 q 588 846 646 846 q 425 795 493 846 q 323 660 357 744 q 289 478 289 576 q 352 171 289 282 q 546 60 415 60 q 625 90 582 60 q 647 123 639 100 q 656 176 654 146 q 658 299 658 224 q 622 349 658 335 q 543 374 581 365 q 519 386 529 378 q 508 406 508 394 q 517 421 508 415 q 539 426 526 426 q 654 422 592 426 q 760 419 735 419 q 847 422 786 419 q 942 425 911 425 q 964 404 964 425 q 958 385 964 392 q 938 375 951 378 q 882 350 897 364 q 861 307 867 336 q 851 203 851 260 l 851 156 q 860 138 851 147 q 871 128 869 129 q 885 97 885 114 q 878 77 885 86 q 856 67 871 68 q 817 51 846 65 q 685 1 754 22 q 522 -19 615 -19 m 371 1185 q 456 1160 388 1185 q 557 1118 525 1136 q 575 1113 568 1113 q 593 1118 582 1113 q 695 1162 628 1138 q 782 1186 763 1186 q 799 1181 793 1186 q 806 1167 806 1175 q 794 1143 806 1153 l 649 1011 q 608 978 621 986 q 575 969 594 969 q 544 978 557 969 q 503 1011 531 986 l 356 1144 q 343 1167 343 1156 q 351 1180 343 1175 q 371 1185 358 1185 z "},"Ĝ":{"ha":996,"x_min":35,"x_max":964,"o":"m 522 -19 q 276 38 388 -19 q 99 200 164 96 q 35 438 35 304 q 99 676 35 564 q 284 855 164 788 q 563 922 404 922 q 706 907 619 922 q 842 872 793 892 q 872 835 868 861 q 889 667 889 721 q 883 646 889 653 q 865 639 876 639 q 842 646 850 639 q 826 667 833 653 q 754 781 790 744 q 685 828 724 811 q 588 846 646 846 q 425 795 493 846 q 323 660 357 744 q 289 478 289 576 q 352 171 289 282 q 546 60 415 60 q 625 90 582 60 q 647 123 639 100 q 656 176 654 146 q 658 299 658 224 q 622 349 658 335 q 543 374 581 365 q 519 386 529 378 q 508 406 508 394 q 517 421 508 415 q 539 426 526 426 q 654 422 592 426 q 760 419 735 419 q 847 422 786 419 q 942 425 911 425 q 964 404 964 425 q 958 385 964 392 q 938 375 951 378 q 882 350 897 364 q 861 307 867 336 q 851 203 851 260 l 851 156 q 860 138 851 147 q 871 128 869 129 q 885 97 885 114 q 878 77 885 86 q 856 67 871 68 q 817 51 846 65 q 685 1 754 22 q 522 -19 615 -19 m 371 961 q 351 966 358 961 q 343 979 343 971 q 356 1001 343 992 l 503 1135 q 544 1168 531 1160 q 575 1176 557 1176 q 608 1168 594 1176 q 649 1135 621 1160 l 794 1003 q 806 979 806 993 q 799 965 806 971 q 782 960 793 960 q 695 984 763 960 q 593 1028 628 1008 q 575 1033 586 1033 q 557 1028 564 1033 q 456 985 525 1010 q 371 961 388 961 z "},"Ġ":{"ha":996,"x_min":35,"x_max":964,"o":"m 522 -19 q 276 38 388 -19 q 99 200 164 96 q 35 438 35 304 q 99 676 35 564 q 284 855 164 788 q 563 922 404 922 q 706 907 619 922 q 842 872 793 892 q 872 835 868 861 q 889 667 889 721 q 883 646 889 653 q 865 639 876 639 q 842 646 850 639 q 826 667 833 653 q 754 781 790 744 q 685 828 724 811 q 588 846 646 846 q 425 795 493 846 q 323 660 357 744 q 289 478 289 576 q 352 171 289 282 q 546 60 415 60 q 625 90 582 60 q 647 123 639 100 q 656 176 654 146 q 658 299 658 224 q 622 349 658 335 q 543 374 581 365 q 519 386 529 378 q 508 406 508 394 q 517 421 508 415 q 539 426 526 426 q 654 422 592 426 q 760 419 735 419 q 847 422 786 419 q 942 425 911 425 q 964 404 964 425 q 958 385 964 392 q 938 375 951 378 q 882 350 897 364 q 861 307 867 336 q 851 203 851 260 l 851 156 q 860 138 851 147 q 871 128 869 129 q 885 97 885 114 q 878 77 885 86 q 856 67 871 68 q 817 51 846 65 q 685 1 754 22 q 522 -19 615 -19 m 575 961 q 488 994 524 961 q 451 1072 451 1026 q 488 1153 451 1119 q 575 1186 524 1186 q 667 1153 629 1186 q 704 1072 704 1119 q 667 994 704 1026 q 575 961 629 961 z "},"Ɂ":{"ha":681,"x_min":21,"x_max":649,"o":"m 118 -4 q 101 2 110 -4 q 93 17 93 8 q 119 47 93 40 q 192 76 174 58 q 211 135 211 93 l 211 325 q 237 403 211 371 q 284 451 263 435 q 310 471 306 467 q 381 548 354 507 q 408 658 408 589 q 369 793 408 738 q 263 849 329 849 q 129 782 171 849 q 82 663 99 733 q 69 643 79 650 q 49 636 60 636 q 29 643 38 636 q 21 663 21 650 q 28 776 21 706 q 46 865 35 846 q 346 922 206 922 q 569 857 489 922 q 649 679 649 792 q 624 571 649 617 q 572 499 600 525 q 496 436 544 474 q 456 390 464 413 q 447 326 447 368 l 447 136 q 463 81 447 97 q 532 49 478 64 q 556 37 547 43 q 564 18 564 31 q 542 -3 564 -3 q 431 0 511 -3 q 326 3 353 3 q 226 0 301 3 q 118 -4 169 -4 z "},"Ȝ":{"ha":779,"x_min":-42,"x_max":758,"o":"m 160 -278 q -42 -224 -42 -278 q -22 -155 -42 -186 q 21 -124 -3 -124 q 44 -132 31 -124 q 71 -151 57 -140 l 96 -169 q 206 -204 147 -204 q 374 -154 304 -204 q 479 -27 444 -104 q 514 131 514 50 q 472 284 514 224 q 343 344 429 344 q 200 310 286 344 q 167 299 174 299 q 147 322 147 299 q 157 361 147 342 q 180 388 164 374 q 211 408 196 403 q 376 514 328 456 q 424 675 424 572 q 386 794 424 743 q 289 846 349 846 q 128 778 182 846 q 81 667 101 744 q 68 648 78 654 q 47 642 58 642 q 28 649 36 642 q 19 667 19 656 q 31 835 19 758 q 60 872 33 861 q 183 908 111 893 q 315 922 254 922 q 492 896 415 922 q 613 820 569 869 q 656 706 656 771 q 614 561 656 625 q 507 461 572 497 q 497 449 497 456 q 501 441 497 444 q 511 436 506 438 q 697 346 636 417 q 758 175 758 275 q 688 -37 758 68 q 481 -210 617 -142 q 160 -278 344 -278 z "},"H":{"ha":1110,"x_min":21,"x_max":1089,"o":"m 46 -4 q 29 2 38 -4 q 21 17 21 8 q 47 47 21 40 q 113 76 96 60 q 131 135 131 93 l 131 765 q 114 828 131 810 q 47 858 97 846 q 21 889 21 865 q 29 903 21 897 q 46 910 38 910 q 150 906 96 910 q 246 903 219 903 q 350 906 272 903 q 461 908 431 908 q 483 888 483 908 q 477 869 483 875 q 457 858 471 863 q 383 824 400 842 q 367 764 367 806 l 367 518 q 389 497 367 497 l 724 497 q 743 518 743 497 l 743 764 q 726 824 743 806 q 653 858 710 842 q 633 869 639 863 q 626 888 626 875 q 649 908 626 908 q 760 906 679 908 q 864 903 838 903 q 960 906 890 903 q 1064 910 1014 910 q 1081 903 1074 910 q 1089 889 1089 897 q 1063 858 1089 865 q 996 828 1013 846 q 979 765 979 810 l 979 135 q 997 76 979 93 q 1063 47 1014 60 q 1089 17 1089 40 q 1081 2 1089 8 q 1064 -4 1074 -4 q 967 -1 1039 -4 q 864 3 911 3 q 760 0 838 3 q 649 -3 679 -3 q 626 18 626 -3 q 633 37 626 31 q 653 47 639 43 q 725 80 707 63 q 743 136 743 97 l 743 394 q 724 418 743 418 l 389 418 q 367 394 367 418 l 367 136 q 385 80 367 97 q 457 47 403 63 q 477 37 471 43 q 483 18 483 31 q 461 -3 483 -3 q 350 0 431 -3 q 246 3 272 3 q 143 -1 200 3 q 46 -4 71 -4 z "},"Ħ":{"ha":1110,"x_min":21,"x_max":1089,"o":"m 1063 47 q 1089 17 1089 40 q 1081 2 1089 8 q 1064 -4 1074 -4 q 967 -1 1039 -4 q 864 3 911 3 q 760 0 838 3 q 649 -3 679 -3 q 626 18 626 -3 q 633 37 626 31 q 653 47 639 43 q 725 80 707 63 q 743 136 743 97 l 743 394 q 724 418 743 418 l 389 418 q 367 394 367 418 l 367 136 q 385 80 367 97 q 457 47 403 63 q 477 37 471 43 q 483 18 483 31 q 461 -3 483 -3 q 350 0 431 -3 q 246 3 272 3 q 143 -1 200 3 q 46 -4 71 -4 q 29 2 38 -4 q 21 17 21 8 q 47 47 21 40 q 113 76 96 60 q 131 135 131 93 l 131 621 l 61 621 q 35 633 46 621 q 25 664 25 646 q 36 695 25 683 q 65 707 47 707 l 131 707 l 131 765 q 114 828 131 810 q 47 858 97 846 q 21 889 21 865 q 29 903 21 897 q 46 910 38 910 q 150 906 96 910 q 246 903 219 903 q 350 906 272 903 q 461 908 431 908 q 483 888 483 908 q 477 869 483 875 q 457 858 471 863 q 383 824 400 842 q 367 764 367 806 l 367 707 l 743 707 l 743 764 q 726 824 743 806 q 653 858 710 842 q 633 869 639 863 q 626 888 626 875 q 649 908 626 908 q 760 906 679 908 q 864 903 838 903 q 960 906 890 903 q 1064 910 1014 910 q 1081 903 1074 910 q 1089 889 1089 897 q 1063 858 1089 865 q 996 828 1013 846 q 979 765 979 810 l 979 707 l 1042 707 q 1065 699 1056 707 q 1074 681 1074 692 q 1055 640 1074 660 q 1014 621 1036 621 l 979 621 l 979 135 q 997 76 979 93 q 1063 47 1014 60 m 724 497 q 743 518 743 497 l 743 621 l 367 621 l 367 518 q 389 497 367 497 l 724 497 z "},"Ĥ":{"ha":1110,"x_min":21,"x_max":1089,"o":"m 46 -4 q 29 2 38 -4 q 21 17 21 8 q 47 47 21 40 q 113 76 96 60 q 131 135 131 93 l 131 765 q 114 828 131 810 q 47 858 97 846 q 21 889 21 865 q 29 903 21 897 q 46 910 38 910 q 150 906 96 910 q 246 903 219 903 q 350 906 272 903 q 461 908 431 908 q 483 888 483 908 q 477 869 483 875 q 457 858 471 863 q 383 824 400 842 q 367 764 367 806 l 367 518 q 389 497 367 497 l 724 497 q 743 518 743 497 l 743 764 q 726 824 743 806 q 653 858 710 842 q 633 869 639 863 q 626 888 626 875 q 649 908 626 908 q 760 906 679 908 q 864 903 838 903 q 960 906 890 903 q 1064 910 1014 910 q 1081 903 1074 910 q 1089 889 1089 897 q 1063 858 1089 865 q 996 828 1013 846 q 979 765 979 810 l 979 135 q 997 76 979 93 q 1063 47 1014 60 q 1089 17 1089 40 q 1081 2 1089 8 q 1064 -4 1074 -4 q 967 -1 1039 -4 q 864 3 911 3 q 760 0 838 3 q 649 -3 679 -3 q 626 18 626 -3 q 633 37 626 31 q 653 47 639 43 q 725 80 707 63 q 743 136 743 97 l 743 394 q 724 418 743 418 l 389 418 q 367 394 367 418 l 367 136 q 385 80 367 97 q 457 47 403 63 q 477 37 471 43 q 483 18 483 31 q 461 -3 483 -3 q 350 0 431 -3 q 246 3 272 3 q 143 -1 200 3 q 46 -4 71 -4 m 351 961 q 331 966 339 961 q 324 979 324 971 q 336 1001 324 992 l 483 1135 q 524 1168 511 1160 q 556 1176 538 1176 q 588 1168 575 1176 q 629 1135 601 1160 l 775 1003 q 786 979 786 993 q 780 965 786 971 q 763 960 774 960 q 676 984 743 960 q 574 1028 608 1008 q 556 1033 567 1033 q 538 1028 544 1033 q 437 985 506 1010 q 351 961 368 961 z "},"I":{"ha":513,"x_min":21,"x_max":492,"o":"m 46 -4 q 29 2 38 -4 q 21 17 21 8 q 47 47 21 40 q 120 76 101 58 q 139 135 139 93 l 139 765 q 121 828 139 810 q 47 858 103 846 q 21 889 21 865 q 29 903 21 897 q 46 910 38 910 q 154 906 97 910 q 254 903 229 903 q 358 906 281 903 q 469 908 439 908 q 492 888 492 908 q 485 869 492 875 q 465 858 479 863 q 392 824 408 842 q 375 764 375 806 l 375 136 q 393 80 375 97 q 465 47 411 63 q 485 37 479 43 q 492 18 492 31 q 469 -3 492 -3 q 358 0 439 -3 q 254 3 281 3 q 154 0 229 3 q 46 -4 99 -4 z "},"Ĳ":{"ha":1035,"x_min":21,"x_max":1035,"o":"m 46 -4 q 29 2 38 -4 q 21 17 21 8 q 47 47 21 40 q 120 76 101 58 q 139 135 139 93 l 139 765 q 121 828 139 810 q 47 858 103 846 q 21 889 21 865 q 29 903 21 897 q 46 910 38 910 q 154 906 97 910 q 254 903 229 903 q 358 906 281 903 q 469 908 439 908 q 492 888 492 908 q 485 869 492 875 q 465 858 479 863 q 392 824 408 842 q 375 764 375 806 l 375 136 q 393 80 375 97 q 465 47 411 63 q 485 37 479 43 q 492 18 492 31 q 469 -3 492 -3 q 358 0 439 -3 q 254 3 281 3 q 154 0 229 3 q 46 -4 99 -4 m 599 -278 q 446 -256 497 -278 q 394 -194 394 -235 q 419 -138 394 -165 q 469 -111 444 -111 q 526 -143 497 -111 q 558 -185 542 -160 q 569 -199 561 -187 q 583 -215 576 -210 q 596 -219 589 -219 q 682 13 682 -219 l 682 765 q 664 828 682 810 q 590 858 646 846 q 564 889 564 865 q 572 903 564 897 q 589 910 581 910 q 697 906 640 910 q 797 903 772 903 q 901 906 824 903 q 1013 908 982 908 q 1035 888 1035 908 q 1028 869 1035 875 q 1008 858 1022 863 q 935 824 951 842 q 918 764 918 806 l 918 131 q 887 6 918 81 q 806 -135 856 -68 q 703 -239 757 -200 q 599 -278 650 -278 z "},"Í":{"ha":513,"x_min":21,"x_max":496,"o":"m 46 -4 q 29 2 38 -4 q 21 17 21 8 q 47 47 21 40 q 120 76 101 58 q 139 135 139 93 l 139 765 q 121 828 139 810 q 47 858 103 846 q 21 889 21 865 q 29 903 21 897 q 46 910 38 910 q 154 906 97 910 q 254 903 229 903 q 358 906 281 903 q 469 908 439 908 q 492 888 492 908 q 485 869 492 875 q 465 858 479 863 q 392 824 408 842 q 375 764 375 806 l 375 136 q 393 80 375 97 q 465 47 411 63 q 485 37 479 43 q 492 18 492 31 q 469 -3 492 -3 q 358 0 439 -3 q 254 3 281 3 q 154 0 229 3 q 46 -4 99 -4 m 190 946 q 172 960 172 950 q 189 990 172 969 q 344 1167 272 1094 q 393 1182 364 1186 q 458 1160 417 1179 q 496 1125 500 1140 q 468 1094 492 1110 q 335 1018 401 1054 l 228 957 q 206 947 217 950 q 190 946 194 944 z "},"Ĭ":{"ha":513,"x_min":21,"x_max":492,"o":"m 46 -4 q 29 2 38 -4 q 21 17 21 8 q 47 47 21 40 q 120 76 101 58 q 139 135 139 93 l 139 765 q 121 828 139 810 q 47 858 103 846 q 21 889 21 865 q 29 903 21 897 q 46 910 38 910 q 154 906 97 910 q 254 903 229 903 q 358 906 281 903 q 469 908 439 908 q 492 888 492 908 q 485 869 492 875 q 465 858 479 863 q 392 824 408 842 q 375 764 375 806 l 375 136 q 393 80 375 97 q 465 47 411 63 q 485 37 479 43 q 492 18 492 31 q 469 -3 492 -3 q 358 0 439 -3 q 254 3 281 3 q 154 0 229 3 q 46 -4 99 -4 m 261 951 q 149 981 194 951 q 80 1051 103 1010 q 57 1129 57 1092 q 60 1158 57 1150 q 76 1167 64 1167 q 93 1162 86 1167 q 107 1149 100 1157 q 118 1136 114 1140 q 182 1086 151 1100 q 261 1072 213 1072 q 340 1086 310 1072 q 404 1136 371 1100 q 417 1149 408 1140 q 431 1163 425 1158 q 446 1167 438 1167 q 462 1158 458 1167 q 465 1129 465 1150 q 442 1051 465 1092 q 374 981 419 1010 q 261 951 328 951 z "},"Î":{"ha":513,"x_min":21,"x_max":492,"o":"m 46 -4 q 29 2 38 -4 q 21 17 21 8 q 47 47 21 40 q 120 76 101 58 q 139 135 139 93 l 139 765 q 121 828 139 810 q 47 858 103 846 q 21 889 21 865 q 29 903 21 897 q 46 910 38 910 q 154 906 97 910 q 254 903 229 903 q 358 906 281 903 q 469 908 439 908 q 492 888 492 908 q 485 869 492 875 q 465 858 479 863 q 392 824 408 842 q 375 764 375 806 l 375 136 q 393 80 375 97 q 465 47 411 63 q 485 37 479 43 q 492 18 492 31 q 469 -3 492 -3 q 358 0 439 -3 q 254 3 281 3 q 154 0 229 3 q 46 -4 99 -4 m 57 961 q 37 966 44 961 q 29 979 29 971 q 42 1001 29 992 l 189 1135 q 230 1168 217 1160 q 261 1176 243 1176 q 294 1168 281 1176 q 335 1135 307 1160 l 481 1003 q 492 979 492 993 q 485 965 492 971 q 468 960 479 960 q 381 984 449 960 q 279 1028 314 1008 q 261 1033 272 1033 q 243 1028 250 1033 q 142 985 211 1010 q 57 961 74 961 z "},"Ï":{"ha":513,"x_min":17,"x_max":508,"o":"m 46 -4 q 29 2 38 -4 q 21 17 21 8 q 47 47 21 40 q 120 76 101 58 q 139 135 139 93 l 139 765 q 121 828 139 810 q 47 858 103 846 q 21 889 21 865 q 29 903 21 897 q 46 910 38 910 q 154 906 97 910 q 254 903 229 903 q 358 906 281 903 q 469 908 439 908 q 492 888 492 908 q 485 869 492 875 q 465 858 479 863 q 392 824 408 842 q 375 764 375 806 l 375 136 q 393 80 375 97 q 465 47 411 63 q 485 37 479 43 q 492 18 492 31 q 469 -3 492 -3 q 358 0 439 -3 q 254 3 281 3 q 154 0 229 3 q 46 -4 99 -4 m 122 953 q 48 984 79 953 q 17 1058 17 1015 q 47 1135 17 1104 q 122 1165 78 1165 q 201 1135 169 1165 q 233 1058 233 1104 q 201 984 233 1015 q 122 953 168 953 m 397 953 q 323 984 354 953 q 292 1058 292 1015 q 322 1135 292 1104 q 397 1165 353 1165 q 476 1135 444 1165 q 508 1058 508 1104 q 476 984 508 1015 q 397 953 443 953 z "},"İ":{"ha":513,"x_min":21,"x_max":492,"o":"m 46 -4 q 29 2 38 -4 q 21 17 21 8 q 47 47 21 40 q 120 76 101 58 q 139 135 139 93 l 139 765 q 121 828 139 810 q 47 858 103 846 q 21 889 21 865 q 29 903 21 897 q 46 910 38 910 q 154 906 97 910 q 254 903 229 903 q 358 906 281 903 q 469 908 439 908 q 492 888 492 908 q 485 869 492 875 q 465 858 479 863 q 392 824 408 842 q 375 764 375 806 l 375 136 q 393 80 375 97 q 465 47 411 63 q 485 37 479 43 q 492 18 492 31 q 469 -3 492 -3 q 358 0 439 -3 q 254 3 281 3 q 154 0 229 3 q 46 -4 99 -4 m 261 961 q 174 994 210 961 q 138 1072 138 1026 q 174 1153 138 1119 q 261 1186 210 1186 q 353 1153 315 1186 q 390 1072 390 1119 q 353 994 390 1026 q 261 961 315 961 z "},"Ì":{"ha":513,"x_min":-7,"x_max":492,"o":"m 46 -4 q 29 2 38 -4 q 21 17 21 8 q 47 47 21 40 q 120 76 101 58 q 139 135 139 93 l 139 765 q 121 828 139 810 q 47 858 103 846 q 21 889 21 865 q 29 903 21 897 q 46 910 38 910 q 154 906 97 910 q 254 903 229 903 q 358 906 281 903 q 469 908 439 908 q 492 888 492 908 q 485 869 492 875 q 465 858 479 863 q 392 824 408 842 q 375 764 375 806 l 375 136 q 393 80 375 97 q 465 47 411 63 q 485 37 479 43 q 492 18 492 31 q 469 -3 492 -3 q 358 0 439 -3 q 254 3 281 3 q 154 0 229 3 q 46 -4 99 -4 m 296 946 q 261 957 279 946 l 154 1018 q 21 1094 88 1054 q -7 1125 -3 1110 q 31 1160 -11 1140 q 96 1182 72 1179 l 107 1183 q 144 1167 128 1183 q 300 990 217 1094 q 317 960 317 969 q 299 946 317 950 l 296 946 z "},"Ī":{"ha":513,"x_min":21,"x_max":492,"o":"m 46 -4 q 29 2 38 -4 q 21 17 21 8 q 47 47 21 40 q 120 76 101 58 q 139 135 139 93 l 139 765 q 121 828 139 810 q 47 858 103 846 q 21 889 21 865 q 29 903 21 897 q 46 910 38 910 q 154 906 97 910 q 254 903 229 903 q 358 906 281 903 q 469 908 439 908 q 492 888 492 908 q 485 869 492 875 q 465 858 479 863 q 392 824 408 842 q 375 764 375 806 l 375 136 q 393 80 375 97 q 465 47 411 63 q 485 37 479 43 q 492 18 492 31 q 469 -3 492 -3 q 358 0 439 -3 q 254 3 281 3 q 154 0 229 3 q 46 -4 99 -4 m 61 994 q 40 1002 49 994 q 32 1021 32 1010 q 49 1088 32 1061 q 88 1114 67 1114 l 463 1114 q 483 1106 475 1114 q 490 1088 490 1099 q 472 1023 490 1051 q 431 994 454 994 l 61 994 z "},"Į":{"ha":513,"x_min":21,"x_max":492,"o":"m 46 -4 q 29 2 38 -4 q 21 17 21 8 q 47 47 21 40 q 120 76 101 58 q 139 135 139 93 l 139 765 q 121 828 139 810 q 47 858 103 846 q 21 889 21 865 q 29 903 21 897 q 46 910 38 910 q 154 906 97 910 q 254 903 229 903 q 358 906 281 903 q 469 908 439 908 q 492 888 492 908 q 485 869 492 875 q 465 858 479 863 q 392 824 408 842 q 375 764 375 806 l 375 136 q 393 80 375 97 q 465 47 411 63 q 485 37 479 43 q 492 18 492 31 q 469 -3 492 -3 q 358 0 439 -3 q 254 3 281 3 q 154 0 229 3 q 46 -4 99 -4 m 275 -399 q 153 -358 197 -399 q 108 -242 108 -317 q 174 -99 108 -162 q 344 25 239 -35 l 406 25 q 304 -88 339 -36 q 269 -201 269 -140 q 290 -255 269 -235 q 344 -275 311 -275 q 391 -265 371 -275 q 431 -236 411 -256 q 449 -229 438 -229 q 468 -256 468 -229 q 441 -324 468 -290 q 369 -378 414 -357 q 275 -399 325 -399 z "},"Ĩ":{"ha":513,"x_min":21,"x_max":492,"o":"m 46 -4 q 29 2 38 -4 q 21 17 21 8 q 47 47 21 40 q 120 76 101 58 q 139 135 139 93 l 139 765 q 121 828 139 810 q 47 858 103 846 q 21 889 21 865 q 29 903 21 897 q 46 910 38 910 q 154 906 97 910 q 254 903 229 903 q 358 906 281 903 q 469 908 439 908 q 492 888 492 908 q 485 869 492 875 q 465 858 479 863 q 392 824 408 842 q 375 764 375 806 l 375 136 q 393 80 375 97 q 465 47 411 63 q 485 37 479 43 q 492 18 492 31 q 469 -3 492 -3 q 358 0 439 -3 q 254 3 281 3 q 154 0 229 3 q 46 -4 99 -4 m 61 960 q 44 969 54 960 q 35 982 35 978 q 57 1028 35 992 q 105 1096 79 1065 q 142 1126 131 1126 q 208 1124 161 1126 q 261 1121 242 1121 l 290 1119 q 383 1117 346 1117 q 432 1144 407 1117 q 448 1164 439 1153 q 460 1175 457 1175 q 479 1165 467 1175 q 492 1149 492 1154 q 485 1132 492 1143 q 467 1106 478 1121 q 435 1056 444 1072 q 422 1036 428 1044 q 413 1021 417 1028 q 369 1001 400 1001 q 253 1010 356 1001 q 126 1018 144 1018 q 86 989 110 1018 q 61 960 65 960 z "},"J":{"ha":522,"x_min":-118,"x_max":522,"o":"m 86 -278 q -67 -256 -15 -278 q -118 -194 -118 -235 q -93 -138 -118 -165 q -43 -111 -68 -111 q 14 -143 -15 -111 q 46 -185 29 -160 q 56 -199 49 -187 q 70 -215 64 -210 q 83 -219 76 -219 q 169 13 169 -219 l 169 765 q 151 828 169 810 q 78 858 133 846 q 51 889 51 865 q 60 903 51 897 q 76 910 68 910 q 185 906 128 910 q 285 903 260 903 q 389 906 311 903 q 500 908 469 908 q 522 888 522 908 q 516 869 522 875 q 496 858 510 863 q 422 824 439 842 q 406 764 406 806 l 406 131 q 374 6 406 81 q 293 -135 343 -68 q 191 -239 244 -200 q 86 -278 138 -278 z "},"Ĵ":{"ha":522,"x_min":-118,"x_max":522,"o":"m 86 -278 q -67 -256 -15 -278 q -118 -194 -118 -235 q -93 -138 -118 -165 q -43 -111 -68 -111 q 14 -143 -15 -111 q 46 -185 29 -160 q 56 -199 49 -187 q 70 -215 64 -210 q 83 -219 76 -219 q 169 13 169 -219 l 169 765 q 151 828 169 810 q 78 858 133 846 q 51 889 51 865 q 60 903 51 897 q 76 910 68 910 q 185 906 128 910 q 285 903 260 903 q 389 906 311 903 q 500 908 469 908 q 522 888 522 908 q 516 869 522 875 q 496 858 510 863 q 422 824 439 842 q 406 764 406 806 l 406 131 q 374 6 406 81 q 293 -135 343 -68 q 191 -239 244 -200 q 86 -278 138 -278 m 81 961 q 60 966 68 961 q 53 979 53 971 q 65 1001 53 992 l 213 1135 q 253 1168 240 1160 q 285 1176 267 1176 q 317 1168 304 1176 q 358 1135 331 1160 l 504 1003 q 515 979 515 993 q 509 965 515 971 q 492 960 503 960 q 405 984 472 960 q 303 1028 338 1008 q 285 1033 296 1033 q 267 1028 274 1033 q 166 985 235 1010 q 81 961 97 961 z "},"K":{"ha":1085,"x_min":21,"x_max":1099,"o":"m 60 -8 q 34 -1 47 -8 q 21 17 21 7 q 56 47 21 40 q 124 74 108 57 q 139 135 139 92 l 139 765 q 121 828 139 810 q 47 858 103 846 q 21 889 21 865 q 29 903 21 897 q 46 910 38 910 q 154 906 97 910 q 254 903 229 903 q 358 906 281 903 q 469 908 439 908 q 492 888 492 908 q 485 869 492 875 q 465 858 479 863 q 392 824 408 842 q 375 764 375 806 l 375 476 q 390 456 375 456 q 410 465 399 456 q 424 476 421 474 l 689 765 q 715 808 715 794 q 651 853 715 839 q 625 883 625 860 q 633 898 625 892 q 650 904 642 904 l 750 904 l 881 906 q 1036 908 975 908 q 1063 903 1051 908 q 1074 888 1074 897 q 1061 868 1074 875 q 1032 858 1049 861 q 912 828 963 850 q 818 774 861 807 q 746 712 785 749 q 669 639 707 675 l 583 556 q 574 535 574 547 q 583 511 574 522 l 915 136 q 975 83 944 104 q 1056 47 1006 61 q 1071 42 1058 46 q 1091 33 1083 39 q 1099 18 1099 26 q 1084 0 1099 7 q 1042 -7 1069 -7 q 968 -6 1000 -7 q 915 -3 936 -4 q 782 3 826 3 q 686 -1 732 3 q 594 -4 628 -4 q 578 2 586 -4 q 569 17 569 8 q 596 47 569 40 q 657 88 654 58 q 633 135 657 107 l 422 385 q 389 407 404 407 q 374 385 374 407 q 378 136 374 219 q 384 92 379 107 q 405 67 389 78 q 457 47 421 57 q 483 36 475 42 q 492 18 492 31 q 479 1 492 8 q 453 -6 467 -6 q 329 1 417 -6 q 295 4 314 3 q 254 6 276 6 q 183 0 233 6 q 60 -8 119 -8 z "},"L":{"ha":814,"x_min":21,"x_max":807,"o":"m 54 -7 q 35 0 42 -7 q 28 15 28 7 q 35 32 28 24 q 56 44 43 40 q 122 75 104 58 q 139 132 139 92 l 139 765 q 121 828 139 810 q 47 858 103 846 q 21 889 21 865 q 29 903 21 897 q 46 910 38 910 q 154 906 97 910 q 254 903 229 903 q 358 906 281 903 q 469 908 439 908 q 492 888 492 908 q 485 869 492 875 q 465 858 479 863 q 392 824 408 842 q 375 764 375 806 l 375 146 q 391 92 375 108 q 443 75 407 75 l 578 75 q 674 114 631 75 q 749 226 713 150 q 770 263 763 256 q 788 271 778 271 q 802 262 797 271 q 807 242 807 253 q 805 228 807 238 q 801 210 803 219 q 772 101 781 136 q 760 19 764 67 q 736 -7 757 -7 l 615 -6 q 254 0 404 0 q 153 -4 207 0 q 54 -7 81 -7 z "},"Ĺ":{"ha":814,"x_min":21,"x_max":807,"o":"m 54 -7 q 35 0 42 -7 q 28 15 28 7 q 35 32 28 24 q 56 44 43 40 q 122 75 104 58 q 139 132 139 92 l 139 765 q 121 828 139 810 q 47 858 103 846 q 21 889 21 865 q 29 903 21 897 q 46 910 38 910 q 154 906 97 910 q 254 903 229 903 q 358 906 281 903 q 469 908 439 908 q 492 888 492 908 q 485 869 492 875 q 465 858 479 863 q 392 824 408 842 q 375 764 375 806 l 375 146 q 391 92 375 108 q 443 75 407 75 l 578 75 q 674 114 631 75 q 749 226 713 150 q 770 263 763 256 q 788 271 778 271 q 802 262 797 271 q 807 242 807 253 q 805 228 807 238 q 801 210 803 219 q 772 101 781 136 q 760 19 764 67 q 736 -7 757 -7 l 615 -6 q 254 0 404 0 q 153 -4 207 0 q 54 -7 81 -7 m 190 946 q 172 960 172 950 q 189 990 172 969 q 344 1167 272 1094 q 393 1182 364 1186 q 458 1160 417 1179 q 496 1125 500 1140 q 468 1094 492 1110 q 335 1018 401 1054 l 228 957 q 206 947 217 950 q 190 946 194 944 z "},"Ľ":{"ha":814,"x_min":21,"x_max":807,"o":"m 54 -7 q 35 0 42 -7 q 28 15 28 7 q 35 32 28 24 q 56 44 43 40 q 122 75 104 58 q 139 132 139 92 l 139 765 q 121 828 139 810 q 47 858 103 846 q 21 889 21 865 q 29 903 21 897 q 46 910 38 910 q 154 906 97 910 q 254 903 229 903 q 358 906 281 903 q 469 908 439 908 q 492 888 492 908 q 485 869 492 875 q 465 858 479 863 q 392 824 408 842 q 375 764 375 806 l 375 146 q 391 92 375 108 q 443 75 407 75 l 578 75 q 674 114 631 75 q 749 226 713 150 q 770 263 763 256 q 788 271 778 271 q 802 262 797 271 q 807 242 807 253 q 805 228 807 238 q 801 210 803 219 q 772 101 781 136 q 760 19 764 67 q 736 -7 757 -7 l 615 -6 q 254 0 404 0 q 153 -4 207 0 q 54 -7 81 -7 m 581 588 q 567 599 572 588 q 563 624 563 610 l 565 658 q 568 693 567 674 q 569 731 569 713 q 563 817 569 761 q 558 854 558 838 q 598 908 558 881 q 675 936 638 936 q 701 924 696 936 q 707 885 707 911 q 682 760 707 839 q 628 632 657 681 q 581 588 601 588 z "},"Ŀ":{"ha":814,"x_min":21,"x_max":807,"o":"m 54 -7 q 35 0 42 -7 q 28 15 28 7 q 35 32 28 24 q 56 44 43 40 q 122 75 104 58 q 139 132 139 92 l 139 765 q 121 828 139 810 q 47 858 103 846 q 21 889 21 865 q 29 903 21 897 q 46 910 38 910 q 154 906 97 910 q 254 903 229 903 q 358 906 281 903 q 469 908 439 908 q 492 888 492 908 q 485 869 492 875 q 465 858 479 863 q 392 824 408 842 q 375 764 375 806 l 375 146 q 391 92 375 108 q 443 75 407 75 l 578 75 q 674 114 631 75 q 749 226 713 150 q 770 263 763 256 q 788 271 778 271 q 802 262 797 271 q 807 242 807 253 q 805 228 807 238 q 801 210 803 219 q 772 101 781 136 q 760 19 764 67 q 736 -7 757 -7 l 615 -6 q 254 0 404 0 q 153 -4 207 0 q 54 -7 81 -7 m 599 369 q 517 404 551 369 q 482 486 482 439 q 516 572 482 538 q 599 607 550 607 q 685 572 650 607 q 719 486 719 538 q 685 403 719 438 q 599 369 650 369 z "},"Ł":{"ha":814,"x_min":21,"x_max":807,"o":"m 788 271 q 802 262 797 271 q 807 242 807 253 q 805 228 807 238 q 801 210 803 219 q 772 101 781 136 q 760 19 764 67 q 736 -7 757 -7 l 615 -6 q 254 0 404 0 q 153 -4 207 0 q 54 -7 81 -7 q 35 0 42 -7 q 28 15 28 7 q 35 32 28 24 q 56 44 43 40 q 122 75 104 58 q 139 132 139 92 l 139 368 l 82 349 q 63 346 68 346 q 38 365 38 346 q 47 410 38 390 q 74 436 57 431 l 139 458 l 139 765 q 121 828 139 810 q 47 858 103 846 q 21 889 21 865 q 29 903 21 897 q 46 910 38 910 q 154 906 97 910 q 254 903 229 903 q 358 906 281 903 q 469 908 439 908 q 492 888 492 908 q 485 869 492 875 q 465 858 479 863 q 392 824 408 842 q 375 764 375 806 l 375 524 l 517 572 q 529 574 521 574 q 548 567 540 574 q 556 550 556 561 q 545 504 556 522 q 508 478 535 486 l 375 433 l 375 146 q 391 92 375 108 q 443 75 407 75 l 578 75 q 674 114 631 75 q 749 226 713 150 q 770 263 763 256 q 788 271 778 271 z "},"M":{"ha":1279,"x_min":28,"x_max":1251,"o":"m 60 -4 q 28 17 28 -4 q 34 29 28 25 q 50 36 40 33 q 65 42 60 39 q 123 83 100 56 q 151 151 146 111 q 178 419 163 231 q 199 653 194 607 l 204 717 q 206 764 206 725 q 169 832 206 813 q 97 861 131 853 q 60 892 60 871 q 96 914 60 914 l 199 911 q 372 907 361 907 q 392 899 382 907 q 406 882 403 890 q 444 781 429 817 l 644 310 q 651 304 647 304 q 656 310 654 304 l 838 747 q 867 881 857 851 q 890 899 872 899 l 953 899 q 1026 903 994 900 q 1079 907 1058 906 q 1188 914 1151 914 q 1224 892 1224 914 q 1216 875 1224 881 q 1192 864 1208 869 q 1174 857 1182 861 q 1163 851 1167 853 q 1101 806 1118 831 q 1086 732 1083 782 q 1117 193 1097 479 l 1121 136 q 1221 47 1126 74 q 1244 36 1236 42 q 1251 18 1251 31 q 1244 3 1251 8 q 1225 -3 1236 -3 l 1108 0 l 1000 3 q 900 0 975 3 q 792 -4 844 -4 q 771 1 779 -4 q 763 17 763 7 q 793 47 763 40 q 867 77 847 60 q 885 135 886 94 q 874 429 879 226 q 867 633 872 510 q 863 640 867 640 q 854 631 858 640 l 601 4 q 581 -14 594 -14 q 558 1 567 -14 q 501 126 528 69 q 453 228 474 182 q 274 624 329 486 q 263 633 269 633 q 249 611 251 633 q 244 439 244 539 l 246 278 q 247 144 247 229 q 272 83 247 106 q 353 47 297 61 q 390 18 390 38 q 380 3 390 8 q 357 -3 369 -3 q 274 0 315 -3 l 214 1 q 124 -1 174 1 q 60 -4 75 -3 z "},"N":{"ha":1129,"x_min":14,"x_max":1115,"o":"m 949 -26 q 884 -2 925 -26 q 801 72 843 22 l 261 646 q 246 660 251 660 q 236 633 236 660 q 240 404 236 532 q 243 290 242 354 q 244 157 244 226 q 273 86 244 111 q 360 47 301 61 q 397 18 397 38 q 387 3 397 8 q 364 -3 376 -3 q 272 0 319 -3 l 204 1 q 125 -1 164 1 q 75 -4 86 -3 q 54 2 65 -4 q 43 17 43 8 q 51 34 43 28 q 76 47 60 40 q 146 160 139 72 q 175 706 175 468 q 144 804 175 771 q 51 861 113 838 q 14 892 14 871 q 50 914 14 914 l 156 911 q 332 907 322 907 q 360 893 350 907 l 872 325 q 892 308 886 308 q 903 328 903 308 l 903 474 q 899 768 903 690 q 872 825 897 807 q 790 858 847 843 q 758 888 758 867 q 767 902 758 896 q 788 908 776 908 l 878 907 q 935 906 896 906 l 999 907 q 1082 910 1043 910 q 1106 904 1097 910 q 1115 889 1115 899 q 1081 860 1115 867 q 1010 831 1031 850 q 989 772 989 813 q 979 456 989 689 q 972 236 972 319 q 977 158 972 204 q 983 97 982 111 q 989 42 989 44 q 949 -26 989 -26 z "},"Ń":{"ha":1129,"x_min":14,"x_max":1115,"o":"m 949 -26 q 884 -2 925 -26 q 801 72 843 22 l 261 646 q 246 660 251 660 q 236 633 236 660 q 240 404 236 532 q 243 290 242 354 q 244 157 244 226 q 273 86 244 111 q 360 47 301 61 q 397 18 397 38 q 387 3 397 8 q 364 -3 376 -3 q 272 0 319 -3 l 204 1 q 125 -1 164 1 q 75 -4 86 -3 q 54 2 65 -4 q 43 17 43 8 q 51 34 43 28 q 76 47 60 40 q 146 160 139 72 q 175 706 175 468 q 144 804 175 771 q 51 861 113 838 q 14 892 14 871 q 50 914 14 914 l 156 911 q 332 907 322 907 q 360 893 350 907 l 872 325 q 892 308 886 308 q 903 328 903 308 l 903 474 q 899 768 903 690 q 872 825 897 807 q 790 858 847 843 q 758 888 758 867 q 767 902 758 896 q 788 908 776 908 l 878 907 q 935 906 896 906 l 999 907 q 1082 910 1043 910 q 1106 904 1097 910 q 1115 889 1115 899 q 1081 860 1115 867 q 1010 831 1031 850 q 989 772 989 813 q 979 456 989 689 q 972 236 972 319 q 977 158 972 204 q 983 97 982 111 q 989 42 989 44 q 949 -26 989 -26 m 525 946 q 507 960 507 950 q 524 990 507 969 q 679 1167 607 1094 q 728 1182 699 1186 q 793 1160 751 1179 q 831 1125 835 1140 q 803 1094 826 1110 q 669 1018 736 1054 l 563 957 q 540 947 551 950 q 525 946 529 944 z "},"Ň":{"ha":1129,"x_min":14,"x_max":1115,"o":"m 949 -26 q 884 -2 925 -26 q 801 72 843 22 l 261 646 q 246 660 251 660 q 236 633 236 660 q 240 404 236 532 q 243 290 242 354 q 244 157 244 226 q 273 86 244 111 q 360 47 301 61 q 397 18 397 38 q 387 3 397 8 q 364 -3 376 -3 q 272 0 319 -3 l 204 1 q 125 -1 164 1 q 75 -4 86 -3 q 54 2 65 -4 q 43 17 43 8 q 51 34 43 28 q 76 47 60 40 q 146 160 139 72 q 175 706 175 468 q 144 804 175 771 q 51 861 113 838 q 14 892 14 871 q 50 914 14 914 l 156 911 q 332 907 322 907 q 360 893 350 907 l 872 325 q 892 308 886 308 q 903 328 903 308 l 903 474 q 899 768 903 690 q 872 825 897 807 q 790 858 847 843 q 758 888 758 867 q 767 902 758 896 q 788 908 776 908 l 878 907 q 935 906 896 906 l 999 907 q 1082 910 1043 910 q 1106 904 1097 910 q 1115 889 1115 899 q 1081 860 1115 867 q 1010 831 1031 850 q 989 772 989 813 q 979 456 989 689 q 972 236 972 319 q 977 158 972 204 q 983 97 982 111 q 989 42 989 44 q 949 -26 989 -26 m 392 1185 q 477 1160 408 1185 q 578 1118 546 1136 q 596 1113 589 1113 q 614 1118 603 1113 q 716 1162 649 1138 q 803 1186 783 1186 q 820 1181 814 1186 q 826 1167 826 1175 q 815 1143 826 1153 l 669 1011 q 628 978 642 986 q 596 969 615 969 q 565 978 578 969 q 524 1011 551 986 l 376 1144 q 364 1167 364 1156 q 372 1180 364 1175 q 392 1185 379 1185 z "},"Ŋ":{"ha":1104,"x_min":14,"x_max":1090,"o":"m 732 -382 q 644 -349 678 -382 q 611 -262 611 -315 q 620 -233 611 -240 q 657 -224 629 -226 q 822 -183 776 -217 q 867 -85 867 -149 q 838 -10 867 -44 q 578 286 738 108 q 447 434 544 324 q 288 618 350 544 q 272 632 278 632 q 263 606 263 632 q 257 157 257 356 q 285 86 257 111 q 372 47 314 61 q 410 18 410 38 q 399 3 410 8 q 376 -3 389 -3 q 285 0 332 -3 l 217 1 q 132 -1 176 1 q 75 -4 88 -3 q 54 2 65 -4 q 43 17 43 8 q 51 34 43 28 q 76 47 60 40 q 146 160 139 72 q 161 401 154 250 q 168 708 168 551 q 140 806 168 775 q 51 861 111 838 q 14 892 14 871 q 50 914 14 914 l 158 911 q 340 907 333 907 q 368 893 358 907 q 600 614 450 797 l 832 333 q 851 317 846 317 q 863 336 863 317 l 863 397 q 865 760 865 542 q 842 823 865 800 q 765 858 818 846 q 733 888 733 867 q 742 902 733 896 q 763 908 751 908 l 853 907 q 910 906 871 906 l 974 907 q 1057 910 1018 910 q 1081 904 1072 910 q 1090 889 1090 899 q 1056 860 1090 867 q 985 831 1006 850 q 964 772 964 813 l 960 49 q 931 -162 960 -62 q 849 -322 901 -261 q 732 -382 796 -382 z "},"Ñ":{"ha":1129,"x_min":14,"x_max":1115,"o":"m 949 -26 q 884 -2 925 -26 q 801 72 843 22 l 261 646 q 246 660 251 660 q 236 633 236 660 q 240 404 236 532 q 243 290 242 354 q 244 157 244 226 q 273 86 244 111 q 360 47 301 61 q 397 18 397 38 q 387 3 397 8 q 364 -3 376 -3 q 272 0 319 -3 l 204 1 q 125 -1 164 1 q 75 -4 86 -3 q 54 2 65 -4 q 43 17 43 8 q 51 34 43 28 q 76 47 60 40 q 146 160 139 72 q 175 706 175 468 q 144 804 175 771 q 51 861 113 838 q 14 892 14 871 q 50 914 14 914 l 156 911 q 332 907 322 907 q 360 893 350 907 l 872 325 q 892 308 886 308 q 903 328 903 308 l 903 474 q 899 768 903 690 q 872 825 897 807 q 790 858 847 843 q 758 888 758 867 q 767 902 758 896 q 788 908 776 908 l 878 907 q 935 906 896 906 l 999 907 q 1082 910 1043 910 q 1106 904 1097 910 q 1115 889 1115 899 q 1081 860 1115 867 q 1010 831 1031 850 q 989 772 989 813 q 979 456 989 689 q 972 236 972 319 q 977 158 972 204 q 983 97 982 111 q 989 42 989 44 q 949 -26 989 -26 m 396 960 q 379 969 389 960 q 369 982 369 978 q 392 1028 369 992 q 440 1096 414 1065 q 476 1126 465 1126 q 543 1124 496 1126 q 596 1121 576 1121 l 625 1119 q 718 1117 681 1117 q 767 1144 742 1117 q 783 1164 774 1153 q 794 1175 792 1175 q 814 1165 801 1175 q 826 1149 826 1154 q 819 1132 826 1143 q 801 1106 813 1121 q 769 1056 779 1072 q 757 1036 763 1044 q 747 1021 751 1028 q 704 1001 735 1001 q 588 1010 690 1001 q 461 1018 479 1018 q 421 989 444 1018 q 396 960 400 960 z "},"O":{"ha":1054,"x_min":35,"x_max":1019,"o":"m 521 -19 q 280 38 392 -19 q 101 200 168 96 q 35 438 35 304 q 93 676 35 565 q 265 855 151 788 q 533 922 378 922 q 774 865 663 922 q 953 703 886 807 q 1019 465 1019 599 q 961 226 1019 338 q 790 48 903 115 q 521 -19 676 -19 m 546 46 q 710 140 653 46 q 768 393 768 235 q 740 617 768 511 q 652 789 711 722 q 506 856 593 856 q 342 761 399 856 q 286 510 286 667 q 315 287 286 393 q 401 113 343 181 q 546 46 460 46 z "},"Ó":{"ha":1054,"x_min":35,"x_max":1019,"o":"m 521 -19 q 280 38 392 -19 q 101 200 168 96 q 35 438 35 304 q 93 676 35 565 q 265 855 151 788 q 533 922 378 922 q 774 865 663 922 q 953 703 886 807 q 1019 465 1019 599 q 961 226 1019 338 q 790 48 903 115 q 521 -19 676 -19 m 546 46 q 710 140 653 46 q 768 393 768 235 q 740 617 768 511 q 652 789 711 722 q 506 856 593 856 q 342 761 399 856 q 286 510 286 667 q 315 287 286 393 q 401 113 343 181 q 546 46 460 46 m 474 946 q 456 960 456 950 q 472 990 456 969 q 628 1167 556 1094 q 676 1182 647 1186 q 742 1160 700 1179 q 779 1125 783 1140 q 751 1094 775 1110 q 618 1018 685 1054 l 511 957 q 489 947 500 950 q 474 946 478 944 z "},"Ŏ":{"ha":1054,"x_min":35,"x_max":1019,"o":"m 521 -19 q 280 38 392 -19 q 101 200 168 96 q 35 438 35 304 q 93 676 35 565 q 265 855 151 788 q 533 922 378 922 q 774 865 663 922 q 953 703 886 807 q 1019 465 1019 599 q 961 226 1019 338 q 790 48 903 115 q 521 -19 676 -19 m 546 46 q 710 140 653 46 q 768 393 768 235 q 740 617 768 511 q 652 789 711 722 q 506 856 593 856 q 342 761 399 856 q 286 510 286 667 q 315 287 286 393 q 401 113 343 181 q 546 46 460 46 m 544 951 q 432 981 478 951 q 363 1051 386 1010 q 340 1129 340 1092 q 344 1158 340 1150 q 360 1167 347 1167 q 376 1162 369 1167 q 390 1149 383 1157 q 401 1136 397 1140 q 465 1086 435 1100 q 544 1072 496 1072 q 624 1086 593 1072 q 688 1136 654 1100 q 700 1149 692 1140 q 715 1163 708 1158 q 729 1167 721 1167 q 745 1158 742 1167 q 749 1129 749 1150 q 726 1051 749 1092 q 657 981 703 1010 q 544 951 611 951 z "},"Ô":{"ha":1054,"x_min":35,"x_max":1019,"o":"m 521 -19 q 280 38 392 -19 q 101 200 168 96 q 35 438 35 304 q 93 676 35 565 q 265 855 151 788 q 533 922 378 922 q 774 865 663 922 q 953 703 886 807 q 1019 465 1019 599 q 961 226 1019 338 q 790 48 903 115 q 521 -19 676 -19 m 546 46 q 710 140 653 46 q 768 393 768 235 q 740 617 768 511 q 652 789 711 722 q 506 856 593 856 q 342 761 399 856 q 286 510 286 667 q 315 287 286 393 q 401 113 343 181 q 546 46 460 46 m 340 961 q 320 966 328 961 q 313 979 313 971 q 325 1001 313 992 l 472 1135 q 513 1168 500 1160 q 544 1176 526 1176 q 577 1168 564 1176 q 618 1135 590 1160 l 764 1003 q 775 979 775 993 q 769 965 775 971 q 751 960 763 960 q 665 984 732 960 q 563 1028 597 1008 q 544 1033 556 1033 q 526 1028 533 1033 q 426 985 494 1010 q 340 961 357 961 z "},"Ö":{"ha":1054,"x_min":35,"x_max":1019,"o":"m 521 -19 q 280 38 392 -19 q 101 200 168 96 q 35 438 35 304 q 93 676 35 565 q 265 855 151 788 q 533 922 378 922 q 774 865 663 922 q 953 703 886 807 q 1019 465 1019 599 q 961 226 1019 338 q 790 48 903 115 q 521 -19 676 -19 m 546 46 q 710 140 653 46 q 768 393 768 235 q 740 617 768 511 q 652 789 711 722 q 506 856 593 856 q 342 761 399 856 q 286 510 286 667 q 315 287 286 393 q 401 113 343 181 q 546 46 460 46 m 406 953 q 331 984 363 953 q 300 1058 300 1015 q 331 1135 300 1104 q 406 1165 361 1165 q 485 1135 453 1165 q 517 1058 517 1104 q 484 984 517 1015 q 406 953 451 953 m 681 953 q 606 984 638 953 q 575 1058 575 1015 q 606 1135 575 1104 q 681 1165 636 1165 q 760 1135 728 1165 q 792 1058 792 1104 q 759 984 792 1015 q 681 953 726 953 z "},"Ò":{"ha":1054,"x_min":35,"x_max":1019,"o":"m 521 -19 q 280 38 392 -19 q 101 200 168 96 q 35 438 35 304 q 93 676 35 565 q 265 855 151 788 q 533 922 378 922 q 774 865 663 922 q 953 703 886 807 q 1019 465 1019 599 q 961 226 1019 338 q 790 48 903 115 q 521 -19 676 -19 m 546 46 q 710 140 653 46 q 768 393 768 235 q 740 617 768 511 q 652 789 711 722 q 506 856 593 856 q 342 761 399 856 q 286 510 286 667 q 315 287 286 393 q 401 113 343 181 q 546 46 460 46 m 579 946 q 544 957 563 946 l 438 1018 q 304 1094 371 1054 q 276 1125 281 1110 q 314 1160 272 1140 q 379 1182 356 1179 l 390 1183 q 428 1167 411 1183 q 583 990 500 1094 q 600 960 600 969 q 582 946 600 950 l 579 946 z "},"Ơ":{"ha":1054,"x_min":35,"x_max":1101,"o":"m 521 -19 q 280 38 392 -19 q 101 200 168 96 q 35 438 35 304 q 94 676 35 565 q 266 855 153 788 q 533 922 379 922 q 679 903 619 922 q 801 850 739 883 l 836 831 q 925 790 897 790 q 957 804 946 790 q 968 836 968 818 q 931 886 968 864 q 917 894 928 888 q 901 908 907 900 q 896 931 896 917 q 918 971 896 949 q 972 1008 940 993 q 1025 1024 1003 1024 q 1077 983 1053 1024 q 1101 903 1101 943 q 1060 788 1101 838 q 951 722 1019 738 q 936 714 940 719 q 938 703 932 708 q 1001 593 982 650 q 1019 465 1019 536 q 961 226 1019 338 q 790 48 903 115 q 521 -19 676 -19 m 546 51 q 711 144 654 51 q 768 393 768 236 q 740 615 768 511 q 652 785 711 719 q 506 850 593 850 q 342 758 399 850 q 286 510 286 667 q 315 288 286 393 q 401 117 343 183 q 546 51 460 51 z "},"Ő":{"ha":1054,"x_min":35,"x_max":1019,"o":"m 521 -19 q 280 38 392 -19 q 101 200 168 96 q 35 438 35 304 q 93 676 35 565 q 265 855 151 788 q 533 922 378 922 q 774 865 663 922 q 953 703 886 807 q 1019 465 1019 599 q 961 226 1019 338 q 790 48 903 115 q 521 -19 676 -19 m 546 46 q 710 140 653 46 q 768 393 768 235 q 740 617 768 511 q 652 789 711 722 q 506 856 593 856 q 342 761 399 856 q 286 510 286 667 q 315 287 286 393 q 401 113 343 181 q 546 46 460 46 m 579 946 q 561 960 561 950 q 578 990 561 969 q 733 1167 661 1094 q 782 1182 753 1186 q 847 1160 806 1179 q 885 1125 889 1140 q 857 1094 881 1110 q 724 1018 790 1054 l 617 957 q 594 947 606 950 q 579 946 583 944 m 346 946 q 328 960 328 950 q 344 990 328 969 q 500 1167 428 1094 q 549 1182 519 1186 q 614 1160 572 1179 q 651 1125 656 1140 q 624 1094 647 1110 q 490 1018 557 1054 l 383 957 q 361 947 372 950 q 346 946 350 944 z "},"Ō":{"ha":1054,"x_min":35,"x_max":1019,"o":"m 521 -19 q 280 38 392 -19 q 101 200 168 96 q 35 438 35 304 q 93 676 35 565 q 265 855 151 788 q 533 922 378 922 q 774 865 663 922 q 953 703 886 807 q 1019 465 1019 599 q 961 226 1019 338 q 790 48 903 115 q 521 -19 676 -19 m 546 46 q 710 140 653 46 q 768 393 768 235 q 740 617 768 511 q 652 789 711 722 q 506 856 593 856 q 342 761 399 856 q 286 510 286 667 q 315 287 286 393 q 401 113 343 181 q 546 46 460 46 m 344 994 q 324 1002 332 994 q 315 1021 315 1010 q 333 1088 315 1061 q 371 1114 350 1114 l 746 1114 q 766 1106 758 1114 q 774 1088 774 1099 q 756 1023 774 1051 q 714 994 738 994 l 344 994 z "},"Ø":{"ha":1054,"x_min":35,"x_max":1022,"o":"m 925 740 q 1019 465 1019 624 q 961 226 1019 338 q 790 48 903 115 q 521 -19 676 -19 q 361 5 438 -19 q 221 75 285 29 l 132 -10 q 108 -19 122 -19 q 60 -3 82 -19 q 38 32 38 13 q 63 83 38 61 l 136 153 q 61 283 88 211 q 35 438 35 356 q 93 676 35 565 q 265 855 151 788 q 533 922 378 922 q 703 894 621 922 q 851 815 785 867 l 954 911 q 981 922 964 922 q 1001 917 992 922 q 1014 901 1010 911 q 1022 863 1022 879 q 1004 815 1022 832 l 925 740 m 286 510 q 308 311 286 404 l 714 689 q 628 811 681 767 q 506 856 576 856 q 342 761 399 856 q 286 510 286 667 m 768 393 q 750 575 768 490 l 349 194 q 431 85 382 125 q 546 46 481 46 q 710 140 653 46 q 768 393 768 235 z "},"Ǿ":{"ha":1054,"x_min":35,"x_max":1022,"o":"m 925 740 q 1019 465 1019 624 q 961 226 1019 338 q 790 48 903 115 q 521 -19 676 -19 q 361 5 438 -19 q 221 75 285 29 l 132 -10 q 108 -19 122 -19 q 60 -3 82 -19 q 38 32 38 13 q 63 83 38 61 l 136 153 q 61 283 88 211 q 35 438 35 356 q 93 676 35 565 q 265 855 151 788 q 533 922 378 922 q 703 894 621 922 q 851 815 785 867 l 954 911 q 981 922 964 922 q 1001 917 992 922 q 1014 901 1010 911 q 1022 863 1022 879 q 1004 815 1022 832 l 925 740 m 286 510 q 308 311 286 404 l 714 689 q 628 811 681 767 q 506 856 576 856 q 342 761 399 856 q 286 510 286 667 m 768 393 q 750 575 768 490 l 349 194 q 431 85 382 125 q 546 46 481 46 q 710 140 653 46 q 768 393 768 235 m 474 946 q 456 960 456 950 q 472 990 456 969 q 628 1167 556 1094 q 676 1182 647 1186 q 742 1160 700 1179 q 779 1125 783 1140 q 751 1094 775 1110 q 618 1018 685 1054 l 511 957 q 489 947 500 950 q 474 946 478 944 z "},"Õ":{"ha":1054,"x_min":35,"x_max":1019,"o":"m 521 -19 q 280 38 392 -19 q 101 200 168 96 q 35 438 35 304 q 93 676 35 565 q 265 855 151 788 q 533 922 378 922 q 774 865 663 922 q 953 703 886 807 q 1019 465 1019 599 q 961 226 1019 338 q 790 48 903 115 q 521 -19 676 -19 m 546 46 q 710 140 653 46 q 768 393 768 235 q 740 617 768 511 q 652 789 711 722 q 506 856 593 856 q 342 761 399 856 q 286 510 286 667 q 315 287 286 393 q 401 113 343 181 q 546 46 460 46 m 344 960 q 328 969 338 960 q 318 982 318 978 q 340 1028 318 992 q 388 1096 363 1065 q 425 1126 414 1126 q 492 1124 444 1126 q 544 1121 525 1121 l 574 1119 q 667 1117 629 1117 q 715 1144 690 1117 q 731 1164 722 1153 q 743 1175 740 1175 q 763 1165 750 1175 q 775 1149 775 1154 q 768 1132 775 1143 q 750 1106 761 1121 q 718 1056 728 1072 q 706 1036 711 1044 q 696 1021 700 1028 q 653 1001 683 1001 q 536 1010 639 1001 q 410 1018 428 1018 q 369 989 393 1018 q 344 960 349 960 z "},"Œ":{"ha":1382,"x_min":35,"x_max":1363,"o":"m 1349 222 q 1363 194 1363 222 q 1356 140 1363 169 q 1333 64 1349 111 l 1318 11 q 1285 -6 1313 -6 l 1231 -4 q 829 0 960 0 q 722 -4 781 0 q 646 -7 669 -7 q 521 -19 588 -19 q 280 38 392 -19 q 101 200 168 96 q 35 438 35 304 q 93 676 35 565 q 265 855 151 788 q 533 922 378 922 q 650 910 594 922 q 732 907 676 910 q 829 903 783 903 q 1153 907 1015 903 q 1226 913 1196 907 q 1260 918 1256 918 q 1283 911 1272 918 q 1296 889 1294 904 q 1308 804 1300 843 q 1319 701 1319 726 q 1315 681 1319 689 q 1301 674 1310 674 q 1285 680 1293 674 q 1272 697 1278 686 q 1242 768 1251 749 q 1218 801 1232 788 q 1175 833 1199 821 q 1117 846 1151 846 l 1029 846 q 972 828 994 846 q 950 782 950 811 l 950 526 q 986 493 950 493 l 1104 493 q 1152 514 1136 493 q 1185 579 1168 535 q 1214 604 1196 604 q 1226 595 1221 604 q 1231 572 1232 586 q 1224 457 1224 506 q 1229 342 1224 397 l 1229 331 q 1215 303 1229 303 q 1196 313 1206 303 q 1182 336 1186 322 q 1153 406 1169 383 q 1111 428 1136 428 l 981 428 q 950 396 950 428 l 950 133 q 966 79 950 96 q 1018 63 982 63 l 1142 63 q 1243 94 1206 63 q 1322 206 1283 128 q 1349 222 1331 222 m 289 478 q 353 173 289 288 q 536 58 418 58 q 670 90 626 58 q 714 207 714 121 l 714 643 q 660 797 714 751 q 515 843 606 843 q 347 746 406 843 q 289 478 289 649 z "},"P":{"ha":860,"x_min":21,"x_max":825,"o":"m 46 -4 q 29 2 38 -4 q 21 17 21 8 q 47 47 21 40 q 120 76 101 58 q 139 135 139 93 l 139 765 q 122 828 139 810 q 56 858 106 847 q 26 888 26 865 q 34 903 26 897 q 54 910 42 910 q 158 906 104 910 q 254 903 228 903 q 331 908 281 903 q 454 917 392 917 q 725 844 625 917 q 825 644 825 771 q 786 480 825 554 q 671 362 747 406 q 483 318 594 318 q 427 329 447 318 q 407 357 407 340 q 416 373 407 367 q 433 379 425 379 q 460 376 444 379 q 489 372 476 372 q 568 435 540 372 q 596 604 596 499 q 560 792 596 733 q 454 851 524 851 q 376 778 376 851 l 375 136 q 398 78 375 94 q 483 47 421 61 q 503 38 497 44 q 510 18 510 31 q 488 -3 510 -3 l 367 0 l 254 3 q 154 0 229 3 q 46 -4 99 -4 z "},"Þ":{"ha":829,"x_min":21,"x_max":801,"o":"m 46 -4 q 29 2 38 -4 q 21 17 21 8 q 47 47 21 40 q 120 76 101 58 q 139 135 139 93 l 139 765 q 121 828 139 810 q 47 858 103 846 q 21 889 21 865 q 29 903 21 897 q 46 910 38 910 q 154 906 97 910 q 254 903 229 903 q 358 906 281 903 q 469 908 439 908 q 492 888 492 908 q 485 869 492 875 q 465 858 479 863 q 394 828 413 843 q 375 779 376 813 l 375 767 q 376 760 375 763 q 383 757 378 757 q 406 762 392 758 q 415 765 421 765 q 524 776 461 776 q 663 744 600 776 q 764 648 726 713 q 801 489 801 583 q 753 323 801 393 q 624 215 706 253 q 442 178 542 178 q 411 180 426 178 q 386 182 396 182 q 375 169 375 182 l 375 136 q 393 80 375 97 q 465 47 411 63 q 485 37 479 43 q 492 18 492 31 q 469 -3 492 -3 q 358 0 439 -3 q 254 3 281 3 q 154 0 229 3 q 46 -4 99 -4 m 425 236 q 535 294 501 236 q 569 465 569 351 q 538 645 569 579 q 453 711 506 711 q 395 687 415 711 q 375 606 375 663 l 375 331 q 425 236 375 236 z "},"Q":{"ha":1054,"x_min":35,"x_max":1229,"o":"m 1008 -344 q 835 -316 926 -344 q 672 -236 743 -287 q 574 -165 613 -194 q 494 -97 536 -135 q 460 -65 486 -90 q 403 -19 435 -40 q 338 15 372 3 q 127 158 219 57 q 35 438 35 260 q 93 676 35 565 q 265 855 151 788 q 533 922 378 922 q 774 865 663 922 q 953 703 886 807 q 1019 465 1019 599 q 946 201 1019 321 q 738 22 872 81 q 722 7 722 18 q 729 -7 722 0 q 874 -135 793 -69 q 1111 -240 1000 -240 q 1154 -237 1132 -240 q 1186 -235 1176 -235 q 1229 -267 1229 -235 q 1223 -288 1229 -279 q 1201 -307 1217 -297 q 1123 -335 1174 -325 q 1008 -344 1072 -344 m 546 50 q 711 140 654 50 q 768 393 768 231 q 740 618 768 514 q 652 786 711 722 q 506 850 593 850 q 342 760 399 850 q 286 510 286 671 q 314 284 286 389 q 401 115 342 179 q 546 50 460 50 z "},"R":{"ha":1069,"x_min":21,"x_max":1076,"o":"m 899 -29 q 731 7 792 -29 q 619 110 669 43 q 531 240 569 178 q 456 382 492 303 q 422 424 442 413 q 389 433 407 433 q 375 406 375 433 l 375 136 q 398 78 375 94 q 483 47 421 61 q 503 38 497 44 q 510 18 510 31 q 488 -3 510 -3 l 367 0 l 254 3 q 154 0 229 3 q 46 -4 99 -4 q 29 2 38 -4 q 21 17 21 8 q 47 47 21 40 q 120 76 101 58 q 139 135 139 93 l 139 765 q 122 828 139 810 q 56 858 106 847 q 26 888 26 865 q 34 903 26 897 q 54 910 42 910 q 165 904 104 910 q 253 899 221 899 q 329 904 279 899 q 453 913 390 913 q 708 857 619 913 q 796 690 796 801 q 743 553 796 606 q 614 479 690 501 q 610 472 610 478 q 613 463 610 467 q 740 282 682 358 q 854 153 799 206 q 944 101 897 113 q 1056 90 990 90 q 1076 64 1076 90 q 899 -29 1076 -29 m 424 481 q 533 528 496 481 q 569 657 569 575 q 533 801 569 754 q 429 847 497 847 q 388 822 400 847 q 375 719 375 796 l 375 533 q 424 481 375 481 z "},"Ŕ":{"ha":1069,"x_min":21,"x_max":1076,"o":"m 899 -29 q 731 7 792 -29 q 619 110 669 43 q 531 240 569 178 q 456 382 492 303 q 422 424 442 413 q 389 433 407 433 q 375 406 375 433 l 375 136 q 398 78 375 94 q 483 47 421 61 q 503 38 497 44 q 510 18 510 31 q 488 -3 510 -3 l 367 0 l 254 3 q 154 0 229 3 q 46 -4 99 -4 q 29 2 38 -4 q 21 17 21 8 q 47 47 21 40 q 120 76 101 58 q 139 135 139 93 l 139 765 q 122 828 139 810 q 56 858 106 847 q 26 888 26 865 q 34 903 26 897 q 54 910 42 910 q 165 904 104 910 q 253 899 221 899 q 329 904 279 899 q 453 913 390 913 q 708 857 619 913 q 796 690 796 801 q 743 553 796 606 q 614 479 690 501 q 610 472 610 478 q 613 463 610 467 q 740 282 682 358 q 854 153 799 206 q 944 101 897 113 q 1056 90 990 90 q 1076 64 1076 90 q 899 -29 1076 -29 m 424 481 q 533 528 496 481 q 569 657 569 575 q 533 801 569 754 q 429 847 497 847 q 388 822 400 847 q 375 719 375 796 l 375 533 q 424 481 375 481 m 378 946 q 360 960 360 950 q 376 990 360 969 q 532 1167 460 1094 q 581 1182 551 1186 q 646 1160 604 1179 q 683 1125 688 1140 q 656 1094 679 1110 q 522 1018 589 1054 l 415 957 q 393 947 404 950 q 378 946 382 944 z "},"Ř":{"ha":1069,"x_min":21,"x_max":1076,"o":"m 899 -29 q 731 7 792 -29 q 619 110 669 43 q 531 240 569 178 q 456 382 492 303 q 422 424 442 413 q 389 433 407 433 q 375 406 375 433 l 375 136 q 398 78 375 94 q 483 47 421 61 q 503 38 497 44 q 510 18 510 31 q 488 -3 510 -3 l 367 0 l 254 3 q 154 0 229 3 q 46 -4 99 -4 q 29 2 38 -4 q 21 17 21 8 q 47 47 21 40 q 120 76 101 58 q 139 135 139 93 l 139 765 q 122 828 139 810 q 56 858 106 847 q 26 888 26 865 q 34 903 26 897 q 54 910 42 910 q 165 904 104 910 q 253 899 221 899 q 329 904 279 899 q 453 913 390 913 q 708 857 619 913 q 796 690 796 801 q 743 553 796 606 q 614 479 690 501 q 610 472 610 478 q 613 463 610 467 q 740 282 682 358 q 854 153 799 206 q 944 101 897 113 q 1056 90 990 90 q 1076 64 1076 90 q 899 -29 1076 -29 m 424 481 q 533 528 496 481 q 569 657 569 575 q 533 801 569 754 q 429 847 497 847 q 388 822 400 847 q 375 719 375 796 l 375 533 q 424 481 375 481 m 244 1185 q 330 1160 261 1185 q 431 1118 399 1136 q 449 1113 442 1113 q 467 1118 456 1113 q 569 1162 501 1138 q 656 1186 636 1186 q 673 1181 667 1186 q 679 1167 679 1175 q 668 1143 679 1153 l 522 1011 q 481 978 494 986 q 449 969 468 969 q 417 978 431 969 q 376 1011 404 986 l 229 1144 q 217 1167 217 1156 q 224 1180 217 1175 q 244 1185 232 1185 z "},"S":{"ha":694,"x_min":28,"x_max":646,"o":"m 308 -19 q 85 38 179 -19 q 53 72 61 51 q 28 242 28 138 q 29 286 28 271 q 56 304 29 304 q 75 301 69 304 q 86 286 81 297 q 182 113 119 178 q 326 47 244 47 q 418 87 386 47 q 450 175 450 126 q 415 269 450 233 q 292 354 381 306 q 167 431 214 396 q 87 520 119 465 q 54 651 54 575 q 99 794 54 732 q 219 889 143 856 q 386 922 296 922 q 487 912 436 922 q 571 888 538 901 q 596 872 589 881 q 610 842 603 864 q 624 674 624 786 q 617 661 624 667 q 597 656 610 656 q 575 662 585 656 q 563 678 565 668 q 493 807 540 763 q 378 851 446 851 q 254 733 254 851 q 298 652 254 690 q 440 556 342 614 q 602 420 558 485 q 646 263 646 356 q 556 50 646 119 q 308 -19 467 -19 z "},"Ś":{"ha":694,"x_min":28,"x_max":646,"o":"m 308 -19 q 85 38 179 -19 q 53 72 61 51 q 28 242 28 138 q 29 286 28 271 q 56 304 29 304 q 75 301 69 304 q 86 286 81 297 q 182 113 119 178 q 326 47 244 47 q 418 87 386 47 q 450 175 450 126 q 415 269 450 233 q 292 354 381 306 q 167 431 214 396 q 87 520 119 465 q 54 651 54 575 q 99 794 54 732 q 219 889 143 856 q 386 922 296 922 q 487 912 436 922 q 571 888 538 901 q 596 872 589 881 q 610 842 603 864 q 624 674 624 786 q 617 661 624 667 q 597 656 610 656 q 575 662 585 656 q 563 678 565 668 q 493 807 540 763 q 378 851 446 851 q 254 733 254 851 q 298 652 254 690 q 440 556 342 614 q 602 420 558 485 q 646 263 646 356 q 556 50 646 119 q 308 -19 467 -19 m 310 946 q 292 960 292 950 q 308 990 292 969 q 464 1167 392 1094 q 513 1182 483 1186 q 578 1160 536 1179 q 615 1125 619 1140 q 588 1094 611 1110 q 454 1018 521 1054 l 347 957 q 325 947 336 950 q 310 946 314 944 z "},"Š":{"ha":694,"x_min":28,"x_max":646,"o":"m 308 -19 q 85 38 179 -19 q 53 72 61 51 q 28 242 28 138 q 29 286 28 271 q 56 304 29 304 q 75 301 69 304 q 86 286 81 297 q 182 113 119 178 q 326 47 244 47 q 418 87 386 47 q 450 175 450 126 q 415 269 450 233 q 292 354 381 306 q 167 431 214 396 q 87 520 119 465 q 54 651 54 575 q 99 794 54 732 q 219 889 143 856 q 386 922 296 922 q 487 912 436 922 q 571 888 538 901 q 596 872 589 881 q 610 842 603 864 q 624 674 624 786 q 617 661 624 667 q 597 656 610 656 q 575 662 585 656 q 563 678 565 668 q 493 807 540 763 q 378 851 446 851 q 254 733 254 851 q 298 652 254 690 q 440 556 342 614 q 602 420 558 485 q 646 263 646 356 q 556 50 646 119 q 308 -19 467 -19 m 176 1185 q 262 1160 193 1185 q 363 1118 331 1136 q 381 1113 374 1113 q 399 1118 388 1113 q 501 1162 433 1138 q 588 1186 568 1186 q 605 1181 599 1186 q 611 1167 611 1175 q 600 1143 611 1153 l 454 1011 q 413 978 426 986 q 381 969 400 969 q 349 978 363 969 q 308 1011 336 986 l 161 1144 q 149 1167 149 1156 q 156 1180 149 1175 q 176 1185 164 1185 z "},"Ş":{"ha":681,"x_min":28,"x_max":646,"o":"m 308 -19 q 85 38 179 -19 q 53 72 61 51 q 28 242 28 138 q 29 286 28 271 q 56 304 29 304 q 75 301 69 304 q 86 286 81 297 q 182 113 119 178 q 326 47 244 47 q 418 87 386 47 q 450 175 450 126 q 415 269 450 233 q 292 354 381 306 q 167 431 214 396 q 87 520 119 465 q 54 651 54 575 q 99 794 54 732 q 219 889 143 856 q 386 922 296 922 q 487 912 436 922 q 571 888 538 901 q 596 872 589 881 q 610 842 603 864 q 624 674 624 786 q 617 661 624 667 q 597 656 610 656 q 575 662 585 656 q 563 678 565 668 q 493 807 540 763 q 378 851 446 851 q 254 733 254 851 q 298 652 254 690 q 440 556 342 614 q 602 420 558 485 q 646 263 646 356 q 556 50 646 119 q 308 -19 467 -19 m 251 -382 q 195 -370 213 -382 q 178 -318 178 -358 q 187 -287 178 -299 q 207 -276 196 -276 q 231 -285 210 -276 q 290 -294 251 -294 q 334 -283 315 -294 q 353 -242 353 -271 q 285 -190 353 -190 q 267 -194 276 -190 q 251 -199 257 -199 q 221 -187 232 -199 q 210 -167 210 -176 q 219 -139 210 -150 l 351 11 l 419 11 l 371 -51 q 364 -67 364 -61 q 376 -81 364 -76 q 465 -194 465 -115 q 432 -285 465 -242 q 348 -355 399 -328 q 251 -382 297 -382 z "},"Ŝ":{"ha":694,"x_min":28,"x_max":646,"o":"m 308 -19 q 85 38 179 -19 q 53 72 61 51 q 28 242 28 138 q 29 286 28 271 q 56 304 29 304 q 75 301 69 304 q 86 286 81 297 q 182 113 119 178 q 326 47 244 47 q 418 87 386 47 q 450 175 450 126 q 415 269 450 233 q 292 354 381 306 q 167 431 214 396 q 87 520 119 465 q 54 651 54 575 q 99 794 54 732 q 219 889 143 856 q 386 922 296 922 q 487 912 436 922 q 571 888 538 901 q 596 872 589 881 q 610 842 603 864 q 624 674 624 786 q 617 661 624 667 q 597 656 610 656 q 575 662 585 656 q 563 678 565 668 q 493 807 540 763 q 378 851 446 851 q 254 733 254 851 q 298 652 254 690 q 440 556 342 614 q 602 420 558 485 q 646 263 646 356 q 556 50 646 119 q 308 -19 467 -19 m 176 961 q 156 966 164 961 q 149 979 149 971 q 161 1001 149 992 l 308 1135 q 349 1168 336 1160 q 381 1176 363 1176 q 413 1168 400 1176 q 454 1135 426 1160 l 600 1003 q 611 979 611 993 q 605 965 611 971 q 588 960 599 960 q 501 984 568 960 q 399 1028 433 1008 q 381 1033 392 1033 q 363 1028 369 1033 q 262 985 331 1010 q 176 961 193 961 z "},"ẞ":{"ha":1089,"x_min":14,"x_max":1033,"o":"m 669 -19 q 524 3 599 -19 q 510 11 517 6 q 501 22 503 17 q 475 113 488 51 q 463 215 463 174 q 472 235 463 228 q 494 242 482 242 q 515 211 499 242 l 529 183 q 589 85 560 122 q 661 49 618 49 q 751 108 715 49 q 788 261 788 167 q 501 450 788 450 q 482 464 474 450 l 674 815 l 675 821 q 658 839 675 832 q 620 849 644 844 q 576 853 596 853 q 413 740 460 853 q 365 450 365 628 l 367 293 q 368 136 368 236 q 383 81 368 99 q 435 51 397 64 q 461 18 461 43 q 439 -3 461 -3 q 340 0 407 -3 q 247 3 274 3 q 147 0 222 3 q 39 -4 92 -4 q 22 2 31 -4 q 14 17 14 8 q 40 47 14 40 q 113 76 94 58 q 132 135 132 93 l 132 465 q 192 690 132 585 q 365 858 253 794 q 628 922 478 922 q 785 905 707 922 q 924 864 863 888 q 951 832 951 853 q 946 813 951 822 l 911 753 q 867 676 904 740 q 771 511 792 549 q 769 504 769 510 q 776 494 769 496 q 961 419 889 475 q 1033 265 1033 364 q 984 112 1033 176 q 851 14 935 47 q 669 -19 768 -19 z "},"Ə":{"ha":936,"x_min":35,"x_max":901,"o":"m 439 921 q 667 863 561 921 q 838 697 774 804 q 901 451 901 590 q 840 217 901 325 q 666 45 778 110 q 408 -19 554 -19 q 215 30 300 -19 q 82 157 129 79 q 35 315 35 235 q 56 365 35 346 q 119 383 78 383 l 657 383 l 657 400 q 626 634 657 533 q 540 789 596 735 q 407 843 483 843 q 238 778 306 843 q 128 628 169 714 q 109 601 118 610 q 83 592 100 592 q 63 621 63 592 q 68 663 63 635 q 92 749 75 699 q 128 831 110 800 q 146 845 132 838 q 173 858 160 853 q 194 867 186 863 q 305 906 247 890 q 439 921 363 921 m 436 51 q 581 124 526 51 q 651 311 635 196 l 303 311 q 249 285 269 311 q 229 217 229 258 q 259 148 229 188 q 337 80 289 108 q 436 51 385 51 z "},"T":{"ha":974,"x_min":25,"x_max":981,"o":"m 283 -4 q 264 2 274 -4 q 254 17 254 8 q 285 47 254 40 q 362 77 340 60 q 383 135 383 94 l 383 715 q 378 808 383 788 q 363 835 374 828 q 306 844 346 844 l 282 844 q 196 822 238 844 q 128 764 154 799 q 85 711 104 732 q 47 690 65 690 q 25 715 25 690 q 35 753 25 733 q 76 849 64 811 q 93 936 89 888 q 129 972 97 972 q 154 950 138 972 q 176 925 165 933 q 222 909 189 915 q 276 903 254 903 l 807 904 q 860 910 836 904 q 894 924 883 917 q 926 949 903 928 q 964 971 949 971 q 981 949 981 971 q 978 922 981 942 q 965 878 975 913 q 951 815 956 843 q 946 765 946 788 l 946 736 q 940 697 946 710 q 922 685 935 685 q 899 697 908 685 q 881 739 890 710 q 831 820 863 796 q 742 844 800 844 l 685 844 q 647 833 660 844 q 626 790 633 822 q 619 699 619 758 l 619 136 q 640 81 619 99 q 717 47 660 64 q 740 36 732 42 q 747 18 747 31 q 740 3 747 8 q 721 -3 732 -3 q 606 0 692 -3 l 499 3 q 396 0 474 3 q 283 -4 336 -4 z "},"Ŧ":{"ha":974,"x_min":25,"x_max":981,"o":"m 964 971 q 981 949 981 971 q 978 922 981 942 q 965 878 975 913 q 951 815 956 843 q 946 765 946 788 l 946 736 q 940 697 946 710 q 922 685 935 685 q 899 697 908 685 q 881 739 890 710 q 831 820 863 796 q 742 844 800 844 l 685 844 q 647 833 660 844 q 626 790 633 822 q 619 699 619 758 l 619 540 l 743 540 q 766 533 757 540 q 775 514 775 525 q 756 474 775 493 q 715 454 738 454 l 619 454 l 619 136 q 640 81 619 99 q 717 47 660 64 q 740 36 732 42 q 747 18 747 31 q 740 3 747 8 q 721 -3 732 -3 q 606 0 692 -3 l 499 3 q 396 0 474 3 q 283 -4 336 -4 q 264 2 274 -4 q 254 17 254 8 q 285 47 254 40 q 362 77 340 60 q 383 135 383 94 l 383 454 l 257 454 q 231 467 242 454 q 221 497 221 479 q 232 528 221 517 q 261 540 243 540 l 383 540 l 383 715 q 378 808 383 788 q 363 835 374 828 q 306 844 346 844 l 282 844 q 196 822 238 844 q 128 764 154 799 q 85 711 104 732 q 47 690 65 690 q 25 715 25 690 q 35 753 25 733 q 76 849 64 811 q 93 936 89 888 q 129 972 97 972 q 154 950 138 972 q 176 925 165 933 q 222 909 189 915 q 276 903 254 903 l 807 904 q 860 910 836 904 q 894 924 883 917 q 926 949 903 928 q 964 971 949 971 z "},"Ť":{"ha":974,"x_min":25,"x_max":981,"o":"m 283 -4 q 264 2 274 -4 q 254 17 254 8 q 285 47 254 40 q 362 77 340 60 q 383 135 383 94 l 383 715 q 378 808 383 788 q 363 835 374 828 q 306 844 346 844 l 282 844 q 196 822 238 844 q 128 764 154 799 q 85 711 104 732 q 47 690 65 690 q 25 715 25 690 q 35 753 25 733 q 76 849 64 811 q 93 936 89 888 q 129 972 97 972 q 154 950 138 972 q 176 925 165 933 q 222 909 189 915 q 276 903 254 903 l 807 904 q 860 910 836 904 q 894 924 883 917 q 926 949 903 928 q 964 971 949 971 q 981 949 981 971 q 978 922 981 942 q 965 878 975 913 q 951 815 956 843 q 946 765 946 788 l 946 736 q 940 697 946 710 q 922 685 935 685 q 899 697 908 685 q 881 739 890 710 q 831 820 863 796 q 742 844 800 844 l 685 844 q 647 833 660 844 q 626 790 633 822 q 619 699 619 758 l 619 136 q 640 81 619 99 q 717 47 660 64 q 740 36 732 42 q 747 18 747 31 q 740 3 747 8 q 721 -3 732 -3 q 606 0 692 -3 l 499 3 q 396 0 474 3 q 283 -4 336 -4 m 296 1185 q 381 1160 313 1185 q 482 1118 450 1136 q 500 1113 493 1113 q 518 1118 507 1113 q 620 1162 553 1138 q 707 1186 688 1186 q 724 1181 718 1186 q 731 1167 731 1175 q 719 1143 731 1153 l 574 1011 q 533 978 546 986 q 500 969 519 969 q 469 978 482 969 q 428 1011 456 986 l 281 1144 q 268 1167 268 1156 q 276 1180 268 1175 q 296 1185 283 1185 z "},"U":{"ha":1036,"x_min":11,"x_max":1025,"o":"m 518 -19 q 223 81 325 -19 q 121 356 121 182 l 121 744 q 102 816 121 783 q 49 858 83 849 q 11 889 11 868 q 22 904 11 899 q 47 910 32 910 q 147 906 96 910 q 238 903 211 903 q 336 906 264 903 q 442 908 411 908 q 478 888 478 908 q 467 869 478 876 q 438 856 456 863 q 410 844 421 850 q 358 736 358 819 l 358 378 q 418 180 358 247 q 569 113 478 113 q 753 183 693 113 q 814 404 814 254 q 815 494 814 463 l 817 599 q 815 663 817 643 q 806 765 814 729 q 783 819 799 800 q 738 853 768 838 q 713 863 728 858 q 689 874 697 868 q 681 888 681 879 q 722 908 681 908 q 810 906 765 908 l 863 904 q 924 907 888 904 q 990 910 960 910 q 1025 889 1025 910 q 989 858 1025 869 q 922 815 942 844 q 900 732 903 786 q 893 368 893 564 q 843 167 893 256 q 708 30 793 79 q 518 -19 622 -19 z "},"Ú":{"ha":1036,"x_min":11,"x_max":1025,"o":"m 518 -19 q 223 81 325 -19 q 121 356 121 182 l 121 744 q 102 816 121 783 q 49 858 83 849 q 11 889 11 868 q 22 904 11 899 q 47 910 32 910 q 147 906 96 910 q 238 903 211 903 q 336 906 264 903 q 442 908 411 908 q 478 888 478 908 q 467 869 478 876 q 438 856 456 863 q 410 844 421 850 q 358 736 358 819 l 358 378 q 418 180 358 247 q 569 113 478 113 q 753 183 693 113 q 814 404 814 254 q 815 494 814 463 l 817 599 q 815 663 817 643 q 806 765 814 729 q 783 819 799 800 q 738 853 768 838 q 713 863 728 858 q 689 874 697 868 q 681 888 681 879 q 722 908 681 908 q 810 906 765 908 l 863 904 q 924 907 888 904 q 990 910 960 910 q 1025 889 1025 910 q 989 858 1025 869 q 922 815 942 844 q 900 732 903 786 q 893 368 893 564 q 843 167 893 256 q 708 30 793 79 q 518 -19 622 -19 m 499 946 q 481 960 481 950 q 497 990 481 969 q 653 1167 581 1094 q 701 1182 672 1186 q 767 1160 725 1179 q 804 1125 808 1140 q 776 1094 800 1110 q 643 1018 710 1054 l 536 957 q 514 947 525 950 q 499 946 503 944 z "},"Ŭ":{"ha":1036,"x_min":11,"x_max":1025,"o":"m 518 -19 q 223 81 325 -19 q 121 356 121 182 l 121 744 q 102 816 121 783 q 49 858 83 849 q 11 889 11 868 q 22 904 11 899 q 47 910 32 910 q 147 906 96 910 q 238 903 211 903 q 336 906 264 903 q 442 908 411 908 q 478 888 478 908 q 467 869 478 876 q 438 856 456 863 q 410 844 421 850 q 358 736 358 819 l 358 378 q 418 180 358 247 q 569 113 478 113 q 753 183 693 113 q 814 404 814 254 q 815 494 814 463 l 817 599 q 815 663 817 643 q 806 765 814 729 q 783 819 799 800 q 738 853 768 838 q 713 863 728 858 q 689 874 697 868 q 681 888 681 879 q 722 908 681 908 q 810 906 765 908 l 863 904 q 924 907 888 904 q 990 910 960 910 q 1025 889 1025 910 q 989 858 1025 869 q 922 815 942 844 q 900 732 903 786 q 893 368 893 564 q 843 167 893 256 q 708 30 793 79 q 518 -19 622 -19 m 569 951 q 457 981 503 951 q 388 1051 411 1010 q 365 1129 365 1092 q 369 1158 365 1150 q 385 1167 372 1167 q 401 1162 394 1167 q 415 1149 408 1157 q 426 1136 422 1140 q 490 1086 460 1100 q 569 1072 521 1072 q 649 1086 618 1072 q 713 1136 679 1100 q 725 1149 717 1140 q 740 1163 733 1158 q 754 1167 746 1167 q 770 1158 767 1167 q 774 1129 774 1150 q 751 1051 774 1092 q 682 981 728 1010 q 569 951 636 951 z "},"Û":{"ha":1036,"x_min":11,"x_max":1025,"o":"m 518 -19 q 223 81 325 -19 q 121 356 121 182 l 121 744 q 102 816 121 783 q 49 858 83 849 q 11 889 11 868 q 22 904 11 899 q 47 910 32 910 q 147 906 96 910 q 238 903 211 903 q 336 906 264 903 q 442 908 411 908 q 478 888 478 908 q 467 869 478 876 q 438 856 456 863 q 410 844 421 850 q 358 736 358 819 l 358 378 q 418 180 358 247 q 569 113 478 113 q 753 183 693 113 q 814 404 814 254 q 815 494 814 463 l 817 599 q 815 663 817 643 q 806 765 814 729 q 783 819 799 800 q 738 853 768 838 q 713 863 728 858 q 689 874 697 868 q 681 888 681 879 q 722 908 681 908 q 810 906 765 908 l 863 904 q 924 907 888 904 q 990 910 960 910 q 1025 889 1025 910 q 989 858 1025 869 q 922 815 942 844 q 900 732 903 786 q 893 368 893 564 q 843 167 893 256 q 708 30 793 79 q 518 -19 622 -19 m 365 961 q 345 966 353 961 q 338 979 338 971 q 350 1001 338 992 l 497 1135 q 538 1168 525 1160 q 569 1176 551 1176 q 602 1168 589 1176 q 643 1135 615 1160 l 789 1003 q 800 979 800 993 q 794 965 800 971 q 776 960 788 960 q 690 984 757 960 q 588 1028 622 1008 q 569 1033 581 1033 q 551 1028 558 1033 q 451 985 519 1010 q 365 961 382 961 z "},"Ü":{"ha":1036,"x_min":11,"x_max":1025,"o":"m 518 -19 q 223 81 325 -19 q 121 356 121 182 l 121 744 q 102 816 121 783 q 49 858 83 849 q 11 889 11 868 q 22 904 11 899 q 47 910 32 910 q 147 906 96 910 q 238 903 211 903 q 336 906 264 903 q 442 908 411 908 q 478 888 478 908 q 467 869 478 876 q 438 856 456 863 q 410 844 421 850 q 358 736 358 819 l 358 378 q 418 180 358 247 q 569 113 478 113 q 753 183 693 113 q 814 404 814 254 q 815 494 814 463 l 817 599 q 815 663 817 643 q 806 765 814 729 q 783 819 799 800 q 738 853 768 838 q 713 863 728 858 q 689 874 697 868 q 681 888 681 879 q 722 908 681 908 q 810 906 765 908 l 863 904 q 924 907 888 904 q 990 910 960 910 q 1025 889 1025 910 q 989 858 1025 869 q 922 815 942 844 q 900 732 903 786 q 893 368 893 564 q 843 167 893 256 q 708 30 793 79 q 518 -19 622 -19 m 431 953 q 356 984 388 953 q 325 1058 325 1015 q 356 1135 325 1104 q 431 1165 386 1165 q 510 1135 478 1165 q 542 1058 542 1104 q 509 984 542 1015 q 431 953 476 953 m 706 953 q 631 984 663 953 q 600 1058 600 1015 q 631 1135 600 1104 q 706 1165 661 1165 q 785 1135 753 1165 q 817 1058 817 1104 q 784 984 817 1015 q 706 953 751 953 z "},"Ù":{"ha":1036,"x_min":11,"x_max":1025,"o":"m 518 -19 q 223 81 325 -19 q 121 356 121 182 l 121 744 q 102 816 121 783 q 49 858 83 849 q 11 889 11 868 q 22 904 11 899 q 47 910 32 910 q 147 906 96 910 q 238 903 211 903 q 336 906 264 903 q 442 908 411 908 q 478 888 478 908 q 467 869 478 876 q 438 856 456 863 q 410 844 421 850 q 358 736 358 819 l 358 378 q 418 180 358 247 q 569 113 478 113 q 753 183 693 113 q 814 404 814 254 q 815 494 814 463 l 817 599 q 815 663 817 643 q 806 765 814 729 q 783 819 799 800 q 738 853 768 838 q 713 863 728 858 q 689 874 697 868 q 681 888 681 879 q 722 908 681 908 q 810 906 765 908 l 863 904 q 924 907 888 904 q 990 910 960 910 q 1025 889 1025 910 q 989 858 1025 869 q 922 815 942 844 q 900 732 903 786 q 893 368 893 564 q 843 167 893 256 q 708 30 793 79 q 518 -19 622 -19 m 604 946 q 569 957 588 946 l 463 1018 q 329 1094 396 1054 q 301 1125 306 1110 q 339 1160 297 1140 q 404 1182 381 1179 l 415 1183 q 453 1167 436 1183 q 608 990 525 1094 q 625 960 625 969 q 607 946 625 950 l 604 946 z "},"Ư":{"ha":1036,"x_min":11,"x_max":1125,"o":"m 518 -19 q 223 81 325 -19 q 121 356 121 182 l 121 744 q 102 816 121 783 q 49 858 83 849 q 11 889 11 868 q 22 904 11 899 q 47 910 32 910 q 147 906 96 910 q 238 903 211 903 q 336 906 264 903 q 442 908 411 908 q 478 888 478 908 q 467 869 478 876 q 438 856 456 863 q 410 844 421 850 q 358 736 358 819 l 358 378 q 418 180 358 247 q 569 113 478 113 q 746 185 690 113 q 801 411 801 258 l 803 578 q 801 661 803 635 q 792 765 799 729 q 772 819 786 800 q 728 853 757 838 q 703 863 718 858 q 679 874 688 868 q 671 888 671 879 q 713 908 671 908 q 800 906 753 908 l 860 904 l 933 904 q 983 920 967 904 q 1000 958 1000 936 q 990 976 1000 969 q 961 992 981 983 q 931 1010 942 1001 q 919 1033 919 1019 q 942 1074 919 1051 q 995 1111 964 1096 q 1049 1126 1026 1126 q 1101 1086 1076 1126 q 1125 1006 1125 1046 q 1081 908 1125 947 q 975 844 1038 868 q 922 806 938 829 q 904 743 906 783 q 897 368 897 575 q 847 167 897 256 q 709 30 796 79 q 518 -19 622 -19 z "},"Ű":{"ha":1036,"x_min":11,"x_max":1025,"o":"m 518 -19 q 223 81 325 -19 q 121 356 121 182 l 121 744 q 102 816 121 783 q 49 858 83 849 q 11 889 11 868 q 22 904 11 899 q 47 910 32 910 q 147 906 96 910 q 238 903 211 903 q 336 906 264 903 q 442 908 411 908 q 478 888 478 908 q 467 869 478 876 q 438 856 456 863 q 410 844 421 850 q 358 736 358 819 l 358 378 q 418 180 358 247 q 569 113 478 113 q 753 183 693 113 q 814 404 814 254 q 815 494 814 463 l 817 599 q 815 663 817 643 q 806 765 814 729 q 783 819 799 800 q 738 853 768 838 q 713 863 728 858 q 689 874 697 868 q 681 888 681 879 q 722 908 681 908 q 810 906 765 908 l 863 904 q 924 907 888 904 q 990 910 960 910 q 1025 889 1025 910 q 989 858 1025 869 q 922 815 942 844 q 900 732 903 786 q 893 368 893 564 q 843 167 893 256 q 708 30 793 79 q 518 -19 622 -19 m 604 946 q 586 960 586 950 q 603 990 586 969 q 758 1167 686 1094 q 807 1182 778 1186 q 872 1160 831 1179 q 910 1125 914 1140 q 882 1094 906 1110 q 749 1018 815 1054 l 642 957 q 619 947 631 950 q 604 946 608 944 m 371 946 q 353 960 353 950 q 369 990 353 969 q 525 1167 453 1094 q 574 1182 544 1186 q 639 1160 597 1179 q 676 1125 681 1140 q 649 1094 672 1110 q 515 1018 582 1054 l 408 957 q 386 947 397 950 q 371 946 375 944 z "},"Ū":{"ha":1036,"x_min":11,"x_max":1025,"o":"m 518 -19 q 223 81 325 -19 q 121 356 121 182 l 121 744 q 102 816 121 783 q 49 858 83 849 q 11 889 11 868 q 22 904 11 899 q 47 910 32 910 q 147 906 96 910 q 238 903 211 903 q 336 906 264 903 q 442 908 411 908 q 478 888 478 908 q 467 869 478 876 q 438 856 456 863 q 410 844 421 850 q 358 736 358 819 l 358 378 q 418 180 358 247 q 569 113 478 113 q 753 183 693 113 q 814 404 814 254 q 815 494 814 463 l 817 599 q 815 663 817 643 q 806 765 814 729 q 783 819 799 800 q 738 853 768 838 q 713 863 728 858 q 689 874 697 868 q 681 888 681 879 q 722 908 681 908 q 810 906 765 908 l 863 904 q 924 907 888 904 q 990 910 960 910 q 1025 889 1025 910 q 989 858 1025 869 q 922 815 942 844 q 900 732 903 786 q 893 368 893 564 q 843 167 893 256 q 708 30 793 79 q 518 -19 622 -19 m 369 994 q 349 1002 357 994 q 340 1021 340 1010 q 358 1088 340 1061 q 396 1114 375 1114 l 771 1114 q 791 1106 783 1114 q 799 1088 799 1099 q 781 1023 799 1051 q 739 994 763 994 l 369 994 z "},"Ų":{"ha":1036,"x_min":11,"x_max":1025,"o":"m 518 -19 q 223 81 325 -19 q 121 356 121 182 l 121 744 q 102 816 121 783 q 49 858 83 849 q 11 889 11 868 q 22 904 11 899 q 47 910 32 910 q 147 906 96 910 q 238 903 211 903 q 336 906 264 903 q 442 908 411 908 q 478 888 478 908 q 467 869 478 876 q 438 856 456 863 q 410 844 421 850 q 358 736 358 819 l 358 378 q 418 180 358 247 q 569 113 478 113 q 753 183 693 113 q 814 404 814 254 q 815 494 814 463 l 817 599 q 815 663 817 643 q 806 765 814 729 q 783 819 799 800 q 738 853 768 838 q 713 863 728 858 q 689 874 697 868 q 681 888 681 879 q 722 908 681 908 q 810 906 765 908 l 863 904 q 924 907 888 904 q 990 910 960 910 q 1025 889 1025 910 q 989 858 1025 869 q 922 815 942 844 q 900 732 903 786 q 893 368 893 564 q 843 167 893 256 q 708 30 793 79 q 518 -19 622 -19 m 568 -399 q 446 -358 490 -399 q 401 -242 401 -317 q 467 -99 401 -162 q 638 25 532 -35 l 699 25 q 597 -88 632 -36 q 563 -201 563 -140 q 583 -255 563 -235 q 638 -275 604 -275 q 684 -265 664 -275 q 724 -236 704 -256 q 742 -229 731 -229 q 761 -256 761 -229 q 734 -324 761 -290 q 663 -378 707 -357 q 568 -399 618 -399 z "},"Ů":{"ha":1036,"x_min":11,"x_max":1025,"o":"m 518 -19 q 223 81 325 -19 q 121 356 121 182 l 121 744 q 102 816 121 783 q 49 858 83 849 q 11 889 11 868 q 22 904 11 899 q 47 910 32 910 q 147 906 96 910 q 238 903 211 903 q 336 906 264 903 q 442 908 411 908 q 478 888 478 908 q 467 869 478 876 q 438 856 456 863 q 410 844 421 850 q 358 736 358 819 l 358 378 q 418 180 358 247 q 569 113 478 113 q 753 183 693 113 q 814 404 814 254 q 815 494 814 463 l 817 599 q 815 663 817 643 q 806 765 814 729 q 783 819 799 800 q 738 853 768 838 q 713 863 728 858 q 689 874 697 868 q 681 888 681 879 q 722 908 681 908 q 810 906 765 908 l 863 904 q 924 907 888 904 q 990 910 960 910 q 1025 889 1025 910 q 989 858 1025 869 q 922 815 942 844 q 900 732 903 786 q 893 368 893 564 q 843 167 893 256 q 708 30 793 79 q 518 -19 622 -19 m 578 1193 q 685 1163 639 1193 q 731 1081 731 1132 q 680 989 731 1025 q 563 953 629 953 q 453 984 499 953 q 408 1068 408 1015 q 459 1158 408 1122 q 578 1193 510 1193 m 501 1071 q 523 1020 501 1042 q 576 999 544 999 q 621 1020 604 999 q 638 1071 638 1042 q 617 1122 638 1101 q 564 1143 596 1143 q 519 1122 536 1143 q 501 1071 501 1101 z "},"Ũ":{"ha":1036,"x_min":11,"x_max":1025,"o":"m 518 -19 q 223 81 325 -19 q 121 356 121 182 l 121 744 q 102 816 121 783 q 49 858 83 849 q 11 889 11 868 q 22 904 11 899 q 47 910 32 910 q 147 906 96 910 q 238 903 211 903 q 336 906 264 903 q 442 908 411 908 q 478 888 478 908 q 467 869 478 876 q 438 856 456 863 q 410 844 421 850 q 358 736 358 819 l 358 378 q 418 180 358 247 q 569 113 478 113 q 753 183 693 113 q 814 404 814 254 q 815 494 814 463 l 817 599 q 815 663 817 643 q 806 765 814 729 q 783 819 799 800 q 738 853 768 838 q 713 863 728 858 q 689 874 697 868 q 681 888 681 879 q 722 908 681 908 q 810 906 765 908 l 863 904 q 924 907 888 904 q 990 910 960 910 q 1025 889 1025 910 q 989 858 1025 869 q 922 815 942 844 q 900 732 903 786 q 893 368 893 564 q 843 167 893 256 q 708 30 793 79 q 518 -19 622 -19 m 369 960 q 353 969 363 960 q 343 982 343 978 q 365 1028 343 992 q 413 1096 388 1065 q 450 1126 439 1126 q 517 1124 469 1126 q 569 1121 550 1121 l 599 1119 q 692 1117 654 1117 q 740 1144 715 1117 q 756 1164 747 1153 q 768 1175 765 1175 q 788 1165 775 1175 q 800 1149 800 1154 q 793 1132 800 1143 q 775 1106 786 1121 q 743 1056 753 1072 q 731 1036 736 1044 q 721 1021 725 1028 q 678 1001 708 1001 q 561 1010 664 1001 q 435 1018 453 1018 q 394 989 418 1018 q 369 960 374 960 z "},"V":{"ha":992,"x_min":0,"x_max":997,"o":"m 493 -25 q 461 0 472 -25 q 438 53 456 11 q 408 128 419 94 l 132 765 q 93 824 117 800 q 31 858 69 847 q 8 869 15 864 q 0 888 0 875 q 8 903 0 897 q 26 908 15 908 q 136 906 56 908 q 238 903 211 903 l 349 906 q 469 910 415 910 q 494 903 482 910 q 507 889 507 897 q 468 858 507 868 q 407 838 424 849 q 390 803 390 826 q 396 771 390 793 l 571 274 q 578 263 575 263 q 585 275 581 263 l 740 685 q 758 768 758 729 q 674 858 758 846 q 645 869 658 861 q 632 889 632 878 q 644 903 632 897 q 672 908 657 908 q 742 906 703 908 l 804 904 q 876 908 843 904 q 912 910 888 908 q 956 913 936 913 q 997 889 997 913 q 990 873 997 878 q 973 865 982 868 q 961 861 964 863 q 894 820 919 850 q 840 722 869 790 l 640 246 q 529 0 596 142 q 515 -19 522 -14 q 493 -25 508 -25 z "},"Ɣ":{"ha":992,"x_min":0,"x_max":997,"o":"m 503 -397 q 388 -345 428 -397 q 347 -208 347 -293 q 363 -110 347 -158 q 422 39 379 -61 q 429 63 429 56 q 422 85 429 71 l 136 769 q 31 858 110 836 q 8 869 15 864 q 0 888 0 875 q 8 903 0 897 q 26 908 15 908 q 136 906 56 908 q 238 903 211 903 l 349 906 q 469 910 415 910 q 494 903 482 910 q 507 889 507 897 q 468 858 507 868 q 407 838 424 849 q 390 803 390 826 q 396 771 390 793 l 564 274 q 572 264 565 264 q 582 275 578 264 l 740 682 q 756 736 753 715 q 758 794 758 757 q 728 838 758 821 q 667 858 697 854 q 638 869 651 861 q 625 889 625 878 q 638 903 625 897 q 665 908 650 908 q 739 906 697 908 l 804 904 q 876 908 843 904 q 912 910 888 908 q 956 913 936 913 q 997 889 997 913 q 990 873 997 878 q 973 865 982 868 q 961 861 964 863 q 857 761 889 842 l 632 215 q 617 156 617 176 q 624 118 617 138 q 632 94 631 99 l 685 -43 q 712 -124 704 -94 q 719 -187 719 -153 q 660 -342 719 -287 q 503 -397 601 -397 m 488 -303 q 527 -285 511 -303 q 543 -237 543 -267 q 527 -162 543 -211 q 489 -65 511 -114 q 483 -60 488 -60 q 476 -65 479 -60 q 438 -140 451 -106 q 424 -212 424 -174 q 442 -281 424 -260 q 488 -303 461 -303 z "},"W":{"ha":1449,"x_min":0,"x_max":1454,"o":"m 1406 913 q 1454 889 1454 913 q 1445 874 1454 879 q 1426 865 1436 868 q 1411 861 1415 863 q 1350 828 1372 850 q 1311 769 1328 806 l 971 4 q 958 -15 964 -10 q 942 -21 953 -21 q 907 6 919 -21 l 885 50 q 753 325 806 208 q 743 333 749 333 q 732 325 736 333 q 556 7 613 106 q 542 -17 547 -10 q 525 -24 536 -24 q 508 -16 513 -24 q 493 11 503 -8 l 132 769 q 95 827 114 807 q 39 858 76 847 q 10 871 19 865 q 0 888 0 876 q 11 903 0 897 q 35 908 22 908 q 138 906 65 908 q 233 903 207 903 q 318 906 260 903 q 411 910 364 910 q 428 908 422 910 l 429 908 q 539 906 458 908 q 640 903 614 903 q 725 906 667 903 q 819 908 789 908 q 854 903 842 908 q 867 889 867 899 q 856 870 867 876 q 818 858 844 864 q 782 822 782 851 q 786 800 782 811 l 803 757 q 853 626 826 686 q 865 610 860 610 q 873 617 869 610 q 878 626 876 624 q 917 721 886 643 l 942 785 q 949 815 949 799 q 938 840 949 831 q 908 857 928 849 q 897 863 906 858 q 883 874 888 868 q 878 886 878 879 q 883 902 878 897 q 907 907 888 907 q 957 905 938 907 q 990 903 976 903 q 1018 906 999 903 q 1096 910 1072 910 q 1138 886 1138 910 q 1130 870 1138 875 q 1113 863 1122 865 q 1101 858 1104 860 q 1044 827 1064 849 q 1003 767 1024 806 q 904 569 953 671 q 897 540 897 553 q 908 496 897 522 l 1007 276 q 1015 267 1011 267 q 1025 278 1019 267 q 1226 749 1149 551 q 1246 813 1246 799 q 1206 858 1246 849 q 1164 889 1164 868 q 1176 903 1164 897 q 1204 908 1189 908 q 1258 906 1236 908 q 1293 904 1281 904 q 1331 907 1303 904 q 1406 913 1367 913 m 693 393 q 703 418 703 410 q 696 442 703 425 l 539 769 q 433 858 513 836 q 424 861 428 861 q 410 858 421 861 q 383 845 388 854 q 378 817 378 836 q 380 798 378 808 q 385 781 382 788 q 463 601 410 721 q 600 276 569 353 q 611 260 607 260 q 624 275 617 260 l 693 393 z "},"Ẃ":{"ha":1449,"x_min":0,"x_max":1454,"o":"m 1406 913 q 1454 889 1454 913 q 1445 874 1454 879 q 1426 865 1436 868 q 1411 861 1415 863 q 1350 828 1372 850 q 1311 769 1328 806 l 971 4 q 958 -15 964 -10 q 942 -21 953 -21 q 907 6 919 -21 l 885 50 q 753 325 806 208 q 743 333 749 333 q 732 325 736 333 q 556 7 613 106 q 542 -17 547 -10 q 525 -24 536 -24 q 508 -16 513 -24 q 493 11 503 -8 l 132 769 q 95 827 114 807 q 39 858 76 847 q 10 871 19 865 q 0 888 0 876 q 11 903 0 897 q 35 908 22 908 q 138 906 65 908 q 233 903 207 903 q 318 906 260 903 q 411 910 364 910 q 428 908 422 910 l 429 908 q 539 906 458 908 q 640 903 614 903 q 725 906 667 903 q 819 908 789 908 q 854 903 842 908 q 867 889 867 899 q 856 870 867 876 q 818 858 844 864 q 782 822 782 851 q 786 800 782 811 l 803 757 q 853 626 826 686 q 865 610 860 610 q 873 617 869 610 q 878 626 876 624 q 917 721 886 643 l 942 785 q 949 815 949 799 q 938 840 949 831 q 908 857 928 849 q 897 863 906 858 q 883 874 888 868 q 878 886 878 879 q 883 902 878 897 q 907 907 888 907 q 957 905 938 907 q 990 903 976 903 q 1018 906 999 903 q 1096 910 1072 910 q 1138 886 1138 910 q 1130 870 1138 875 q 1113 863 1122 865 q 1101 858 1104 860 q 1044 827 1064 849 q 1003 767 1024 806 q 904 569 953 671 q 897 540 897 553 q 908 496 897 522 l 1007 276 q 1015 267 1011 267 q 1025 278 1019 267 q 1226 749 1149 551 q 1246 813 1246 799 q 1206 858 1246 849 q 1164 889 1164 868 q 1176 903 1164 897 q 1204 908 1189 908 q 1258 906 1236 908 q 1293 904 1281 904 q 1331 907 1303 904 q 1406 913 1367 913 m 693 393 q 703 418 703 410 q 696 442 703 425 l 539 769 q 433 858 513 836 q 424 861 428 861 q 410 858 421 861 q 383 845 388 854 q 378 817 378 836 q 380 798 378 808 q 385 781 382 788 q 463 601 410 721 q 600 276 569 353 q 611 260 607 260 q 624 275 617 260 l 693 393 m 760 946 q 742 960 742 950 q 758 990 742 969 q 914 1167 842 1094 q 963 1182 933 1186 q 1028 1160 986 1179 q 1065 1125 1069 1140 q 1038 1094 1061 1110 q 904 1018 971 1054 l 797 957 q 775 947 786 950 q 760 946 764 944 z "},"Ŵ":{"ha":1449,"x_min":0,"x_max":1454,"o":"m 1406 913 q 1454 889 1454 913 q 1445 874 1454 879 q 1426 865 1436 868 q 1411 861 1415 863 q 1350 828 1372 850 q 1311 769 1328 806 l 971 4 q 958 -15 964 -10 q 942 -21 953 -21 q 907 6 919 -21 l 885 50 q 753 325 806 208 q 743 333 749 333 q 732 325 736 333 q 556 7 613 106 q 542 -17 547 -10 q 525 -24 536 -24 q 508 -16 513 -24 q 493 11 503 -8 l 132 769 q 95 827 114 807 q 39 858 76 847 q 10 871 19 865 q 0 888 0 876 q 11 903 0 897 q 35 908 22 908 q 138 906 65 908 q 233 903 207 903 q 318 906 260 903 q 411 910 364 910 q 428 908 422 910 l 429 908 q 539 906 458 908 q 640 903 614 903 q 725 906 667 903 q 819 908 789 908 q 854 903 842 908 q 867 889 867 899 q 856 870 867 876 q 818 858 844 864 q 782 822 782 851 q 786 800 782 811 l 803 757 q 853 626 826 686 q 865 610 860 610 q 873 617 869 610 q 878 626 876 624 q 917 721 886 643 l 942 785 q 949 815 949 799 q 938 840 949 831 q 908 857 928 849 q 897 863 906 858 q 883 874 888 868 q 878 886 878 879 q 883 902 878 897 q 907 907 888 907 q 957 905 938 907 q 990 903 976 903 q 1018 906 999 903 q 1096 910 1072 910 q 1138 886 1138 910 q 1130 870 1138 875 q 1113 863 1122 865 q 1101 858 1104 860 q 1044 827 1064 849 q 1003 767 1024 806 q 904 569 953 671 q 897 540 897 553 q 908 496 897 522 l 1007 276 q 1015 267 1011 267 q 1025 278 1019 267 q 1226 749 1149 551 q 1246 813 1246 799 q 1206 858 1246 849 q 1164 889 1164 868 q 1176 903 1164 897 q 1204 908 1189 908 q 1258 906 1236 908 q 1293 904 1281 904 q 1331 907 1303 904 q 1406 913 1367 913 m 693 393 q 703 418 703 410 q 696 442 703 425 l 539 769 q 433 858 513 836 q 424 861 428 861 q 410 858 421 861 q 383 845 388 854 q 378 817 378 836 q 380 798 378 808 q 385 781 382 788 q 463 601 410 721 q 600 276 569 353 q 611 260 607 260 q 624 275 617 260 l 693 393 m 626 961 q 606 966 614 961 q 599 979 599 971 q 611 1001 599 992 l 758 1135 q 799 1168 786 1160 q 831 1176 813 1176 q 863 1168 850 1176 q 904 1135 876 1160 l 1050 1003 q 1061 979 1061 993 q 1055 965 1061 971 q 1038 960 1049 960 q 951 984 1018 960 q 849 1028 883 1008 q 831 1033 842 1033 q 813 1028 819 1033 q 712 985 781 1010 q 626 961 643 961 z "},"Ẅ":{"ha":1449,"x_min":0,"x_max":1454,"o":"m 1406 913 q 1454 889 1454 913 q 1445 874 1454 879 q 1426 865 1436 868 q 1411 861 1415 863 q 1350 828 1372 850 q 1311 769 1328 806 l 971 4 q 958 -15 964 -10 q 942 -21 953 -21 q 907 6 919 -21 l 885 50 q 753 325 806 208 q 743 333 749 333 q 732 325 736 333 q 556 7 613 106 q 542 -17 547 -10 q 525 -24 536 -24 q 508 -16 513 -24 q 493 11 503 -8 l 132 769 q 95 827 114 807 q 39 858 76 847 q 10 871 19 865 q 0 888 0 876 q 11 903 0 897 q 35 908 22 908 q 138 906 65 908 q 233 903 207 903 q 318 906 260 903 q 411 910 364 910 q 428 908 422 910 l 429 908 q 539 906 458 908 q 640 903 614 903 q 725 906 667 903 q 819 908 789 908 q 854 903 842 908 q 867 889 867 899 q 856 870 867 876 q 818 858 844 864 q 782 822 782 851 q 786 800 782 811 l 803 757 q 853 626 826 686 q 865 610 860 610 q 873 617 869 610 q 878 626 876 624 q 917 721 886 643 l 942 785 q 949 815 949 799 q 938 840 949 831 q 908 857 928 849 q 897 863 906 858 q 883 874 888 868 q 878 886 878 879 q 883 902 878 897 q 907 907 888 907 q 957 905 938 907 q 990 903 976 903 q 1018 906 999 903 q 1096 910 1072 910 q 1138 886 1138 910 q 1130 870 1138 875 q 1113 863 1122 865 q 1101 858 1104 860 q 1044 827 1064 849 q 1003 767 1024 806 q 904 569 953 671 q 897 540 897 553 q 908 496 897 522 l 1007 276 q 1015 267 1011 267 q 1025 278 1019 267 q 1226 749 1149 551 q 1246 813 1246 799 q 1206 858 1246 849 q 1164 889 1164 868 q 1176 903 1164 897 q 1204 908 1189 908 q 1258 906 1236 908 q 1293 904 1281 904 q 1331 907 1303 904 q 1406 913 1367 913 m 693 393 q 703 418 703 410 q 696 442 703 425 l 539 769 q 433 858 513 836 q 424 861 428 861 q 410 858 421 861 q 383 845 388 854 q 378 817 378 836 q 380 798 378 808 q 385 781 382 788 q 463 601 410 721 q 600 276 569 353 q 611 260 607 260 q 624 275 617 260 l 693 393 m 692 953 q 617 984 649 953 q 586 1058 586 1015 q 617 1135 586 1104 q 692 1165 647 1165 q 771 1135 739 1165 q 803 1058 803 1104 q 770 984 803 1015 q 692 953 738 953 m 967 953 q 892 984 924 953 q 861 1058 861 1015 q 892 1135 861 1104 q 967 1165 922 1165 q 1046 1135 1014 1165 q 1078 1058 1078 1104 q 1045 984 1078 1015 q 967 953 1013 953 z "},"Ẁ":{"ha":1449,"x_min":0,"x_max":1454,"o":"m 1406 913 q 1454 889 1454 913 q 1445 874 1454 879 q 1426 865 1436 868 q 1411 861 1415 863 q 1350 828 1372 850 q 1311 769 1328 806 l 971 4 q 958 -15 964 -10 q 942 -21 953 -21 q 907 6 919 -21 l 885 50 q 753 325 806 208 q 743 333 749 333 q 732 325 736 333 q 556 7 613 106 q 542 -17 547 -10 q 525 -24 536 -24 q 508 -16 513 -24 q 493 11 503 -8 l 132 769 q 95 827 114 807 q 39 858 76 847 q 10 871 19 865 q 0 888 0 876 q 11 903 0 897 q 35 908 22 908 q 138 906 65 908 q 233 903 207 903 q 318 906 260 903 q 411 910 364 910 q 428 908 422 910 l 429 908 q 539 906 458 908 q 640 903 614 903 q 725 906 667 903 q 819 908 789 908 q 854 903 842 908 q 867 889 867 899 q 856 870 867 876 q 818 858 844 864 q 782 822 782 851 q 786 800 782 811 l 803 757 q 853 626 826 686 q 865 610 860 610 q 873 617 869 610 q 878 626 876 624 q 917 721 886 643 l 942 785 q 949 815 949 799 q 938 840 949 831 q 908 857 928 849 q 897 863 906 858 q 883 874 888 868 q 878 886 878 879 q 883 902 878 897 q 907 907 888 907 q 957 905 938 907 q 990 903 976 903 q 1018 906 999 903 q 1096 910 1072 910 q 1138 886 1138 910 q 1130 870 1138 875 q 1113 863 1122 865 q 1101 858 1104 860 q 1044 827 1064 849 q 1003 767 1024 806 q 904 569 953 671 q 897 540 897 553 q 908 496 897 522 l 1007 276 q 1015 267 1011 267 q 1025 278 1019 267 q 1226 749 1149 551 q 1246 813 1246 799 q 1206 858 1246 849 q 1164 889 1164 868 q 1176 903 1164 897 q 1204 908 1189 908 q 1258 906 1236 908 q 1293 904 1281 904 q 1331 907 1303 904 q 1406 913 1367 913 m 693 393 q 703 418 703 410 q 696 442 703 425 l 539 769 q 433 858 513 836 q 424 861 428 861 q 410 858 421 861 q 383 845 388 854 q 378 817 378 836 q 380 798 378 808 q 385 781 382 788 q 463 601 410 721 q 600 276 569 353 q 611 260 607 260 q 624 275 617 260 l 693 393 m 865 946 q 831 957 849 946 l 724 1018 q 590 1094 657 1054 q 563 1125 567 1110 q 600 1160 558 1140 q 665 1182 642 1179 l 676 1183 q 714 1167 697 1183 q 869 990 786 1094 q 886 960 886 969 q 868 946 886 950 l 865 946 z "},"X":{"ha":1056,"x_min":-7,"x_max":1049,"o":"m 35 -10 q -7 14 -7 -10 q 1 30 -7 25 q 17 38 8 35 q 29 42 26 40 q 110 84 72 56 q 194 172 149 113 l 363 390 q 381 438 381 415 q 361 489 381 461 l 161 769 q 113 828 133 808 q 56 858 93 849 q 33 869 40 864 q 25 888 25 875 q 33 903 25 897 q 51 908 40 908 q 121 907 81 908 q 182 904 161 906 q 310 900 244 900 q 362 901 332 900 q 407 904 392 903 q 514 910 474 910 q 539 903 526 910 q 551 889 551 897 q 513 858 551 868 q 447 837 467 849 q 428 801 428 825 q 433 783 428 794 q 446 761 439 771 l 579 579 q 606 560 594 560 q 628 576 615 560 l 735 726 q 768 804 768 772 q 754 836 768 824 q 707 858 740 849 q 665 889 665 871 q 678 903 665 899 q 710 908 690 908 q 778 906 742 908 q 839 903 811 903 q 876 905 857 903 q 906 907 896 907 q 976 913 944 913 q 1008 907 994 913 q 1022 889 1022 901 q 1014 874 1022 879 q 996 865 1006 868 q 982 861 986 863 q 920 830 951 851 q 868 783 889 808 l 671 538 q 656 503 656 518 q 672 461 656 486 l 908 128 q 999 50 956 61 q 1032 36 1015 46 q 1049 14 1049 26 q 1039 -1 1049 4 q 1014 -7 1029 -7 q 926 -5 972 -7 q 861 -3 881 -3 q 743 1 801 1 l 653 0 q 556 -3 589 -3 q 531 3 543 -3 q 518 18 518 10 q 557 49 518 39 q 617 69 594 57 q 640 101 640 81 q 629 131 640 113 l 476 344 q 440 376 454 376 q 408 349 426 376 l 290 174 q 264 101 264 132 q 280 64 264 79 q 328 44 296 49 q 356 33 343 42 q 369 14 369 25 q 357 0 369 6 q 329 -6 344 -6 q 231 -3 286 -6 l 183 -1 q 113 -6 146 -1 q 78 -8 101 -6 q 35 -10 56 -10 z "},"Y":{"ha":932,"x_min":0,"x_max":967,"o":"m 271 -8 q 243 -1 254 -8 q 232 15 232 6 q 272 46 232 38 q 344 82 324 56 q 364 153 364 108 l 364 342 q 353 420 364 389 q 318 490 342 451 l 136 769 q 90 827 113 806 q 31 858 68 849 q 8 869 15 864 q 0 888 0 875 q 8 903 0 897 q 26 908 15 908 q 94 906 57 908 q 149 904 131 904 q 265 900 206 900 q 313 901 286 900 q 356 904 340 903 q 453 910 417 910 q 478 903 465 910 q 490 889 490 897 q 451 858 490 868 q 390 838 407 849 q 374 803 374 826 q 389 754 374 781 l 535 506 q 557 488 544 488 q 578 506 567 488 q 701 747 651 638 q 715 800 715 778 q 692 841 715 826 q 636 858 668 856 q 608 869 621 860 q 594 889 594 878 q 607 903 594 897 q 635 908 619 908 q 713 904 675 908 q 785 901 760 901 q 849 907 804 901 q 925 913 893 913 q 967 889 967 913 q 959 873 967 878 q 942 865 951 868 q 931 861 933 863 q 859 827 890 850 q 811 774 828 804 q 739 658 764 696 q 639 493 664 535 q 600 356 600 425 l 600 154 q 618 81 600 101 q 692 46 636 61 q 722 35 713 40 q 732 17 732 29 q 722 0 732 7 q 696 -7 711 -7 q 583 -1 667 -7 q 479 4 506 4 q 379 -1 454 4 q 271 -8 317 -8 z "},"Ý":{"ha":932,"x_min":0,"x_max":967,"o":"m 271 -8 q 243 -1 254 -8 q 232 15 232 6 q 272 46 232 38 q 344 82 324 56 q 364 153 364 108 l 364 342 q 353 420 364 389 q 318 490 342 451 l 136 769 q 90 827 113 806 q 31 858 68 849 q 8 869 15 864 q 0 888 0 875 q 8 903 0 897 q 26 908 15 908 q 94 906 57 908 q 149 904 131 904 q 265 900 206 900 q 313 901 286 900 q 356 904 340 903 q 453 910 417 910 q 478 903 465 910 q 490 889 490 897 q 451 858 490 868 q 390 838 407 849 q 374 803 374 826 q 389 754 374 781 l 535 506 q 557 488 544 488 q 578 506 567 488 q 701 747 651 638 q 715 800 715 778 q 692 841 715 826 q 636 858 668 856 q 608 869 621 860 q 594 889 594 878 q 607 903 594 897 q 635 908 619 908 q 713 904 675 908 q 785 901 760 901 q 849 907 804 901 q 925 913 893 913 q 967 889 967 913 q 959 873 967 878 q 942 865 951 868 q 931 861 933 863 q 859 827 890 850 q 811 774 828 804 q 739 658 764 696 q 639 493 664 535 q 600 356 600 425 l 600 154 q 618 81 600 101 q 692 46 636 61 q 722 35 713 40 q 732 17 732 29 q 722 0 732 7 q 696 -7 711 -7 q 583 -1 667 -7 q 479 4 506 4 q 379 -1 454 4 q 271 -8 317 -8 m 463 946 q 444 960 444 950 q 461 990 444 969 q 617 1167 544 1094 q 665 1182 636 1186 q 731 1160 689 1179 q 768 1125 772 1140 q 740 1094 764 1110 q 607 1018 674 1054 l 500 957 q 478 947 489 950 q 463 946 467 944 z "},"Ŷ":{"ha":932,"x_min":0,"x_max":967,"o":"m 271 -8 q 243 -1 254 -8 q 232 15 232 6 q 272 46 232 38 q 344 82 324 56 q 364 153 364 108 l 364 342 q 353 420 364 389 q 318 490 342 451 l 136 769 q 90 827 113 806 q 31 858 68 849 q 8 869 15 864 q 0 888 0 875 q 8 903 0 897 q 26 908 15 908 q 94 906 57 908 q 149 904 131 904 q 265 900 206 900 q 313 901 286 900 q 356 904 340 903 q 453 910 417 910 q 478 903 465 910 q 490 889 490 897 q 451 858 490 868 q 390 838 407 849 q 374 803 374 826 q 389 754 374 781 l 535 506 q 557 488 544 488 q 578 506 567 488 q 701 747 651 638 q 715 800 715 778 q 692 841 715 826 q 636 858 668 856 q 608 869 621 860 q 594 889 594 878 q 607 903 594 897 q 635 908 619 908 q 713 904 675 908 q 785 901 760 901 q 849 907 804 901 q 925 913 893 913 q 967 889 967 913 q 959 873 967 878 q 942 865 951 868 q 931 861 933 863 q 859 827 890 850 q 811 774 828 804 q 739 658 764 696 q 639 493 664 535 q 600 356 600 425 l 600 154 q 618 81 600 101 q 692 46 636 61 q 722 35 713 40 q 732 17 732 29 q 722 0 732 7 q 696 -7 711 -7 q 583 -1 667 -7 q 479 4 506 4 q 379 -1 454 4 q 271 -8 317 -8 m 329 961 q 309 966 317 961 q 301 979 301 971 q 314 1001 301 992 l 461 1135 q 502 1168 489 1160 q 533 1176 515 1176 q 566 1168 553 1176 q 607 1135 579 1160 l 753 1003 q 764 979 764 993 q 758 965 764 971 q 740 960 751 960 q 653 984 721 960 q 551 1028 586 1008 q 533 1033 544 1033 q 515 1028 522 1033 q 415 985 483 1010 q 329 961 346 961 z "},"Ÿ":{"ha":932,"x_min":0,"x_max":967,"o":"m 271 -8 q 243 -1 254 -8 q 232 15 232 6 q 272 46 232 38 q 344 82 324 56 q 364 153 364 108 l 364 342 q 353 420 364 389 q 318 490 342 451 l 136 769 q 90 827 113 806 q 31 858 68 849 q 8 869 15 864 q 0 888 0 875 q 8 903 0 897 q 26 908 15 908 q 94 906 57 908 q 149 904 131 904 q 265 900 206 900 q 313 901 286 900 q 356 904 340 903 q 453 910 417 910 q 478 903 465 910 q 490 889 490 897 q 451 858 490 868 q 390 838 407 849 q 374 803 374 826 q 389 754 374 781 l 535 506 q 557 488 544 488 q 578 506 567 488 q 701 747 651 638 q 715 800 715 778 q 692 841 715 826 q 636 858 668 856 q 608 869 621 860 q 594 889 594 878 q 607 903 594 897 q 635 908 619 908 q 713 904 675 908 q 785 901 760 901 q 849 907 804 901 q 925 913 893 913 q 967 889 967 913 q 959 873 967 878 q 942 865 951 868 q 931 861 933 863 q 859 827 890 850 q 811 774 828 804 q 739 658 764 696 q 639 493 664 535 q 600 356 600 425 l 600 154 q 618 81 600 101 q 692 46 636 61 q 722 35 713 40 q 732 17 732 29 q 722 0 732 7 q 696 -7 711 -7 q 583 -1 667 -7 q 479 4 506 4 q 379 -1 454 4 q 271 -8 317 -8 m 394 953 q 320 984 351 953 q 289 1058 289 1015 q 319 1135 289 1104 q 394 1165 350 1165 q 474 1135 442 1165 q 506 1058 506 1104 q 473 984 506 1015 q 394 953 440 953 m 669 953 q 595 984 626 953 q 564 1058 564 1015 q 594 1135 564 1104 q 669 1165 625 1165 q 749 1135 717 1165 q 781 1058 781 1104 q 748 984 781 1015 q 669 953 715 953 z "},"Ỳ":{"ha":932,"x_min":0,"x_max":967,"o":"m 271 -8 q 243 -1 254 -8 q 232 15 232 6 q 272 46 232 38 q 344 82 324 56 q 364 153 364 108 l 364 342 q 353 420 364 389 q 318 490 342 451 l 136 769 q 90 827 113 806 q 31 858 68 849 q 8 869 15 864 q 0 888 0 875 q 8 903 0 897 q 26 908 15 908 q 94 906 57 908 q 149 904 131 904 q 265 900 206 900 q 313 901 286 900 q 356 904 340 903 q 453 910 417 910 q 478 903 465 910 q 490 889 490 897 q 451 858 490 868 q 390 838 407 849 q 374 803 374 826 q 389 754 374 781 l 535 506 q 557 488 544 488 q 578 506 567 488 q 701 747 651 638 q 715 800 715 778 q 692 841 715 826 q 636 858 668 856 q 608 869 621 860 q 594 889 594 878 q 607 903 594 897 q 635 908 619 908 q 713 904 675 908 q 785 901 760 901 q 849 907 804 901 q 925 913 893 913 q 967 889 967 913 q 959 873 967 878 q 942 865 951 868 q 931 861 933 863 q 859 827 890 850 q 811 774 828 804 q 739 658 764 696 q 639 493 664 535 q 600 356 600 425 l 600 154 q 618 81 600 101 q 692 46 636 61 q 722 35 713 40 q 732 17 732 29 q 722 0 732 7 q 696 -7 711 -7 q 583 -1 667 -7 q 479 4 506 4 q 379 -1 454 4 q 271 -8 317 -8 m 568 946 q 533 957 551 946 l 426 1018 q 293 1094 360 1054 q 265 1125 269 1110 q 303 1160 261 1140 q 368 1182 344 1179 l 379 1183 q 417 1167 400 1183 q 572 990 489 1094 q 589 960 589 969 q 571 946 589 950 l 568 946 z "},"Z":{"ha":826,"x_min":24,"x_max":814,"o":"m 671 -4 l 367 0 l 157 -4 l 50 -7 q 30 12 36 -7 q 29 38 24 31 q 110 169 85 126 q 240 389 165 268 q 340 553 314 510 q 490 797 407 658 q 499 822 499 814 q 478 838 499 838 l 390 838 l 301 838 q 114 717 188 838 q 86 681 100 694 q 53 668 72 668 q 31 693 31 668 q 40 731 31 711 q 69 811 64 781 q 82 915 75 842 q 91 947 85 938 q 114 956 97 956 q 154 936 124 956 q 192 914 179 919 q 233 904 213 906 q 276 903 253 903 q 311 903 300 903 l 472 903 l 622 906 q 786 910 719 910 q 805 895 796 910 q 811 875 814 881 l 714 717 q 558 450 653 617 q 369 129 440 239 q 353 89 353 103 q 361 77 353 81 q 388 72 369 74 q 481 69 429 69 q 587 75 546 69 q 658 96 628 81 q 713 143 689 113 q 758 226 736 174 q 785 243 767 243 q 799 238 793 243 q 806 222 806 232 q 772 67 806 181 l 760 22 q 719 -6 751 -6 l 671 -4 z "},"Ź":{"ha":826,"x_min":28,"x_max":813,"o":"m 671 -4 l 367 0 l 157 -4 l 50 -7 q 30 12 36 -7 q 29 38 24 31 q 110 169 85 126 q 240 389 165 268 q 340 553 314 510 q 490 797 407 658 q 499 822 499 814 q 478 838 499 838 l 390 838 l 301 838 q 114 717 188 838 q 86 681 100 694 q 53 668 72 668 q 31 693 31 668 q 40 731 31 711 q 69 811 64 781 q 82 915 75 842 q 91 947 85 938 q 114 956 97 956 q 154 936 124 956 q 192 914 179 919 q 233 904 213 906 q 276 903 253 903 q 311 903 300 903 l 472 903 l 622 906 q 786 910 719 910 q 805 895 796 910 q 811 875 814 881 l 714 717 q 558 450 653 617 q 369 129 440 239 q 353 89 353 103 q 361 77 353 81 q 388 72 369 74 q 481 69 429 69 q 587 75 546 69 q 658 96 628 81 q 713 143 689 113 q 758 226 736 174 q 785 243 767 243 q 799 238 793 243 q 806 222 806 232 q 772 67 806 181 l 760 22 q 719 -6 751 -6 l 671 -4 m 379 946 q 361 960 361 950 q 378 990 361 969 q 533 1167 461 1094 q 582 1182 553 1186 q 647 1160 606 1179 q 685 1125 689 1140 q 657 1094 681 1110 q 524 1018 590 1054 l 417 957 q 394 947 406 950 q 379 946 383 944 z "},"Ž":{"ha":826,"x_min":28,"x_max":813,"o":"m 671 -4 l 367 0 l 157 -4 l 50 -7 q 30 12 36 -7 q 29 38 24 31 q 110 169 85 126 q 240 389 165 268 q 340 553 314 510 q 490 797 407 658 q 499 822 499 814 q 478 838 499 838 l 390 838 l 301 838 q 114 717 188 838 q 86 681 100 694 q 53 668 72 668 q 31 693 31 668 q 40 731 31 711 q 69 811 64 781 q 82 915 75 842 q 91 947 85 938 q 114 956 97 956 q 154 936 124 956 q 192 914 179 919 q 233 904 213 906 q 276 903 253 903 q 311 903 300 903 l 472 903 l 622 906 q 786 910 719 910 q 805 895 796 910 q 811 875 814 881 l 714 717 q 558 450 653 617 q 369 129 440 239 q 353 89 353 103 q 361 77 353 81 q 388 72 369 74 q 481 69 429 69 q 587 75 546 69 q 658 96 628 81 q 713 143 689 113 q 758 226 736 174 q 785 243 767 243 q 799 238 793 243 q 806 222 806 232 q 772 67 806 181 l 760 22 q 719 -6 751 -6 l 671 -4 m 246 1185 q 331 1160 263 1185 q 432 1118 400 1136 q 450 1113 443 1113 q 468 1118 457 1113 q 570 1162 503 1138 q 657 1186 638 1186 q 674 1181 668 1186 q 681 1167 681 1175 q 669 1143 681 1153 l 524 1011 q 483 978 496 986 q 450 969 469 969 q 419 978 432 969 q 378 1011 406 986 l 231 1144 q 218 1167 218 1156 q 226 1180 218 1175 q 246 1185 233 1185 z "},"Ż":{"ha":826,"x_min":28,"x_max":813,"o":"m 671 -4 l 367 0 l 157 -4 l 50 -7 q 30 12 36 -7 q 29 38 24 31 q 110 169 85 126 q 240 389 165 268 q 340 553 314 510 q 490 797 407 658 q 499 822 499 814 q 478 838 499 838 l 390 838 l 301 838 q 114 717 188 838 q 86 681 100 694 q 53 668 72 668 q 31 693 31 668 q 40 731 31 711 q 69 811 64 781 q 82 915 75 842 q 91 947 85 938 q 114 956 97 956 q 154 936 124 956 q 192 914 179 919 q 233 904 213 906 q 276 903 253 903 q 311 903 300 903 l 472 903 l 622 906 q 786 910 719 910 q 805 895 796 910 q 811 875 814 881 l 714 717 q 558 450 653 617 q 369 129 440 239 q 353 89 353 103 q 361 77 353 81 q 388 72 369 74 q 481 69 429 69 q 587 75 546 69 q 658 96 628 81 q 713 143 689 113 q 758 226 736 174 q 785 243 767 243 q 799 238 793 243 q 806 222 806 232 q 772 67 806 181 l 760 22 q 719 -6 751 -6 l 671 -4 m 450 961 q 363 994 399 961 q 326 1072 326 1026 q 363 1153 326 1119 q 450 1186 399 1186 q 542 1153 504 1186 q 579 1072 579 1119 q 542 994 579 1026 q 450 961 504 961 z "},"Ģ":{"ha":996,"x_min":35,"x_max":964,"o":"m 522 -19 q 276 38 388 -19 q 99 200 164 96 q 35 438 35 304 q 99 676 35 564 q 284 855 164 788 q 563 922 404 922 q 706 907 619 922 q 842 872 793 892 q 872 835 868 861 q 889 667 889 721 q 883 646 889 653 q 865 639 876 639 q 842 646 850 639 q 826 667 833 653 q 754 781 790 744 q 685 828 724 811 q 588 846 646 846 q 425 795 493 846 q 323 660 357 744 q 289 478 289 576 q 352 171 289 282 q 546 60 415 60 q 625 90 582 60 q 647 123 639 100 q 656 176 654 146 q 658 299 658 224 q 622 349 658 335 q 543 374 581 365 q 519 386 529 378 q 508 406 508 394 q 517 421 508 415 q 539 426 526 426 q 654 422 592 426 q 760 419 735 419 q 847 422 786 419 q 942 425 911 425 q 964 404 964 425 q 958 385 964 392 q 938 375 951 378 q 882 350 897 364 q 861 307 867 336 q 851 203 851 260 l 851 156 q 860 138 851 147 q 871 128 869 129 q 885 97 885 114 q 878 77 885 86 q 856 67 871 68 q 817 51 846 65 q 685 1 754 22 q 522 -19 615 -19 m 488 -407 q 456 -389 456 -407 q 460 -376 456 -381 q 476 -365 465 -371 q 549 -272 549 -333 q 534 -228 549 -243 q 488 -206 519 -214 q 448 -182 461 -199 q 435 -135 435 -165 q 459 -87 435 -107 q 525 -68 483 -68 q 625 -108 588 -68 q 663 -210 663 -147 q 630 -314 663 -269 q 554 -383 597 -358 q 488 -407 511 -407 z "},"Ķ":{"ha":1085,"x_min":21,"x_max":1099,"o":"m 60 -8 q 34 -1 47 -8 q 21 17 21 7 q 56 47 21 40 q 124 74 108 57 q 139 135 139 92 l 139 765 q 121 828 139 810 q 47 858 103 846 q 21 889 21 865 q 29 903 21 897 q 46 910 38 910 q 154 906 97 910 q 254 903 229 903 q 358 906 281 903 q 469 908 439 908 q 492 888 492 908 q 485 869 492 875 q 465 858 479 863 q 392 824 408 842 q 375 764 375 806 l 375 476 q 390 456 375 456 q 410 465 399 456 q 424 476 421 474 l 689 765 q 715 808 715 794 q 651 853 715 839 q 625 883 625 860 q 633 898 625 892 q 650 904 642 904 l 750 904 l 881 906 q 1036 908 975 908 q 1063 903 1051 908 q 1074 888 1074 897 q 1061 868 1074 875 q 1032 858 1049 861 q 912 828 963 850 q 818 774 861 807 q 746 712 785 749 q 669 639 707 675 l 583 556 q 574 535 574 547 q 583 511 574 522 l 915 136 q 975 83 944 104 q 1056 47 1006 61 q 1071 42 1058 46 q 1091 33 1083 39 q 1099 18 1099 26 q 1084 0 1099 7 q 1042 -7 1069 -7 q 968 -6 1000 -7 q 915 -3 936 -4 q 782 3 826 3 q 686 -1 732 3 q 594 -4 628 -4 q 578 2 586 -4 q 569 17 569 8 q 596 47 569 40 q 657 88 654 58 q 633 135 657 107 l 422 385 q 389 407 404 407 q 374 385 374 407 q 378 136 374 219 q 384 92 379 107 q 405 67 389 78 q 457 47 421 57 q 483 36 475 42 q 492 18 492 31 q 479 1 492 8 q 453 -6 467 -6 q 329 1 417 -6 q 295 4 314 3 q 254 6 276 6 q 183 0 233 6 q 60 -8 119 -8 m 468 -407 q 436 -389 436 -407 q 441 -376 436 -381 q 457 -365 446 -371 q 529 -272 529 -333 q 515 -228 529 -243 q 468 -206 500 -214 q 428 -182 442 -199 q 415 -135 415 -165 q 440 -87 415 -107 q 506 -68 464 -68 q 606 -108 568 -68 q 643 -210 643 -147 q 610 -314 643 -269 q 535 -383 578 -358 q 468 -407 492 -407 z "},"Ļ":{"ha":814,"x_min":21,"x_max":807,"o":"m 54 -7 q 35 0 42 -7 q 28 15 28 7 q 35 32 28 24 q 56 44 43 40 q 122 75 104 58 q 139 132 139 92 l 139 765 q 121 828 139 810 q 47 858 103 846 q 21 889 21 865 q 29 903 21 897 q 46 910 38 910 q 154 906 97 910 q 254 903 229 903 q 358 906 281 903 q 469 908 439 908 q 492 888 492 908 q 485 869 492 875 q 465 858 479 863 q 392 824 408 842 q 375 764 375 806 l 375 146 q 391 92 375 108 q 443 75 407 75 l 578 75 q 674 114 631 75 q 749 226 713 150 q 770 263 763 256 q 788 271 778 271 q 802 262 797 271 q 807 242 807 253 q 805 228 807 238 q 801 210 803 219 q 772 101 781 136 q 760 19 764 67 q 736 -7 757 -7 l 615 -6 q 254 0 404 0 q 153 -4 207 0 q 54 -7 81 -7 m 356 -407 q 324 -389 324 -407 q 328 -376 324 -381 q 344 -365 333 -371 q 417 -272 417 -333 q 402 -228 417 -243 q 356 -206 388 -214 q 316 -182 329 -199 q 303 -135 303 -165 q 327 -87 303 -107 q 393 -68 351 -68 q 493 -108 456 -68 q 531 -210 531 -147 q 498 -314 531 -269 q 422 -383 465 -358 q 356 -407 379 -407 z "},"Ņ":{"ha":1104,"x_min":14,"x_max":1115,"o":"m 949 -26 q 884 -2 925 -26 q 801 72 843 22 l 261 646 q 246 660 251 660 q 236 633 236 660 q 240 404 236 532 q 243 290 242 354 q 244 157 244 226 q 273 86 244 111 q 360 47 301 61 q 397 18 397 38 q 387 3 397 8 q 364 -3 376 -3 q 272 0 319 -3 l 204 1 q 125 -1 164 1 q 75 -4 86 -3 q 54 2 65 -4 q 43 17 43 8 q 51 34 43 28 q 76 47 60 40 q 146 160 139 72 q 175 706 175 468 q 144 804 175 771 q 51 861 113 838 q 14 892 14 871 q 50 914 14 914 l 156 911 q 332 907 322 907 q 360 893 350 907 l 872 325 q 892 308 886 308 q 903 328 903 308 l 903 474 q 899 768 903 690 q 872 825 897 807 q 790 858 847 843 q 758 888 758 867 q 767 902 758 896 q 788 908 776 908 l 878 907 q 935 906 896 906 l 999 907 q 1082 910 1043 910 q 1106 904 1097 910 q 1115 889 1115 899 q 1081 860 1115 867 q 1010 831 1031 850 q 989 772 989 813 q 979 456 989 689 q 972 236 972 319 q 977 158 972 204 q 983 97 982 111 q 989 42 989 44 q 949 -26 989 -26 m 497 -407 q 465 -389 465 -407 q 470 -376 465 -381 q 486 -365 475 -371 q 558 -272 558 -333 q 544 -228 558 -243 q 497 -206 529 -214 q 458 -182 471 -199 q 444 -135 444 -165 q 469 -87 444 -107 q 535 -68 493 -68 q 635 -108 597 -68 q 672 -210 672 -147 q 640 -314 672 -269 q 564 -383 607 -358 q 497 -407 521 -407 z "},"Ŗ":{"ha":1069,"x_min":21,"x_max":1076,"o":"m 899 -29 q 731 7 792 -29 q 619 110 669 43 q 531 240 569 178 q 456 382 492 303 q 422 424 442 413 q 389 433 407 433 q 375 406 375 433 l 375 136 q 398 78 375 94 q 483 47 421 61 q 503 38 497 44 q 510 18 510 31 q 488 -3 510 -3 l 367 0 l 254 3 q 154 0 229 3 q 46 -4 99 -4 q 29 2 38 -4 q 21 17 21 8 q 47 47 21 40 q 120 76 101 58 q 139 135 139 93 l 139 765 q 122 828 139 810 q 56 858 106 847 q 26 888 26 865 q 34 903 26 897 q 54 910 42 910 q 165 904 104 910 q 253 899 221 899 q 329 904 279 899 q 453 913 390 913 q 708 857 619 913 q 796 690 796 801 q 743 553 796 606 q 614 479 690 501 q 610 472 610 478 q 613 463 610 467 q 740 282 682 358 q 854 153 799 206 q 944 101 897 113 q 1056 90 990 90 q 1076 64 1076 90 q 899 -29 1076 -29 m 424 481 q 533 528 496 481 q 569 657 569 575 q 533 801 569 754 q 429 847 497 847 q 388 822 400 847 q 375 719 375 796 l 375 533 q 424 481 375 481 m 461 -407 q 429 -389 429 -407 q 434 -376 429 -381 q 450 -365 439 -371 q 522 -272 522 -333 q 508 -228 522 -243 q 461 -206 493 -214 q 422 -182 435 -199 q 408 -135 408 -165 q 433 -87 408 -107 q 499 -68 457 -68 q 599 -108 561 -68 q 636 -210 636 -147 q 603 -314 636 -269 q 528 -383 571 -358 q 461 -407 485 -407 z "},"Ţ":{"ha":974,"x_min":25,"x_max":981,"o":"m 283 -4 q 264 2 274 -4 q 254 17 254 8 q 285 47 254 40 q 362 77 340 60 q 383 135 383 94 l 383 715 q 378 808 383 788 q 363 835 374 828 q 306 844 346 844 l 282 844 q 196 822 238 844 q 128 764 154 799 q 85 711 104 732 q 47 690 65 690 q 25 715 25 690 q 35 753 25 733 q 76 849 64 811 q 93 936 89 888 q 129 972 97 972 q 154 950 138 972 q 176 925 165 933 q 222 909 189 915 q 276 903 254 903 l 807 904 q 860 910 836 904 q 894 924 883 917 q 926 949 903 928 q 964 971 949 971 q 981 949 981 971 q 978 922 981 942 q 965 878 975 913 q 951 815 956 843 q 946 765 946 788 l 946 736 q 940 697 946 710 q 922 685 935 685 q 899 697 908 685 q 881 739 890 710 q 831 820 863 796 q 742 844 800 844 l 685 844 q 647 833 660 844 q 626 790 633 822 q 619 699 619 758 l 619 136 q 640 81 619 99 q 717 47 660 64 q 740 36 732 42 q 747 18 747 31 q 740 3 747 8 q 721 -3 732 -3 q 606 0 692 -3 l 499 3 q 396 0 474 3 q 283 -4 336 -4 m 401 -382 q 345 -370 363 -382 q 328 -318 328 -358 q 337 -287 328 -299 q 357 -276 346 -276 q 381 -285 360 -276 q 440 -294 401 -294 q 484 -283 465 -294 q 503 -242 503 -271 q 435 -190 503 -190 q 417 -194 426 -190 q 401 -199 407 -199 q 371 -187 382 -199 q 360 -167 360 -176 q 369 -139 360 -150 l 501 11 l 569 11 l 521 -51 q 514 -67 514 -61 q 526 -81 514 -76 q 615 -194 615 -115 q 582 -285 615 -242 q 498 -355 549 -328 q 401 -382 447 -382 z "},"Ɓ":{"ha":1038,"x_min":-7,"x_max":999,"o":"m 204 -7 q 185 0 192 -7 q 178 15 178 7 q 185 32 178 24 q 206 44 193 40 q 272 75 254 58 q 289 132 289 92 l 289 776 q 233 838 289 838 q 146 814 175 838 q 117 749 117 790 q 140 700 117 721 q 153 689 143 697 q 167 672 163 681 q 172 654 172 664 q 155 616 172 636 q 115 582 138 596 q 79 568 93 568 q 20 610 47 568 q -7 701 -7 653 q 95 858 -7 808 q 374 907 197 907 q 471 911 425 907 q 610 915 583 915 q 865 866 781 915 q 949 706 949 817 q 928 627 949 665 q 874 558 908 589 q 771 507 828 519 q 765 500 765 506 q 771 493 765 494 q 999 269 999 456 q 957 117 999 167 q 851 38 915 68 q 608 -6 761 -6 q 507 -3 574 -6 q 404 0 440 0 q 301 -4 358 0 q 204 -7 232 -7 m 579 511 q 640 519 615 511 q 686 549 664 526 q 713 594 700 563 q 726 674 726 625 q 694 806 726 765 q 596 847 661 847 q 525 789 525 847 l 525 560 q 542 524 525 538 q 579 511 560 511 m 604 75 q 676 99 643 75 q 728 165 708 124 q 747 258 747 207 q 729 355 747 319 q 685 414 711 390 q 646 435 672 425 q 586 444 619 444 q 544 433 564 444 q 525 400 525 422 l 525 161 q 546 97 525 119 q 604 75 567 75 z "},"Ƃ":{"ha":890,"x_min":21,"x_max":835,"o":"m 54 -7 q 35 0 42 -7 q 28 15 28 7 q 35 32 28 24 q 56 44 43 40 q 122 75 104 58 q 139 132 139 92 l 139 765 q 121 828 139 810 q 47 858 103 846 q 21 889 21 865 q 29 903 21 897 q 46 910 38 910 q 154 906 97 910 q 253 903 226 903 l 654 903 q 689 907 672 903 q 718 910 711 910 q 744 905 736 910 q 753 889 753 900 l 757 814 q 760 756 758 788 q 761 692 761 724 q 756 672 761 679 q 743 665 751 665 q 714 688 721 665 q 678 781 692 753 q 639 827 665 810 q 564 844 613 844 l 453 844 q 394 820 415 844 q 374 736 374 796 l 374 565 q 421 517 374 517 q 436 518 429 517 q 476 524 443 519 q 550 528 510 528 q 758 461 682 528 q 835 276 835 394 q 812 156 835 203 q 761 88 789 110 q 692 42 733 65 q 597 6 650 17 q 471 -6 543 -6 q 422 -3 464 -6 q 254 0 381 0 q 153 -4 207 0 q 54 -7 81 -7 m 443 81 q 510 106 478 81 q 562 174 542 131 q 582 271 582 217 q 515 433 582 382 q 424 463 475 463 q 375 418 375 463 l 375 165 q 393 102 375 124 q 443 81 411 81 z "},"Ƅ":{"ha":849,"x_min":21,"x_max":828,"o":"m 47 -7 q 28 0 35 -7 q 21 15 21 7 q 28 32 21 24 q 49 44 36 40 q 115 75 97 58 q 132 132 132 92 l 132 660 q 60 788 132 744 q 36 806 43 797 q 29 824 29 814 q 68 853 29 846 q 279 907 156 867 q 342 924 332 924 q 368 916 363 924 q 374 885 374 908 q 369 817 374 857 l 367 758 l 367 574 q 414 525 367 525 q 429 526 422 525 q 469 532 436 528 q 543 536 503 536 q 749 466 671 536 q 828 278 828 396 q 728 67 828 139 q 464 -6 628 -6 q 415 -3 457 -6 q 247 0 374 0 q 146 -4 200 0 q 47 -7 74 -7 m 436 78 q 503 102 471 78 q 555 169 535 126 q 575 265 575 211 q 508 421 575 369 q 417 449 471 449 q 368 407 368 449 l 368 160 q 386 99 368 121 q 436 78 404 78 z "},"Ɔ":{"ha":985,"x_min":69,"x_max":950,"o":"m 424 922 q 690 865 569 922 q 880 703 810 807 q 950 465 950 599 q 882 226 950 338 q 685 48 814 115 q 383 -19 557 -19 q 251 -5 322 -19 q 128 31 179 10 q 97 68 100 43 q 86 236 86 144 q 93 255 86 249 q 110 261 100 261 q 128 255 119 261 q 142 236 138 249 q 167 171 156 196 q 199 125 178 146 q 396 57 264 57 q 554 108 486 57 q 659 243 622 158 q 696 425 696 328 q 619 731 696 618 q 396 843 543 843 q 229 801 293 843 q 122 664 165 758 q 92 640 113 640 q 76 647 82 640 q 69 664 69 653 q 99 828 69 728 q 135 869 106 856 q 424 922 251 922 z "},"Ƈ":{"ha":1064,"x_min":35,"x_max":1135,"o":"m 556 -19 q 292 38 411 -19 q 103 200 172 96 q 35 438 35 304 q 102 676 35 565 q 297 855 169 788 q 596 922 424 922 q 692 913 640 922 q 790 890 744 904 q 803 888 796 888 q 818 894 815 888 q 880 978 835 949 q 981 1007 925 1007 q 1099 981 1063 1007 q 1135 914 1135 954 q 1116 862 1135 885 q 1072 839 1097 839 q 1026 850 1043 839 q 996 882 1010 861 q 983 906 992 889 q 964 931 974 922 q 940 939 954 939 q 889 905 904 939 q 874 822 874 871 q 878 757 874 793 q 881 715 879 743 q 882 667 882 688 q 874 648 882 654 q 856 642 867 642 q 835 648 844 642 q 821 667 825 654 q 798 731 810 704 q 768 778 786 757 q 582 846 707 846 q 424 795 490 846 q 324 660 358 744 q 289 478 289 576 q 362 172 289 283 q 582 60 435 60 q 738 101 681 60 q 838 239 796 143 q 871 263 847 263 q 888 256 881 263 q 896 239 896 250 q 868 75 896 171 q 833 33 861 47 q 556 -19 721 -19 z "},"Ɖ":{"ha":1068,"x_min":21,"x_max":1033,"o":"m 547 915 q 788 858 676 915 q 967 699 900 801 q 1033 465 1033 596 q 975 231 1033 340 q 803 56 917 122 q 535 -10 690 -10 q 326 -3 472 -10 l 254 0 l 154 -1 q 46 -4 79 -4 q 29 2 38 -4 q 21 17 21 8 q 47 47 21 40 q 120 76 101 58 q 139 135 139 93 l 139 422 l 79 422 q 54 435 63 422 q 46 465 46 449 q 57 497 46 485 q 86 508 68 508 l 139 508 l 139 765 q 121 828 139 810 q 47 858 103 846 q 21 889 21 865 q 29 903 21 897 q 46 910 38 910 q 154 906 97 910 q 254 903 229 903 q 379 908 276 903 q 547 915 532 915 m 513 67 q 713 162 646 67 q 779 425 779 257 q 708 724 779 614 q 499 835 638 835 q 401 827 428 835 q 375 789 375 819 l 375 508 l 503 508 q 526 501 517 508 q 535 482 535 493 l 533 475 q 513 438 529 454 q 475 422 497 422 l 375 422 l 375 186 q 408 94 375 122 q 513 67 440 67 z "},"Ɗ":{"ha":1218,"x_min":-7,"x_max":1183,"o":"m 685 -10 q 476 -3 622 -10 l 404 0 l 304 -1 q 196 -4 229 -4 q 179 2 188 -4 q 171 17 171 8 q 197 47 171 40 q 270 76 251 58 q 289 135 289 93 l 289 776 q 233 838 289 838 q 146 814 175 838 q 117 749 117 790 q 140 700 117 721 q 153 689 143 697 q 167 672 163 681 q 172 654 172 664 q 155 616 172 636 q 115 582 138 596 q 79 568 93 568 q 20 610 47 568 q -7 701 -7 653 q 102 861 -7 813 q 399 907 211 910 q 526 911 446 907 q 608 914 563 913 q 697 915 653 915 q 938 858 826 915 q 1117 699 1050 801 q 1183 465 1183 596 q 1125 231 1183 340 q 953 56 1067 122 q 685 -10 840 -10 m 663 67 q 863 162 796 67 q 929 425 929 257 q 858 724 929 614 q 649 835 788 835 q 556 812 586 835 q 525 740 525 789 l 525 186 q 558 94 525 122 q 663 67 590 67 z "},"Ƌ":{"ha":851,"x_min":18,"x_max":831,"o":"m 806 -6 q 746 -4 775 -6 q 693 -1 717 -3 q 589 3 635 3 q 482 0 565 3 q 331 -3 382 -3 q 101 67 183 -3 q 18 253 18 136 q 63 399 18 333 q 183 501 108 464 q 343 539 257 539 q 454 517 414 539 q 468 514 458 514 q 476 529 475 514 q 478 583 478 544 l 478 785 q 410 844 478 844 l 292 844 q 208 806 240 844 q 144 688 176 767 q 131 667 139 675 q 115 660 122 660 q 98 669 107 660 q 89 692 89 679 q 106 838 89 726 l 115 913 q 147 943 119 943 q 183 931 161 943 q 233 910 206 918 q 307 901 260 901 l 631 903 q 717 906 656 903 q 808 908 778 908 q 831 888 831 908 q 824 869 831 875 q 804 858 818 863 q 731 824 747 842 q 714 764 714 806 l 714 136 q 732 79 714 97 q 804 46 750 61 q 824 35 818 42 q 831 17 831 29 q 824 1 831 7 q 806 -6 817 -6 m 406 68 q 478 144 478 68 l 478 346 q 454 438 478 411 q 382 464 431 464 q 339 456 360 464 q 307 435 318 447 q 279 378 289 411 q 269 278 269 344 q 306 126 269 183 q 406 68 343 68 z "},"Ǝ":{"ha":801,"x_min":19,"x_max":781,"o":"m 753 -7 q 772 0 765 -7 q 779 15 779 7 q 772 32 779 24 q 751 44 764 40 q 685 75 703 58 q 668 132 668 92 l 668 765 q 685 828 668 810 q 751 858 701 847 q 781 888 781 865 q 773 903 781 897 q 753 910 765 910 q 649 906 703 910 q 553 903 579 903 q 229 907 367 903 q 156 913 186 907 q 122 918 126 918 q 99 911 110 918 q 86 889 88 904 q 74 804 82 843 q 63 701 63 726 q 67 681 63 689 q 81 674 72 674 q 97 680 89 674 q 110 697 104 686 q 140 768 131 749 q 164 801 150 788 q 207 833 183 821 q 265 846 231 846 l 353 846 q 410 828 388 846 q 432 782 432 811 l 432 526 q 396 493 432 493 l 278 493 q 230 514 246 493 q 197 579 214 535 q 168 604 186 604 q 156 595 161 604 q 151 572 150 586 q 158 457 158 506 q 153 342 158 397 l 153 331 q 167 303 153 303 q 186 313 176 303 q 200 336 196 322 q 229 406 213 383 q 271 428 246 428 l 401 428 q 432 396 432 428 l 432 133 q 416 79 432 96 q 364 63 400 63 l 240 63 q 139 94 176 63 q 60 206 99 128 q 33 222 51 222 q 19 194 19 222 q 26 140 19 169 q 49 64 33 111 l 64 11 q 97 -6 69 -6 l 151 -4 q 553 0 422 0 q 654 -4 600 0 q 753 -7 726 -7 z "},"Ɛ":{"ha":783,"x_min":39,"x_max":721,"o":"m 383 -19 q 219 13 299 -19 q 89 106 139 44 q 39 251 39 168 q 231 499 39 431 q 238 505 238 500 q 231 513 238 510 q 97 686 97 571 q 147 812 97 758 q 278 894 197 865 q 449 922 360 922 q 560 910 507 922 q 651 881 614 899 q 681 843 678 868 q 692 675 692 767 q 684 656 692 663 q 664 650 676 650 q 643 656 653 650 q 631 675 633 663 q 570 813 611 768 q 450 858 529 858 q 342 809 388 858 q 297 693 297 760 q 324 581 297 629 q 394 532 351 532 q 449 539 424 532 q 513 546 488 546 q 557 531 533 546 q 581 490 581 515 q 558 453 581 463 q 507 444 535 444 q 439 451 481 444 q 393 460 406 460 q 303 418 331 460 q 275 311 275 376 q 323 122 275 188 q 469 56 371 56 q 578 90 535 56 q 644 196 621 124 q 668 250 656 231 q 686 269 681 269 q 710 262 699 269 q 721 244 721 254 q 700 113 721 211 l 693 81 q 674 47 689 63 q 640 25 658 32 q 383 -19 540 -19 z "},"Ƒ":{"ha":801,"x_min":-118,"x_max":776,"o":"m 86 -278 q -67 -256 -15 -278 q -118 -194 -118 -235 q -93 -138 -118 -165 q -43 -111 -68 -111 q 14 -143 -15 -111 q 46 -185 29 -160 q 56 -199 49 -187 q 70 -215 64 -210 q 83 -219 76 -219 q 172 13 172 -219 l 171 765 q 154 828 171 810 q 88 858 138 846 q 58 888 58 865 q 66 903 58 897 q 86 910 74 910 q 190 906 136 910 q 286 903 260 903 l 544 903 q 668 913 583 903 q 733 918 718 918 q 757 911 746 918 q 769 889 768 904 q 776 692 776 771 q 772 672 776 679 q 758 664 767 664 q 741 670 750 664 q 729 688 732 676 q 706 757 718 729 q 676 803 694 785 q 574 839 640 839 l 486 839 q 429 822 451 839 q 407 775 407 804 l 407 663 l 407 538 q 443 504 407 504 l 572 504 q 622 522 606 504 q 653 579 638 540 q 682 604 664 604 q 694 595 689 604 q 699 572 700 586 q 692 457 692 506 q 697 350 692 406 l 697 339 q 683 311 697 311 q 664 321 674 311 q 650 344 654 331 q 622 402 638 386 q 579 418 606 418 l 515 418 l 435 418 q 404 386 404 418 l 406 233 q 378 -1 406 101 q 301 -169 351 -103 q 86 -278 218 -278 z "},"Ɠ":{"ha":1088,"x_min":35,"x_max":1135,"o":"m 522 -19 q 276 38 388 -19 q 99 200 164 96 q 35 438 35 304 q 99 676 35 564 q 284 855 164 788 q 563 922 404 922 q 671 913 606 922 q 790 889 736 903 q 800 888 793 888 q 821 903 815 888 q 882 978 838 950 q 981 1007 926 1007 q 1099 981 1063 1007 q 1135 914 1135 954 q 1116 862 1135 885 q 1072 839 1097 839 q 996 882 1021 839 q 983 906 992 889 q 964 931 974 922 q 940 939 954 939 q 892 903 911 939 q 874 831 874 868 q 881 765 874 814 q 889 667 889 696 q 883 646 889 653 q 865 639 876 639 q 842 646 850 639 q 826 667 833 653 q 754 781 790 744 q 685 828 724 811 q 588 846 646 846 q 425 795 493 846 q 323 660 357 744 q 289 478 289 576 q 352 171 289 282 q 546 60 415 60 q 625 90 582 60 q 647 123 639 100 q 656 176 654 146 q 658 299 658 224 q 622 349 658 335 q 543 374 581 365 q 519 386 529 378 q 508 406 508 394 q 517 421 508 415 q 539 426 526 426 q 654 422 592 426 q 760 419 735 419 q 847 422 786 419 q 942 425 911 425 q 964 404 964 425 q 958 385 964 392 q 938 375 951 378 q 882 350 897 364 q 861 307 867 336 q 851 203 851 260 l 851 156 q 860 138 851 147 q 871 128 869 129 q 885 97 885 114 q 878 77 885 86 q 856 67 871 68 q 817 51 846 65 q 685 1 754 22 q 522 -19 615 -19 z "},"Ɩ":{"ha":614,"x_min":11,"x_max":607,"o":"m 357 -15 q 187 53 244 -15 q 129 240 129 121 l 129 765 q 111 828 129 810 q 38 858 93 846 q 11 889 11 865 q 19 903 11 897 q 36 910 28 910 q 144 906 88 910 q 244 903 219 903 q 349 906 271 903 q 460 908 429 908 q 482 888 482 908 q 476 869 482 875 q 456 858 469 863 q 382 824 399 842 q 365 764 365 806 l 365 285 q 387 153 365 192 q 458 115 408 115 q 502 126 482 115 q 549 154 522 136 q 560 163 551 157 q 575 169 568 169 q 597 160 588 169 q 607 133 607 151 q 586 81 607 103 q 491 13 549 42 q 357 -15 433 -15 z "},"Ɨ":{"ha":521,"x_min":25,"x_max":496,"o":"m 379 419 l 379 136 q 397 80 379 97 q 469 47 415 63 q 490 37 483 43 q 496 18 496 31 q 474 -3 496 -3 q 363 0 443 -3 q 258 3 285 3 q 158 0 233 3 q 50 -4 101 -4 q 33 2 42 -4 q 25 17 25 8 q 51 47 25 40 q 124 76 106 58 q 143 135 143 93 l 143 419 l 78 419 q 53 433 61 419 q 44 463 44 446 q 56 494 44 482 q 85 506 67 506 l 143 506 l 143 765 q 125 828 143 810 q 51 858 107 846 q 25 889 25 865 q 33 903 25 897 q 50 910 42 910 q 158 906 103 910 q 258 903 233 903 q 363 906 285 903 q 474 908 443 908 q 496 888 496 908 q 490 869 496 875 q 469 858 483 863 q 396 824 413 842 q 379 764 379 806 l 379 506 l 464 506 q 487 498 478 506 q 496 479 496 490 l 494 472 q 474 435 490 451 q 436 419 458 419 l 379 419 z "},"Ƙ":{"ha":1101,"x_min":21,"x_max":1115,"o":"m 60 -8 q 34 -1 47 -8 q 21 17 21 7 q 56 47 21 40 q 124 74 108 57 q 139 135 139 92 l 139 765 q 121 828 139 810 q 47 858 103 846 q 21 889 21 865 q 29 903 21 897 q 46 910 38 910 q 154 906 97 910 q 254 903 229 903 q 358 906 281 903 q 469 908 439 908 q 492 888 492 908 q 485 869 492 875 q 465 858 479 863 q 392 824 408 842 q 375 764 375 806 l 375 476 q 390 456 375 456 q 410 465 399 456 q 424 476 421 474 l 690 788 q 809 890 750 857 q 933 924 868 924 q 1066 883 1024 924 q 1108 782 1108 843 q 1087 710 1108 740 q 1031 679 1065 679 q 972 697 994 679 q 935 750 949 715 q 908 798 922 782 q 869 814 894 814 q 828 801 854 814 q 781 763 803 788 l 757 738 q 589 551 651 624 q 578 528 578 538 q 589 507 578 518 l 932 136 q 992 82 963 103 q 1072 47 1022 61 q 1088 42 1075 46 q 1108 33 1100 39 q 1115 18 1115 26 q 1101 0 1115 7 q 1058 -7 1086 -7 q 985 -6 1017 -7 q 932 -3 953 -4 q 799 3 843 3 q 703 -1 749 3 q 611 -4 644 -4 q 594 2 603 -4 q 586 17 586 8 q 613 47 586 40 q 674 88 671 58 q 650 135 674 107 l 422 385 q 389 407 404 407 q 374 385 374 407 q 378 136 374 219 q 384 92 379 107 q 405 67 389 78 q 457 47 421 57 q 483 36 475 42 q 492 18 492 31 q 479 1 492 8 q 453 -6 467 -6 q 329 1 417 -6 q 295 4 314 3 q 254 6 276 6 q 183 0 233 6 q 60 -8 119 -8 z "},"Ɯ":{"ha":1521,"x_min":11,"x_max":1500,"o":"m 403 -18 q 191 70 261 -18 q 121 358 121 158 l 121 765 q 104 828 121 810 q 38 858 88 846 q 11 889 11 865 q 19 903 11 897 q 36 910 28 910 q 140 906 86 910 q 236 903 210 903 q 340 906 263 903 q 451 908 421 908 q 474 888 474 908 q 467 869 474 875 q 447 858 461 863 q 374 824 390 842 q 357 764 357 806 l 357 354 q 387 186 357 254 q 489 118 417 118 q 601 188 568 118 q 633 360 633 257 l 635 764 q 618 824 635 806 q 544 858 601 842 q 524 869 531 863 q 518 888 518 875 q 540 908 518 908 q 651 906 571 908 q 756 903 729 903 q 851 906 782 903 q 956 910 906 910 q 973 903 965 910 q 981 889 981 897 q 954 858 981 865 q 888 828 904 846 q 871 765 871 810 l 871 354 q 900 185 871 253 q 1001 118 929 118 q 1113 188 1081 118 q 1146 360 1146 257 l 1147 764 q 1131 824 1147 806 q 1057 858 1114 842 q 1037 869 1043 863 q 1031 888 1031 875 q 1053 908 1031 908 q 1164 906 1083 908 q 1268 903 1242 903 q 1364 906 1294 903 q 1468 910 1418 910 q 1485 903 1478 910 q 1493 889 1493 897 q 1467 858 1493 865 q 1400 828 1417 846 q 1383 765 1383 810 l 1383 136 q 1401 80 1383 97 q 1474 47 1419 63 q 1494 37 1488 43 q 1500 18 1500 31 q 1478 -3 1500 -3 q 1367 0 1447 -3 q 1263 3 1289 3 q 1199 -4 1251 3 q 1181 -7 1190 -6 q 1161 -8 1171 -8 q 1147 7 1147 -8 q 1151 43 1147 25 q 1154 74 1154 63 l 1154 90 q 1151 107 1154 103 q 1140 111 1149 111 q 1121 93 1135 111 q 1036 15 1089 50 q 914 -19 983 -19 q 772 19 835 -19 q 668 121 710 57 q 650 132 661 132 q 632 121 639 132 q 537 18 590 54 q 403 -18 483 -18 z "},"Ɲ":{"ha":1104,"x_min":-192,"x_max":1090,"o":"m 14 -354 q -128 -330 -64 -354 q -192 -258 -192 -306 q -178 -203 -192 -231 q -144 -175 -165 -175 q -97 -184 -115 -175 q -62 -215 -78 -193 q 44 -272 -21 -272 q 155 -158 122 -272 q 189 206 188 -43 l 189 249 q 175 706 189 410 q 142 806 172 772 q 51 861 111 839 q 14 892 14 871 q 50 914 14 914 l 156 911 q 332 907 322 907 q 360 893 350 907 q 578 640 504 724 q 847 325 761 429 q 867 308 861 308 q 878 328 878 308 l 878 526 q 874 768 878 703 q 847 826 872 807 q 765 858 822 844 q 733 888 733 867 q 742 902 733 896 q 763 908 751 908 l 853 907 q 910 906 871 906 l 974 907 q 1057 910 1018 910 q 1081 904 1072 910 q 1090 889 1090 899 q 1056 860 1090 867 q 985 831 1006 850 q 964 772 964 813 q 954 456 964 689 q 947 236 947 319 q 952 158 947 204 q 958 97 957 111 q 964 42 964 44 q 924 -26 964 -26 q 859 -2 900 -26 q 776 72 818 22 q 626 243 715 146 q 504 376 536 340 q 261 646 354 539 q 246 660 251 660 q 236 633 236 660 q 242 519 239 558 q 253 186 251 319 l 253 140 q 233 -129 253 -22 q 161 -295 214 -236 q 14 -354 108 -354 z "},"Ɵ":{"ha":1054,"x_min":35,"x_max":1019,"o":"m 533 922 q 774 865 663 922 q 953 703 886 807 q 1019 465 1019 599 q 961 226 1019 338 q 790 48 903 115 q 521 -19 676 -19 q 280 38 392 -19 q 101 200 168 96 q 35 438 35 304 q 93 676 35 565 q 265 855 151 788 q 533 922 378 922 m 506 856 q 342 761 399 856 q 286 510 286 667 l 286 503 l 761 503 q 678 755 743 654 q 506 856 613 856 m 546 46 q 710 140 653 46 q 768 393 768 235 l 768 425 l 290 425 q 369 156 304 265 q 546 46 435 46 z "},"Ƣ":{"ha":1378,"x_min":35,"x_max":1364,"o":"m 1338 -347 q 1358 -358 1351 -351 q 1364 -376 1364 -364 q 1342 -397 1364 -397 q 1231 -394 1311 -397 q 1126 -392 1153 -392 q 1026 -394 1101 -392 q 918 -399 971 -399 q 901 -392 910 -399 q 893 -378 893 -386 q 919 -347 893 -354 q 993 -317 975 -333 q 1011 -260 1011 -301 l 1018 588 q 976 777 1019 717 q 832 838 932 838 q 763 828 797 838 q 874 676 835 768 q 913 465 913 583 q 860 226 913 338 q 708 48 808 115 q 468 -19 607 -19 q 253 38 353 -19 q 94 200 154 96 q 35 438 35 304 q 87 676 35 565 q 240 855 139 788 q 479 922 340 922 q 690 875 599 922 q 903 921 779 921 q 1171 819 1085 921 q 1254 513 1257 717 l 1247 -258 q 1265 -312 1247 -296 q 1338 -347 1282 -329 m 504 54 q 664 393 664 54 q 612 725 664 600 q 446 850 560 850 q 323 760 363 850 q 283 510 283 669 q 338 178 283 301 q 504 54 392 54 z "},"Ƥ":{"ha":1010,"x_min":-7,"x_max":975,"o":"m 196 -4 q 179 2 188 -4 q 171 17 171 8 q 197 47 171 40 q 270 76 251 58 q 289 135 289 93 l 289 776 q 233 838 289 838 q 146 814 175 838 q 117 749 117 790 q 140 700 117 721 q 153 689 143 697 q 167 672 163 681 q 172 654 172 664 q 155 616 172 636 q 115 582 138 596 q 79 568 93 568 q 20 610 47 568 q -7 701 -7 653 q 399 907 -7 907 q 478 914 426 907 q 581 922 547 922 q 870 851 765 922 q 975 644 975 781 q 936 480 975 554 q 821 362 897 406 q 633 318 744 318 q 577 329 597 318 q 557 357 557 340 q 566 373 557 367 q 583 379 575 379 q 610 376 594 379 q 639 372 626 372 q 718 435 690 372 q 746 604 746 499 q 710 792 746 733 q 604 851 674 851 q 526 778 526 851 l 525 136 q 548 78 525 94 q 633 47 571 61 q 653 38 647 44 q 660 18 660 31 q 638 -3 660 -3 l 517 0 l 404 3 q 304 0 379 3 q 196 -4 249 -4 z "},"Ʀ":{"ha":958,"x_min":21,"x_max":1063,"o":"m 885 -174 q 717 -137 778 -174 q 606 -35 656 -101 q 525 88 558 29 q 456 229 492 147 q 422 264 446 250 q 389 274 407 274 q 375 246 375 274 l 375 136 q 393 80 375 97 q 465 47 411 63 q 485 37 479 43 q 492 18 492 31 q 469 -3 492 -3 q 358 0 439 -3 q 254 3 281 3 q 154 0 229 3 q 46 -4 99 -4 q 29 2 38 -4 q 21 17 21 8 q 47 47 21 40 q 120 76 101 58 q 139 135 139 93 l 139 765 q 121 828 139 810 q 47 858 103 846 q 21 889 21 865 q 29 903 21 897 q 46 910 38 910 q 154 906 97 910 q 254 903 229 903 q 358 906 281 903 q 469 908 439 908 q 492 888 492 908 q 485 869 492 875 q 465 858 479 863 q 392 825 410 842 q 375 772 375 808 q 382 767 375 767 q 408 768 389 767 q 453 769 426 769 q 708 712 621 769 q 796 542 796 654 q 631 314 796 388 q 626 307 626 313 q 629 297 626 301 l 675 226 q 763 98 729 144 q 840 10 797 51 q 930 -43 883 -32 q 1042 -54 976 -54 q 1063 -81 1063 -54 q 885 -174 1063 -174 m 424 338 q 533 385 496 338 q 569 514 569 432 q 538 659 569 614 q 442 704 506 704 q 390 689 406 704 q 375 640 375 674 l 375 390 q 424 338 375 338 z "},"Ƨ":{"ha":694,"x_min":49,"x_max":667,"o":"m 386 -19 q 610 38 515 -19 q 642 72 633 51 q 667 242 667 138 q 665 286 667 271 q 639 304 665 304 q 619 301 625 304 q 608 286 614 297 q 513 113 575 178 q 368 47 450 47 q 276 87 308 47 q 244 175 244 126 q 279 269 244 233 q 403 354 314 306 q 528 431 481 396 q 608 520 575 465 q 640 651 640 575 q 596 794 640 732 q 475 889 551 856 q 308 922 399 922 q 208 912 258 922 q 124 888 157 901 q 99 872 106 881 q 85 842 92 864 q 71 674 71 786 q 78 661 71 667 q 97 656 85 656 q 119 662 110 656 q 132 678 129 668 q 201 807 154 763 q 317 851 249 851 q 440 733 440 851 q 397 652 440 690 q 254 556 353 614 q 92 420 136 485 q 49 263 49 356 q 138 50 49 119 q 386 -19 228 -19 z "},"Ʃ":{"ha":856,"x_min":25,"x_max":839,"o":"m 88 -8 q 44 2 57 -8 q 31 35 31 13 q 64 87 31 49 q 193 228 97 125 q 372 421 293 333 q 379 438 379 428 q 369 458 379 446 l 340 490 q 101 765 176 676 q 25 863 25 853 q 57 901 25 901 l 207 900 q 388 897 321 897 l 608 899 q 700 917 664 899 q 722 930 707 921 q 751 939 738 939 q 785 904 781 939 l 796 826 q 804 764 797 811 q 811 692 811 717 q 806 672 811 679 q 793 664 801 664 q 777 670 785 664 q 764 688 769 676 q 728 756 746 729 q 689 801 711 783 q 590 833 653 829 q 376 840 486 840 q 350 831 350 840 q 356 818 350 826 q 569 567 494 635 q 583 540 583 556 q 567 510 583 525 q 440 386 503 453 q 293 225 376 319 q 289 214 289 219 q 304 201 289 204 q 631 192 421 192 q 710 203 681 192 q 761 246 740 215 q 791 283 778 271 q 815 296 804 296 q 834 287 829 296 q 839 269 839 278 q 836 256 839 261 q 793 130 815 204 q 764 22 771 56 q 760 10 763 19 q 751 -3 757 1 q 738 -7 746 -7 q 683 -3 708 -7 q 632 0 650 0 q 378 1 543 1 q 215 0 265 1 q 135 -6 158 -3 q 88 -8 104 -8 z "},"Ƭ":{"ha":974,"x_min":-7,"x_max":981,"o":"m 283 -4 q 264 2 274 -4 q 254 17 254 8 q 285 47 254 40 q 362 77 340 60 q 383 135 383 94 l 383 750 q 377 803 383 788 q 356 826 371 818 q 272 838 336 838 l 233 838 q 147 808 176 838 q 117 736 117 779 q 140 688 117 708 q 153 676 143 685 q 167 660 163 668 q 172 642 172 651 q 155 603 172 624 q 115 569 138 583 q 79 556 93 556 q 20 598 47 556 q -7 689 -7 640 q 78 852 -7 804 q 321 901 164 900 l 772 904 q 834 912 806 904 q 878 928 863 919 q 914 957 896 938 q 940 978 931 972 q 960 985 949 985 q 981 957 981 985 q 976 926 981 938 q 954 842 963 888 q 946 760 946 796 l 946 731 q 940 692 946 704 q 922 679 935 679 q 899 692 908 679 q 881 733 890 704 q 832 817 863 790 q 747 843 801 843 l 679 843 q 633 827 646 843 q 619 779 619 811 l 619 136 q 640 81 619 99 q 717 47 660 64 q 740 36 732 42 q 747 18 747 31 q 740 3 747 8 q 721 -3 732 -3 q 606 0 692 -3 l 499 3 q 396 0 474 3 q 283 -4 336 -4 z "},"Ʈ":{"ha":974,"x_min":25,"x_max":981,"o":"m 738 -278 q 538 -215 617 -278 q 424 -62 460 -153 q 386 111 388 28 l 383 715 q 378 808 383 788 q 363 835 374 828 q 306 844 346 844 l 282 844 q 196 822 238 844 q 128 764 154 799 q 85 711 104 732 q 47 690 65 690 q 25 715 25 690 q 35 753 25 733 q 75 847 63 808 q 93 936 88 886 q 129 972 97 972 q 154 950 138 972 q 176 925 165 933 q 222 909 189 915 q 276 903 254 903 l 807 904 q 860 910 836 904 q 894 924 883 917 q 922 947 906 931 q 945 965 936 960 q 964 971 954 971 q 981 949 981 971 q 978 922 981 932 q 965 878 975 913 q 951 815 956 843 q 946 765 946 788 l 946 736 q 940 697 946 710 q 922 685 935 685 q 899 697 908 685 q 881 739 890 710 q 831 820 863 796 q 742 844 800 844 l 685 844 q 647 833 660 844 q 626 790 633 822 q 619 699 619 758 l 621 13 q 708 -219 621 -219 q 724 -212 717 -219 q 743 -187 731 -206 q 778 -143 760 -164 q 835 -111 807 -111 q 885 -138 860 -111 q 910 -194 910 -165 q 863 -256 910 -233 q 738 -278 817 -278 z "},"Ʊ":{"ha":1135,"x_min":14,"x_max":1144,"o":"m 1035 908 q 1069 889 1064 908 q 1106 775 1079 850 q 1133 695 1121 735 q 1144 636 1144 656 q 1138 618 1144 625 q 1122 611 1132 611 q 1094 631 1103 611 q 1031 697 1072 682 q 922 713 990 713 l 833 713 q 822 703 822 713 q 835 685 822 693 q 1007 537 956 615 q 1058 344 1058 458 q 993 148 1058 231 q 819 23 928 65 q 579 -19 710 -19 q 340 23 449 -19 q 165 148 231 65 q 100 344 100 231 q 151 537 100 458 q 324 685 203 615 q 336 701 336 693 q 325 713 336 708 l 193 713 q 64 631 99 713 q 36 611 56 611 q 20 618 26 611 q 14 636 14 625 q 26 695 14 656 q 53 775 38 735 q 89 889 79 850 q 124 908 94 908 l 236 906 l 363 904 q 514 903 411 903 q 524 888 524 903 q 513 840 524 868 q 489 799 503 813 q 391 644 432 747 q 350 425 350 542 q 408 149 350 253 q 579 44 465 44 q 751 149 693 44 q 808 425 808 253 q 767 644 808 542 q 669 799 726 747 q 644 842 654 814 q 635 888 635 869 q 644 903 635 903 q 800 904 750 903 l 913 906 l 1035 908 z "},"Ʋ":{"ha":1017,"x_min":11,"x_max":968,"o":"m 482 -19 q 283 26 363 -19 q 167 147 204 72 q 129 308 129 221 l 129 765 q 111 828 129 810 q 38 858 93 846 q 11 889 11 865 q 19 903 11 897 q 36 910 28 910 q 144 906 88 910 q 244 903 219 903 q 342 906 272 903 q 447 908 417 908 q 469 888 469 908 q 463 869 469 875 q 443 858 457 863 q 381 825 397 844 q 365 764 365 806 l 365 297 q 403 114 365 176 q 513 51 440 51 q 670 178 613 51 q 728 532 728 306 q 703 771 728 671 q 636 871 678 871 q 617 860 624 871 q 604 833 610 849 q 594 807 599 817 q 574 769 586 783 q 539 756 561 756 q 497 772 513 756 q 482 815 482 789 q 531 890 482 858 q 661 922 579 922 q 818 874 749 922 q 928 740 888 826 q 968 544 968 654 q 905 252 968 381 q 731 52 842 124 q 482 -19 621 -19 z "},"Ƴ":{"ha":1001,"x_min":0,"x_max":1081,"o":"m 271 -8 q 243 -1 254 -8 q 232 15 232 6 q 272 46 232 38 q 344 82 324 56 q 364 153 364 108 l 364 342 q 353 420 364 389 q 318 490 342 451 l 136 769 q 90 827 113 806 q 31 858 68 849 q 8 869 15 864 q 0 888 0 875 q 8 903 0 897 q 26 908 15 908 q 94 906 57 908 q 149 904 131 904 q 265 900 206 900 q 313 901 286 900 q 356 904 340 903 q 453 910 417 910 q 478 903 465 910 q 490 889 490 897 q 451 858 490 868 q 390 838 407 849 q 374 803 374 826 q 389 754 374 781 l 529 510 q 551 492 540 492 q 572 510 564 492 l 611 588 q 712 779 672 714 q 803 883 751 844 q 929 922 856 922 q 1040 883 1000 922 q 1081 785 1081 844 q 1054 714 1081 744 q 992 683 1028 683 q 917 746 942 683 q 893 789 906 774 q 863 804 881 804 q 756 715 811 804 q 639 478 701 626 q 624 442 635 468 q 606 392 613 417 q 600 340 600 367 l 600 154 q 618 81 600 101 q 692 46 636 61 q 722 35 713 40 q 732 17 732 29 q 722 0 732 7 q 696 -7 711 -7 q 583 -1 667 -7 q 479 4 506 4 q 379 -1 454 4 q 271 -8 317 -8 z "},"Ƶ":{"ha":826,"x_min":24,"x_max":814,"o":"m 714 717 q 590 506 664 636 l 689 506 q 712 498 703 506 q 721 479 721 490 l 719 472 q 699 435 715 451 q 661 419 683 419 l 542 419 q 369 129 425 217 q 353 89 353 103 q 361 77 353 81 q 388 72 369 74 q 481 69 429 69 q 587 75 546 69 q 658 96 628 81 q 713 143 689 113 q 758 226 736 174 q 785 243 767 243 q 799 238 793 243 q 806 222 806 232 q 772 67 806 181 l 760 22 q 719 -6 751 -6 l 671 -4 l 367 0 l 157 -4 l 50 -7 q 30 12 36 -7 q 29 38 24 31 q 110 169 85 126 q 258 419 189 307 l 151 419 q 126 433 135 419 q 118 463 118 446 q 129 494 118 482 q 158 506 140 506 l 311 506 l 349 567 q 490 797 432 700 q 499 822 499 814 q 478 838 499 838 l 390 838 l 301 838 q 114 717 188 838 q 86 681 100 694 q 53 668 72 668 q 31 693 31 668 q 40 731 31 711 q 69 811 64 781 q 82 915 75 842 q 91 947 85 938 q 114 956 97 956 q 154 936 124 956 q 192 914 179 919 q 233 904 213 906 q 276 903 253 903 q 311 903 300 903 l 472 903 l 622 906 q 786 910 719 910 q 805 895 796 910 q 811 875 814 881 l 714 717 z "},"Ʒ":{"ha":775,"x_min":49,"x_max":726,"o":"m 365 -18 q 219 -3 281 -18 q 108 43 157 11 q 76 85 88 57 q 56 170 64 114 q 49 276 49 226 q 59 301 49 292 q 82 310 69 310 q 93 306 89 310 q 100 294 97 303 q 208 112 146 174 q 335 50 269 50 q 440 107 401 50 q 478 271 478 164 q 426 410 478 358 q 292 461 374 461 q 267 460 276 461 q 246 460 258 460 q 212 467 222 460 q 201 493 201 474 q 206 513 201 504 q 231 549 210 521 l 422 806 q 431 831 431 817 q 400 846 431 846 l 306 846 q 213 808 261 846 q 132 718 164 771 q 104 683 118 696 q 71 669 90 669 q 49 694 49 669 q 58 732 49 713 q 88 813 82 782 q 100 917 93 843 q 109 948 103 939 q 132 957 115 957 q 172 938 142 957 q 210 915 197 921 q 251 906 231 907 q 294 904 271 904 q 329 904 318 904 l 613 906 q 667 908 631 906 l 706 911 q 715 903 711 911 q 719 885 719 894 q 717 874 719 876 l 457 539 q 458 518 444 519 q 654 449 582 511 q 726 282 726 388 q 625 60 725 139 q 365 -18 525 -18 z "},"Ƹ":{"ha":764,"x_min":39,"x_max":753,"o":"m 404 -19 q 231 13 315 -19 q 92 108 146 46 q 39 250 39 169 q 78 408 39 339 q 201 510 117 476 q 233 521 213 514 q 265 534 254 528 q 276 546 276 540 q 272 556 276 547 l 90 826 q 72 851 86 832 q 57 875 57 871 q 65 896 57 882 q 82 910 72 910 q 260 906 151 910 l 422 903 l 486 903 q 524 903 497 903 q 570 905 551 903 q 606 914 589 907 q 643 936 618 919 q 683 956 674 956 q 706 947 700 956 q 715 915 713 938 l 719 858 q 724 797 721 828 q 738 731 728 767 q 743 712 739 724 q 747 693 747 700 q 725 668 747 668 q 693 681 706 668 q 672 717 681 694 q 612 811 650 776 q 510 846 574 846 l 390 846 q 369 831 369 846 q 378 806 369 817 l 529 592 l 551 560 q 572 528 568 536 q 576 507 576 519 q 492 469 576 469 l 451 471 q 334 419 375 471 q 293 278 293 368 q 339 119 293 178 q 467 61 385 61 q 592 95 542 61 q 671 203 643 129 q 697 260 683 238 q 715 283 710 283 q 740 276 726 283 q 753 261 753 269 q 735 79 753 175 q 715 47 731 61 q 679 24 699 33 q 404 -19 574 -19 z "},"Ƽ":{"ha":750,"x_min":10,"x_max":711,"o":"m 379 -19 q 242 -6 308 -19 q 143 22 176 7 q 83 81 90 47 q 71 142 82 90 q 60 243 60 194 q 72 259 60 253 q 97 265 83 265 q 142 199 118 265 q 206 97 164 138 q 303 57 249 57 q 472 274 472 57 q 416 413 472 360 q 274 465 360 465 q 160 443 236 465 q 122 435 124 435 q 102 449 108 435 q 99 486 96 463 l 129 765 q 131 783 131 772 q 111 832 131 817 q 46 858 92 847 q 19 870 29 863 q 10 888 10 878 q 20 903 10 897 q 44 910 31 910 q 149 906 94 910 q 244 903 218 903 l 538 900 q 611 908 582 900 q 647 917 640 917 q 660 908 656 917 q 665 892 665 899 q 674 788 665 846 q 681 707 681 743 q 672 680 681 690 q 656 669 664 669 q 629 685 644 669 q 611 721 614 701 q 573 813 601 782 q 483 844 544 844 l 426 844 q 388 833 403 844 q 372 801 374 822 l 342 543 q 419 554 382 554 q 563 525 496 554 q 670 440 629 496 q 711 304 711 383 q 664 133 711 207 q 540 20 617 60 q 379 -19 464 -19 z "},"Ǆ":{"ha":1894,"x_min":21,"x_max":1881,"o":"m 535 -10 q 326 -3 472 -10 l 254 0 l 154 -1 q 46 -4 79 -4 q 29 2 38 -4 q 21 17 21 8 q 47 47 21 40 q 120 76 101 58 q 139 135 139 93 l 139 765 q 121 828 139 810 q 47 858 103 846 q 21 889 21 865 q 29 903 21 897 q 46 910 38 910 q 154 906 97 910 q 254 903 229 903 q 379 908 276 903 q 547 915 532 915 q 788 858 676 915 q 967 699 900 801 q 1033 465 1033 596 q 975 231 1033 340 q 803 56 917 122 q 535 -10 690 -10 m 513 67 q 713 162 646 67 q 779 425 779 257 q 708 724 779 614 q 499 835 638 835 q 401 827 428 835 q 375 789 375 819 l 375 186 q 408 94 375 122 q 513 67 440 67 m 1739 -4 l 1435 0 l 1225 -4 l 1118 -7 q 1098 12 1104 -7 q 1097 38 1092 31 q 1178 169 1153 126 q 1308 389 1233 268 q 1408 553 1382 510 q 1558 797 1475 658 q 1567 822 1567 814 q 1546 838 1567 838 l 1458 838 l 1369 838 q 1182 717 1256 838 q 1154 681 1168 694 q 1121 668 1140 668 q 1099 693 1099 668 q 1108 731 1099 711 q 1138 811 1132 781 q 1150 915 1143 842 q 1159 947 1153 938 q 1182 956 1165 956 q 1222 936 1192 956 q 1260 914 1247 919 q 1301 904 1281 906 q 1344 903 1321 903 q 1379 903 1368 903 l 1540 903 l 1690 906 q 1854 910 1788 910 q 1873 895 1864 910 q 1879 875 1882 881 l 1782 717 q 1626 450 1721 617 q 1438 129 1508 239 q 1421 89 1421 103 q 1429 77 1421 81 q 1456 72 1438 74 q 1549 69 1497 69 q 1655 75 1614 69 q 1726 96 1696 81 q 1781 143 1757 113 q 1826 226 1804 174 q 1853 243 1835 243 q 1867 238 1861 243 q 1874 222 1874 232 q 1840 67 1874 181 l 1828 22 q 1788 -6 1819 -6 l 1739 -4 m 1314 1185 q 1399 1160 1331 1185 q 1500 1118 1468 1136 q 1518 1113 1511 1113 q 1536 1118 1525 1113 q 1638 1162 1571 1138 q 1725 1186 1706 1186 q 1742 1181 1736 1186 q 1749 1167 1749 1175 q 1738 1143 1749 1153 l 1592 1011 q 1551 978 1564 986 q 1518 969 1538 969 q 1487 978 1500 969 q 1446 1011 1474 986 l 1299 1144 q 1286 1167 1286 1156 q 1294 1180 1286 1175 q 1314 1185 1301 1185 z "},"ǅ":{"ha":1693,"x_min":21,"x_max":1665,"o":"m 535 -10 q 326 -3 472 -10 l 254 0 l 154 -1 q 46 -4 79 -4 q 29 2 38 -4 q 21 17 21 8 q 47 47 21 40 q 120 76 101 58 q 139 135 139 93 l 139 765 q 121 828 139 810 q 47 858 103 846 q 21 889 21 865 q 29 903 21 897 q 46 910 38 910 q 154 906 97 910 q 254 903 229 903 q 379 908 276 903 q 547 915 532 915 q 788 858 676 915 q 967 699 900 801 q 1033 465 1033 596 q 975 231 1033 340 q 803 56 917 122 q 535 -10 690 -10 m 513 67 q 713 162 646 67 q 779 425 779 257 q 708 724 779 614 q 499 835 638 835 q 401 827 428 835 q 375 789 375 819 l 375 186 q 408 94 375 122 q 513 67 440 67 m 1131 -7 q 1110 8 1124 -7 q 1096 35 1096 22 q 1108 63 1096 44 q 1132 99 1119 81 q 1143 115 1138 107 q 1154 131 1149 122 l 1218 231 q 1386 501 1299 358 q 1389 510 1389 507 q 1371 518 1389 518 l 1308 518 q 1274 513 1288 518 q 1246 493 1260 507 q 1174 394 1233 481 l 1151 363 q 1135 356 1144 356 q 1114 362 1124 356 q 1106 376 1104 368 q 1124 453 1107 382 q 1142 575 1142 524 q 1152 601 1142 590 q 1175 613 1163 613 q 1203 599 1189 613 q 1271 589 1214 589 l 1329 590 q 1629 596 1503 590 q 1651 580 1642 596 q 1661 549 1661 564 q 1657 535 1661 542 q 1597 457 1633 507 l 1375 94 q 1371 83 1371 89 q 1396 74 1371 74 l 1467 74 q 1506 81 1489 74 q 1539 106 1522 88 q 1570 147 1557 125 q 1594 188 1583 168 q 1613 221 1606 208 q 1638 236 1621 236 q 1657 230 1649 236 q 1665 214 1665 224 q 1651 132 1665 193 q 1619 15 1636 71 q 1609 -1 1617 6 q 1592 -7 1601 -7 l 1519 -4 q 1413 -1 1492 -4 q 1256 1 1335 1 q 1178 -4 1228 1 l 1131 -7 m 1406 632 q 1382 645 1393 632 q 1351 692 1371 658 l 1310 763 q 1243 876 1272 822 q 1232 914 1232 899 q 1257 939 1232 939 q 1281 928 1268 939 q 1317 892 1293 918 q 1328 878 1322 886 q 1342 864 1335 871 q 1397 803 1372 828 q 1406 797 1403 797 q 1414 803 1408 797 q 1494 892 1436 825 q 1531 928 1517 917 q 1554 939 1544 939 q 1570 931 1564 939 q 1576 908 1576 922 q 1568 876 1576 893 q 1500 760 1547 838 l 1458 689 q 1430 644 1440 657 q 1406 632 1419 632 z "},"Ǉ":{"ha":1301,"x_min":21,"x_max":1301,"o":"m 54 -7 q 35 0 42 -7 q 28 15 28 7 q 35 32 28 24 q 56 44 43 40 q 122 75 104 58 q 139 132 139 92 l 139 765 q 121 828 139 810 q 47 858 103 846 q 21 889 21 865 q 29 903 21 897 q 46 910 38 910 q 154 906 97 910 q 254 903 229 903 q 358 906 281 903 q 469 908 439 908 q 492 888 492 908 q 485 869 492 875 q 465 858 479 863 q 392 824 408 842 q 375 764 375 806 l 375 146 q 391 92 375 108 q 443 75 407 75 l 578 75 q 674 114 631 75 q 749 226 713 150 q 770 263 763 256 q 788 271 778 271 q 802 262 797 271 q 807 242 807 253 q 805 228 807 238 q 801 210 803 219 q 772 101 781 136 q 760 19 764 67 q 736 -7 757 -7 l 615 -6 q 254 0 404 0 q 153 -4 207 0 q 54 -7 81 -7 m 865 -278 q 713 -256 764 -278 q 661 -194 661 -235 q 686 -138 661 -165 q 736 -111 711 -111 q 793 -143 764 -111 q 825 -185 808 -160 q 835 -199 828 -187 q 849 -215 843 -210 q 863 -219 856 -219 q 949 13 949 -219 l 949 765 q 931 828 949 810 q 857 858 913 846 q 831 889 831 865 q 839 903 831 897 q 856 910 847 910 q 964 906 907 910 q 1064 903 1039 903 q 1168 906 1090 903 q 1279 908 1249 908 q 1301 888 1301 908 q 1295 869 1301 875 q 1275 858 1289 863 q 1201 824 1218 842 q 1185 764 1185 806 l 1185 131 q 1153 6 1185 81 q 1072 -135 1122 -68 q 970 -239 1024 -200 q 865 -278 917 -278 z "},"ǈ":{"ha":1185,"x_min":21,"x_max":1115,"o":"m 54 -7 q 35 0 42 -7 q 28 15 28 7 q 35 32 28 24 q 56 44 43 40 q 122 75 104 58 q 139 132 139 92 l 139 765 q 121 828 139 810 q 47 858 103 846 q 21 889 21 865 q 29 903 21 897 q 46 910 38 910 q 154 906 97 910 q 254 903 229 903 q 358 906 281 903 q 469 908 439 908 q 492 888 492 908 q 485 869 492 875 q 465 858 479 863 q 392 824 408 842 q 375 764 375 806 l 375 146 q 391 92 375 108 q 443 75 407 75 l 578 75 q 674 114 631 75 q 749 226 713 150 q 770 263 763 256 q 788 271 778 271 q 802 262 797 271 q 807 242 807 253 q 805 228 807 238 q 801 210 803 219 q 772 101 781 136 q 760 19 764 67 q 736 -7 757 -7 l 615 -6 q 254 0 404 0 q 153 -4 207 0 q 54 -7 81 -7 m 810 -399 q 747 -375 747 -399 q 753 -358 747 -365 q 776 -344 760 -351 q 819 -317 803 -332 q 853 -268 836 -301 q 886 -121 876 -218 q 896 67 896 -24 l 896 394 q 882 460 896 442 q 836 483 868 479 q 824 492 828 485 q 819 510 819 500 q 824 526 819 519 q 836 535 829 533 q 950 567 900 547 q 1065 615 1000 586 q 1096 626 1090 626 q 1110 621 1106 626 q 1115 607 1115 615 l 1108 546 q 1097 400 1097 451 l 1099 126 q 1088 -51 1099 35 q 1043 -211 1076 -137 q 940 -341 1010 -283 q 810 -399 869 -399 m 992 678 q 910 713 944 678 q 875 794 875 747 q 909 881 875 846 q 992 915 943 915 q 1078 881 1043 915 q 1113 794 1113 846 q 1078 712 1113 746 q 992 678 1043 678 z "},"Ǌ":{"ha":1600,"x_min":14,"x_max":1600,"o":"m 949 -26 q 884 -2 925 -26 q 801 72 843 22 l 261 646 q 246 660 251 660 q 236 633 236 660 q 240 404 236 532 q 243 290 242 354 q 244 157 244 226 q 273 86 244 111 q 360 47 301 61 q 397 18 397 38 q 387 3 397 8 q 364 -3 376 -3 q 272 0 319 -3 l 204 1 q 125 -1 164 1 q 75 -4 86 -3 q 54 2 65 -4 q 43 17 43 8 q 51 34 43 28 q 76 47 60 40 q 146 160 139 72 q 175 706 175 468 q 144 804 175 771 q 51 861 113 838 q 14 892 14 871 q 50 914 14 914 l 156 911 q 332 907 322 907 q 360 893 350 907 l 872 325 q 892 308 886 308 q 903 328 903 308 l 903 474 q 899 768 903 690 q 872 825 897 807 q 790 858 847 843 q 758 888 758 867 q 767 902 758 896 q 788 908 776 908 l 878 907 q 935 906 896 906 l 999 907 q 1082 910 1043 910 q 1106 904 1097 910 q 1115 889 1115 899 q 1081 860 1115 867 q 1010 831 1031 850 q 989 772 989 813 q 979 456 989 689 q 972 236 972 319 q 977 158 972 204 q 983 97 982 111 q 989 42 989 44 q 949 -26 989 -26 m 1164 -278 q 1011 -256 1063 -278 q 960 -194 960 -235 q 985 -138 960 -165 q 1035 -111 1010 -111 q 1092 -143 1063 -111 q 1124 -185 1107 -160 q 1134 -199 1126 -187 q 1148 -215 1142 -210 q 1161 -219 1154 -219 q 1247 13 1247 -219 l 1247 765 q 1229 828 1247 810 q 1156 858 1211 846 q 1129 889 1129 865 q 1138 903 1129 897 q 1154 910 1146 910 q 1263 906 1206 910 q 1363 903 1338 903 q 1467 906 1389 903 q 1578 908 1547 908 q 1600 888 1600 908 q 1594 869 1600 875 q 1574 858 1588 863 q 1500 824 1517 842 q 1483 764 1483 806 l 1483 131 q 1452 6 1483 81 q 1371 -135 1421 -68 q 1269 -239 1322 -200 q 1164 -278 1215 -278 z "},"ǋ":{"ha":1467,"x_min":14,"x_max":1397,"o":"m 949 -26 q 884 -2 925 -26 q 801 72 843 22 l 261 646 q 246 660 251 660 q 236 633 236 660 q 240 404 236 532 q 243 290 242 354 q 244 157 244 226 q 273 86 244 111 q 360 47 301 61 q 397 18 397 38 q 387 3 397 8 q 364 -3 376 -3 q 272 0 319 -3 l 204 1 q 125 -1 164 1 q 75 -4 86 -3 q 54 2 65 -4 q 43 17 43 8 q 51 34 43 28 q 76 47 60 40 q 146 160 139 72 q 175 706 175 468 q 144 804 175 771 q 51 861 113 838 q 14 892 14 871 q 50 914 14 914 l 156 911 q 332 907 322 907 q 360 893 350 907 l 872 325 q 892 308 886 308 q 903 328 903 308 l 903 474 q 899 768 903 690 q 872 825 897 807 q 790 858 847 843 q 758 888 758 867 q 767 902 758 896 q 788 908 776 908 l 878 907 q 935 906 896 906 l 999 907 q 1082 910 1043 910 q 1106 904 1097 910 q 1115 889 1115 899 q 1081 860 1115 867 q 1010 831 1031 850 q 989 772 989 813 q 979 456 989 689 q 972 236 972 319 q 977 158 972 204 q 983 97 982 111 q 989 42 989 44 q 949 -26 989 -26 m 1092 -399 q 1029 -375 1029 -399 q 1035 -358 1029 -365 q 1058 -344 1042 -351 q 1101 -317 1085 -332 q 1135 -268 1118 -301 q 1168 -121 1158 -218 q 1178 67 1178 -24 l 1178 394 q 1164 460 1178 442 q 1118 483 1150 479 q 1106 492 1110 485 q 1101 510 1101 500 q 1106 526 1101 519 q 1118 535 1111 533 q 1232 567 1182 547 q 1347 615 1282 586 q 1378 626 1372 626 q 1392 621 1388 626 q 1397 607 1397 615 l 1390 546 q 1379 400 1379 451 l 1381 126 q 1369 -51 1381 35 q 1325 -211 1358 -137 q 1222 -341 1292 -283 q 1092 -399 1151 -399 m 1274 678 q 1192 713 1226 678 q 1157 794 1157 747 q 1191 881 1157 846 q 1274 915 1225 915 q 1360 881 1325 915 q 1394 794 1394 846 q 1360 712 1394 746 q 1274 678 1325 678 z "},"Ǎ":{"ha":1008,"x_min":-7,"x_max":1019,"o":"m 29 -7 q -7 17 -7 -7 q 1 35 -7 29 q 24 47 8 42 q 95 82 65 58 q 139 136 125 106 q 376 739 271 443 q 403 822 393 785 q 415 858 413 858 q 519 888 475 872 q 564 910 543 896 q 596 936 585 924 q 610 942 607 942 q 621 932 617 942 q 636 893 631 911 q 826 296 722 613 l 878 136 q 989 47 897 72 q 1012 36 1004 42 q 1019 18 1019 31 q 1012 3 1019 8 q 993 -3 1004 -3 q 882 0 965 -3 q 763 3 796 3 q 657 0 735 3 q 540 -4 593 -4 q 519 1 528 -4 q 511 17 511 7 q 542 47 511 40 q 613 72 590 57 q 636 113 636 86 q 633 135 636 126 l 590 296 q 583 314 588 308 q 568 319 578 319 l 326 319 q 311 314 315 319 q 303 296 307 308 l 283 236 q 271 196 279 221 q 257 151 263 171 q 251 115 251 133 q 272 74 251 89 q 343 47 292 60 q 374 17 374 40 q 344 -3 374 -3 q 263 0 313 -3 l 188 1 q 111 -3 149 1 q 74 -6 99 -4 q 29 -7 49 -7 m 539 400 q 560 410 560 400 q 557 425 560 411 l 468 732 q 460 746 464 746 q 451 732 457 746 l 344 425 q 342 414 342 419 q 349 403 342 407 q 365 400 356 400 l 539 400 m 324 1185 q 409 1160 340 1185 q 510 1118 478 1136 q 528 1113 521 1113 q 546 1118 535 1113 q 648 1162 581 1138 q 735 1186 715 1186 q 752 1181 746 1186 q 758 1167 758 1175 q 747 1143 758 1153 l 601 1011 q 560 978 574 986 q 528 969 547 969 q 497 978 510 969 q 456 1011 483 986 l 308 1144 q 296 1167 296 1156 q 303 1180 296 1175 q 324 1185 311 1185 z "},"Ǐ":{"ha":513,"x_min":21,"x_max":492,"o":"m 46 -4 q 29 2 38 -4 q 21 17 21 8 q 47 47 21 40 q 120 76 101 58 q 139 135 139 93 l 139 765 q 121 828 139 810 q 47 858 103 846 q 21 889 21 865 q 29 903 21 897 q 46 910 38 910 q 154 906 97 910 q 254 903 229 903 q 358 906 281 903 q 469 908 439 908 q 492 888 492 908 q 485 869 492 875 q 465 858 479 863 q 392 824 408 842 q 375 764 375 806 l 375 136 q 393 80 375 97 q 465 47 411 63 q 485 37 479 43 q 492 18 492 31 q 469 -3 492 -3 q 358 0 439 -3 q 254 3 281 3 q 154 0 229 3 q 46 -4 99 -4 m 57 1185 q 142 1160 74 1185 q 243 1118 211 1136 q 261 1113 254 1113 q 279 1118 268 1113 q 381 1162 314 1138 q 468 1186 449 1186 q 485 1181 479 1186 q 492 1167 492 1175 q 481 1143 492 1153 l 335 1011 q 294 978 307 986 q 261 969 281 969 q 230 978 243 969 q 189 1011 217 986 l 42 1144 q 29 1167 29 1156 q 37 1180 29 1175 q 57 1185 44 1185 z "},"Ǒ":{"ha":1054,"x_min":35,"x_max":1019,"o":"m 521 -19 q 280 38 392 -19 q 101 200 168 96 q 35 438 35 304 q 93 676 35 565 q 265 855 151 788 q 533 922 378 922 q 774 865 663 922 q 953 703 886 807 q 1019 465 1019 599 q 961 226 1019 338 q 790 48 903 115 q 521 -19 676 -19 m 546 46 q 710 140 653 46 q 768 393 768 235 q 740 617 768 511 q 652 789 711 722 q 506 856 593 856 q 342 761 399 856 q 286 510 286 667 q 315 287 286 393 q 401 113 343 181 q 546 46 460 46 m 340 1185 q 426 1160 357 1185 q 526 1118 494 1136 q 544 1113 538 1113 q 563 1118 551 1113 q 665 1162 597 1138 q 751 1186 732 1186 q 769 1181 763 1186 q 775 1167 775 1175 q 764 1143 775 1153 l 618 1011 q 577 978 590 986 q 544 969 564 969 q 513 978 526 969 q 472 1011 500 986 l 325 1144 q 313 1167 313 1156 q 320 1180 313 1175 q 340 1185 328 1185 z "},"Ǔ":{"ha":1036,"x_min":11,"x_max":1025,"o":"m 518 -19 q 223 81 325 -19 q 121 356 121 182 l 121 744 q 102 816 121 783 q 49 858 83 849 q 11 889 11 868 q 22 904 11 899 q 47 910 32 910 q 147 906 96 910 q 238 903 211 903 q 336 906 264 903 q 442 908 411 908 q 478 888 478 908 q 467 869 478 876 q 438 856 456 863 q 410 844 421 850 q 358 736 358 819 l 358 378 q 418 180 358 247 q 569 113 478 113 q 753 183 693 113 q 814 404 814 254 q 815 494 814 463 l 817 599 q 815 663 817 643 q 806 765 814 729 q 783 819 799 800 q 738 853 768 838 q 713 863 728 858 q 689 874 697 868 q 681 888 681 879 q 722 908 681 908 q 810 906 765 908 l 863 904 q 924 907 888 904 q 990 910 960 910 q 1025 889 1025 910 q 989 858 1025 869 q 922 815 942 844 q 900 732 903 786 q 893 368 893 564 q 843 167 893 256 q 708 30 793 79 q 518 -19 622 -19 m 365 1185 q 451 1160 382 1185 q 551 1118 519 1136 q 569 1113 563 1113 q 588 1118 576 1113 q 690 1162 622 1138 q 776 1186 757 1186 q 794 1181 788 1186 q 800 1167 800 1175 q 789 1143 800 1153 l 643 1011 q 602 978 615 986 q 569 969 589 969 q 538 978 551 969 q 497 1011 525 986 l 350 1144 q 338 1167 338 1156 q 345 1180 338 1175 q 365 1185 353 1185 z "}}}
